<?xml version="1.0" encoding="UTF-8"?>
<svg width="144px" height="96px" viewBox="0 0 144 96" version="1.1" xmlns="http://www.w3.org/2000/svg" xmlns:xlink="http://www.w3.org/1999/xlink">
    <title>al_b</title>
    <defs>
        <polygon id="path-1" points="0 0 18.6612701 0 18.6612701 20.2361601 0 20.2361601"></polygon>
        <polygon id="path-3" points="0 0 18.5065277 0 18.5065277 20.3786655 0 20.3786655"></polygon>
    </defs>
    <g id="al_b" stroke="none" stroke-width="1" fill="none" fill-rule="evenodd">
        <g id="Group-23" transform="translate(12.000000, 25.000000)">
            <g id="Group-3" transform="translate(0.000000, 0.142570)">
                <mask id="mask-2" fill="white">
                    <use xlink:href="#path-1"></use>
                </mask>
                <g id="Clip-2"></g>
                <path d="M6.15257668,12.0847458 L12.2793509,12.0847458 L9.21628959,1.96666573 L6.15257668,12.0847458 Z M0.469526058,20.2361601 C0.29750985,20.2361601 0.168497694,20.1719451 0.0824895905,20.0441637 C-0.00351851334,19.9157337 -0.0224142331,19.7756282 0.0258024311,19.6238473 L5.98056047,0.555881441 C6.0378992,0.375560507 6.13824199,0.237400942 6.28158883,0.14270002 C6.42493567,0.0479990975 6.57740458,0 6.73964714,0 L11.9359701,0 C12.0982126,0 12.2506816,0.0479990975 12.3940284,0.14270002 C12.5373752,0.237400942 12.637718,0.375560507 12.6944052,0.555881441 L18.6354801,19.6238473 C18.6836968,19.7756282 18.6641495,19.9157337 18.5781414,20.0441637 C18.4921333,20.1719451 18.3683337,20.2361601 18.2067427,20.2361601 L15.2857251,20.2361601 C15.1045868,20.2361601 14.944299,20.1862151 14.8068163,20.0863251 C14.667379,19.986435 14.570294,19.8515187 14.5129553,19.6802786 L13.110111,15.0632844 L5.3074819,15.0632844 L3.87661981,19.6802786 C3.82840314,19.8515187 3.737834,19.986435 3.60426081,20.0863251 C3.47068762,20.1862151 3.31821871,20.2361601 3.1462025,20.2361601 L0.469526058,20.2361601 Z" id="Fill-1" fill="#000000" mask="url(#mask-2)"></path>
            </g>
            <g id="Group-6" transform="translate(20.854359, 0.000000)">
                <mask id="mask-4" fill="white">
                    <use xlink:href="#path-3"></use>
                </mask>
                <g id="Clip-5"></g>
                <path d="M4.10819011,9.99010406 L4.10819011,3.77616684 C4.10819011,3.61465636 4.16552885,3.47260498 4.28020632,3.34936405 C4.39488379,3.22547449 4.54279167,3.16385403 4.72392994,3.16385403 L12.0248451,3.16385403 C12.2822179,3.16385403 12.5070118,3.22093404 12.6972721,3.33509405 C12.888184,3.44860543 13.0413045,3.60298091 13.155982,3.79757184 C13.2700079,3.99281142 13.3279982,4.2185369 13.3279982,4.4747483 L13.3279982,8.66429115 C13.3279982,8.93088074 13.2700079,9.16114668 13.155982,9.35573761 C13.0413045,9.55032855 12.888184,9.70470402 12.6972721,9.81886404 C12.5070118,9.93302406 12.2867789,9.99010406 12.0391798,9.99010406 L4.10819011,9.99010406 Z M18.438313,19.8085141 L13.8603362,11.7401252 L15.6033035,10.4889055 C16.1858129,10.099075 16.6464775,9.60546265 16.9852974,9.0067712 C17.3241172,8.40807975 17.4935271,7.74776784 17.4935271,7.02583547 L17.4935271,4.54609831 C17.4935271,3.76708593 17.2928415,3.03282947 16.8921219,2.34462619 C16.4914023,1.65577427 15.9447296,1.09275783 15.2527553,0.655576863 C14.560781,0.218395894 13.7710703,-0.000194590936 12.883623,-0.000194590936 C12.7024847,-0.000194590936 12.4998444,0.00694041005 12.2750505,0.021210412 C12.0509082,0.0361290505 11.8052638,0.056885417 11.5381174,0.0854254209 C11.2709711,0.113965425 10.9673364,0.147045884 10.6291682,0.185315435 C10.2896968,0.223584985 9.90852451,0.276124538 9.4836966,0.342285456 C9.05886869,0.408446375 8.57930836,0.489525931 8.04501559,0.584226854 C7.51072282,0.679576412 6.91648502,0.786601427 6.26295374,0.904653262 C5.60942247,1.02400237 4.87183782,1.1543783 4.05150295,1.29642968 L4.05150295,0.698386869 C4.05150295,0.546605939 3.99872525,0.415581376 3.89382143,0.305961815 C3.7889176,0.197639527 3.65469284,0.142505429 3.49245028,0.142505429 L0.558401098,0.142505429 C0.405932187,0.142505429 0.273662149,0.197639527 0.164848866,0.305961815 C0.0547324297,0.415581376 0,0.546605939 0,0.698386869 L0,19.8227841 C0,19.9654841 0.0547324297,20.0939141 0.164848866,20.2074255 C0.273662149,20.3215855 0.405932187,20.3786655 0.558401098,20.3786655 L3.55044059,20.3786655 C3.69313585,20.3786655 3.82214801,20.3215855 3.93682548,20.2074255 C4.05150295,20.0939141 4.10819011,19.9654841 4.10819011,19.8227841 L4.10819011,12.9115626 L9.23349121,12.9115626 C9.67200222,12.9115626 9.99713892,13.0873431 10.206295,13.4382554 L13.8290606,19.8798641 C14.0101989,20.2126146 14.2864673,20.3786655 14.6591691,20.3786655 L18.0799459,20.3786655 C18.2519622,20.3786655 18.3764133,20.3196396 18.4526477,20.2002905 C18.5288822,20.0822386 18.5243211,19.9512141 18.438313,19.8085141 L18.438313,19.8085141 Z" id="Fill-4" fill="#000000" mask="url(#mask-4)"></path>
            </g>
            <path d="M47.1373277,20.3788601 C46.9848588,20.3788601 46.850634,20.3217801 46.7366081,20.2076201 C46.6219307,20.0934601 46.5645919,19.9656787 46.5645919,19.8229787 L46.5645919,3.19193999 L40.3661443,3.19193999 C40.2136754,3.19193999 40.0774959,3.13550862 39.9582574,3.0213486 C39.8383673,2.90718858 39.7790738,2.77421811 39.7790738,2.62243718 L39.7790738,0.69858146 C39.7790738,0.546151894 39.8383673,0.415775967 39.9582574,0.306156406 C40.0774959,0.197185482 40.2136754,0.14270002 40.3661443,0.14270002 L56.8432119,0.14270002 C57.0054545,0.14270002 57.1409824,0.197185482 57.2510988,0.306156406 C57.3612153,0.415775967 57.4159477,0.546151894 57.4159477,0.69858146 L57.4159477,2.62243718 C57.4159477,2.77421811 57.3612153,2.90718858 57.2510988,3.0213486 C57.1409824,3.13550862 57.0054545,3.19193999 56.8432119,3.19193999 L50.6590989,3.19193999 L50.6590989,19.8229787 C50.6590989,19.9656787 50.6037149,20.0934601 50.4942501,20.2076201 C50.3847852,20.3217801 50.2531668,20.3788601 50.1006978,20.3788601 L47.1373277,20.3788601 Z" id="Fill-7" fill="#000000"></path>
            <path d="M4.91321293,46 C4.31245936,46 3.75275511,45.8903804 3.23279702,45.6724386 C2.71349052,45.4544967 2.25347748,45.1457458 1.85340948,44.747483 C1.45268991,44.3485716 1.14319105,43.8886883 0.923609751,43.3658874 C0.704680032,42.8443837 0.595215173,42.2846104 0.595215173,41.6872162 L0.595215173,26.327505 C0.595215173,26.1763727 0.649947603,26.0459968 0.759412462,25.9363772 C0.868877322,25.8274063 1.00440524,25.7729208 1.1666478,25.7729208 L4.14109473,25.7729208 C4.29356364,25.7729208 4.42453052,25.8274063 4.53464696,25.9363772 C4.64346024,26.0459968 4.69884425,26.1763727 4.69884425,26.327505 L4.69884425,41.6294876 C4.69884425,41.8863476 4.75553141,42.1094786 4.87020888,42.2988804 C4.98488635,42.4889309 5.13930999,42.6426577 5.33478295,42.7613582 C5.53025592,42.8800587 5.75179194,42.9397332 6.00004261,42.9397332 L14.7937196,42.9397332 C14.9748579,42.9397332 15.0888838,43.0175696 15.1364489,43.1745396 C15.184014,43.330861 15.1416615,43.4657774 15.0080883,43.5799374 L13.2351486,45.0458558 C12.872872,45.3403367 12.4864871,45.5731972 12.0766455,45.74314 C11.6668038,45.91438 11.2191707,46 10.732443,46 L4.91321293,46 Z" id="Fill-9" fill="#000000"></path>
            <path d="M17.5668946,45.9856651 C17.4150772,45.9856651 17.2834588,45.9285851 17.1739939,45.8144251 C17.0645291,45.7009137 17.0091451,45.5731324 17.0091451,45.4304323 L17.0091451,26.3280888 C17.0091451,26.1763078 17.0645291,26.0459319 17.1739939,25.9363124 C17.2834588,25.8273414 17.4150772,25.772856 17.5668946,25.772856 L20.5126721,25.772856 C20.665141,25.772856 20.7935016,25.8273414 20.899057,25.9363124 C21.0033093,26.0459319 21.056087,26.1763078 21.056087,26.3280888 L21.056087,45.4304323 C21.056087,45.5731324 21.0033093,45.7009137 20.899057,45.8144251 C20.7935016,45.9285851 20.665141,45.9856651 20.5126721,45.9856651 L17.5668946,45.9856651 Z" id="Fill-11" fill="#000000"></path>
            <path d="M28.9945698,43.0389746 L36.8727818,43.0389746 C37.1203809,43.0389746 37.3406137,42.9818946 37.5315257,42.8683832 C37.721786,42.7542232 37.8762097,42.6030909 37.9960997,42.4123918 C38.1153383,42.2229899 38.1739801,42.0095885 38.1739801,41.7721876 L38.1739801,38.3130094 C38.1739801,38.0665275 38.117293,37.8485857 38.0032671,37.6585352 C37.887938,37.4684847 37.7335144,37.3192983 37.5380414,37.2096788 C37.3425685,37.1007079 37.1203809,37.0462224 36.8727818,37.0462224 L28.9945698,37.0462224 L28.9945698,43.0389746 Z M28.9945698,34.242167 L36.8017599,34.242167 C37.0584811,34.242167 37.2826234,34.1876815 37.4741869,34.078062 C37.6637957,33.9697397 37.8195225,33.8153642 37.9381094,33.6162328 C38.0579995,33.4164528 38.117293,33.2030514 38.117293,32.97538 L38.117293,30.0143546 C38.117293,29.7581432 38.0579995,29.5350123 37.9381094,29.3456104 C37.8195225,29.1562086 37.6637957,29.0063736 37.4741869,28.8974026 C37.2826234,28.7884317 37.0584811,28.7339462 36.8017599,28.7339462 L29.566654,28.7339462 C29.3946378,28.7339462 29.2571551,28.7858372 29.1515997,28.889619 C29.0466959,28.9946981 28.9945698,29.1419386 28.9945698,29.3313404 L28.9945698,34.242167 Z M25.4623733,45.98573 C25.310556,45.98573 25.1789376,45.92865 25.0694727,45.81449 C24.9600078,45.7009786 24.9046238,45.5731972 24.9046238,45.4304972 L24.9046238,26.327505 C24.9046238,26.1763727 24.9600078,26.0459968 25.0694727,25.9363772 C25.1789376,25.8274063 25.310556,25.7729208 25.4623733,25.7729208 L28.3944678,25.7729208 C28.5560588,25.7729208 28.689632,25.8274063 28.7951874,25.9363772 C28.8994396,26.0459968 28.9515657,26.1763727 28.9515657,26.327505 L28.9515657,26.9112778 C29.7523533,26.7692264 30.4769064,26.641445 31.1245735,26.527285 C31.7735438,26.413125 32.3690847,26.3093432 32.9124996,26.2139936 C33.4559144,26.1192927 33.9393842,26.0408077 34.3642121,25.9791872 C34.7877368,25.9175668 35.172167,25.8630813 35.5142447,25.8157308 C35.8582771,25.7677317 36.1651697,25.7320567 36.4375287,25.7087058 C36.7085845,25.6847063 36.9522741,25.6684904 37.1666428,25.6587608 C37.3810115,25.6496799 37.5882128,25.6444908 37.7888984,25.6444908 C38.6652689,25.6444908 39.4419481,25.8319468 40.1195877,26.2075073 C40.7965757,26.5817705 41.3302169,27.0915987 41.7205113,27.736992 C42.1114572,28.3823853 42.3062786,29.1270199 42.3062786,29.9721932 L42.3062786,31.2532502 C42.3062786,31.8986435 42.1687959,32.4843622 41.8925275,33.011055 C41.616259,33.5377478 41.2298741,33.9859556 40.734676,34.356327 L40.032928,34.8966412 C40.7868021,35.2955526 41.377782,35.831975 41.8058678,36.5052596 C42.2352567,37.1798415 42.4496254,37.9387462 42.4496254,38.7826222 L42.4496254,40.3633492 C42.4496254,41.0087425 42.3004144,41.6204067 41.999386,42.1989904 C41.6990092,42.7782227 41.2872129,43.238106 40.7620422,43.5799374 L38.4463391,45.2884458 C38.1505234,45.4966581 37.8071426,45.6653036 37.4161966,45.793085 C37.0259023,45.921515 36.6297437,45.98573 36.2296757,45.98573 L25.4623733,45.98573 Z" id="Fill-13" fill="#000000"></path>
            <path d="M49.787485,35.6087143 L49.787485,29.4025607 C49.787485,29.2416989 49.8448237,29.0989988 49.9595012,28.9751093 C50.0735271,28.8518684 50.221435,28.7902479 50.4025733,28.7902479 L57.6950179,28.7902479 C57.9523907,28.7902479 58.1758814,28.8473279 58.3674449,28.9608393 C58.5577053,29.0749993 58.7101742,29.2293748 58.8242001,29.4239657 C58.9395291,29.6185566 58.9962163,29.8436335 58.9962163,30.0998449 L58.9962163,34.2848473 C58.9962163,34.5507882 58.9395291,34.7810542 58.8242001,34.9756451 C58.7101742,35.170236 58.5577053,35.3239629 58.3674449,35.4374743 C58.1758814,35.5516343 57.9569517,35.6087143 57.7093526,35.6087143 L49.787485,35.6087143 Z M64.1013185,45.4160975 L59.5285543,37.3567895 L61.2695669,36.1068671 C61.8514247,35.7176852 62.3114377,35.2240729 62.649606,34.6266787 C62.9877742,34.0286359 63.1571841,33.3689726 63.1571841,32.6476889 L63.1571841,30.1711949 C63.1571841,29.3934798 62.9571501,28.6605206 62.5564305,27.9716687 C62.1563625,27.284114 61.6103414,26.7217462 60.9196703,26.2852139 C60.227696,25.8486816 59.4392883,25.6300911 58.5531442,25.6300911 C58.372006,25.6300911 58.1693657,25.6378747 57.9452233,25.6521447 C57.721081,25.6657661 57.4754366,25.6878197 57.2089418,25.7157111 C56.9417954,25.7442511 56.6394639,25.7773316 56.3006441,25.8156011 C55.9618243,25.853222 55.5813036,25.9057616 55.1571273,25.9719225 C54.7322994,26.0387321 54.2533906,26.1198116 53.7197494,26.2138639 C53.1861082,26.3092135 52.592522,26.4162385 51.9396423,26.5342903 C51.286111,26.6529908 50.5498296,26.7833667 49.7301463,26.9260667 L49.7301463,26.3280239 C49.7301463,26.176243 49.6780201,26.0458671 49.5737679,25.9362475 C49.4682125,25.8272766 49.3346393,25.7727911 49.1730483,25.7727911 L46.2416054,25.7727911 C46.0891365,25.7727911 45.9575181,25.8272766 45.8480532,25.9362475 C45.7385884,26.0458671 45.6838559,26.176243 45.6838559,26.3280239 L45.6838559,45.4303675 C45.6838559,45.5730675 45.7385884,45.7008489 45.8480532,45.8143602 C45.9575181,45.9285203 46.0891365,45.9856003 46.2416054,45.9856003 L49.2297355,45.9856003 C49.3730823,45.9856003 49.5020945,45.9285203 49.6161204,45.8143602 C49.7301463,45.7008489 49.787485,45.5730675 49.787485,45.4303675 L49.787485,38.5269297 L54.9062703,38.5269297 C55.3454329,38.5269297 55.6692665,38.7027102 55.8790741,39.0529739 L59.4966271,45.4874475 C59.6777654,45.8195493 59.9540338,45.9856003 60.326084,45.9856003 L63.743603,45.9856003 C63.9149676,45.9856003 64.0387672,45.9259257 64.1150016,45.8078739 C64.1912361,45.6891734 64.186675,45.5587975 64.1013185,45.4160975 L64.1013185,45.4160975 Z" id="Fill-15" fill="#000000"></path>
            <path d="M71.2244836,37.8435912 L77.3440905,37.8435912 L74.2842871,27.7371866 L71.2244836,37.8435912 Z M65.5479488,45.9859246 C65.3765841,45.9859246 65.247572,45.9210609 65.1622154,45.7932796 C65.0762073,45.6654982 65.05666,45.5253927 65.1048767,45.3736118 L71.053119,26.3276996 C71.1104577,26.1473787 71.2101489,26.0098677 71.3528442,25.9151668 C71.496191,25.8204659 71.6486599,25.7724668 71.8109025,25.7724668 L77.0007097,25.7724668 C77.1629522,25.7724668 77.3160727,25.8204659 77.458768,25.9151668 C77.6021148,26.0098677 77.701806,26.1473787 77.7591448,26.3276996 L83.6930524,45.3736118 C83.7406174,45.5253927 83.7217217,45.6654982 83.6357136,45.7932796 C83.5503571,45.9210609 83.425906,45.9859246 83.264315,45.9859246 L80.3472068,45.9859246 C80.1660685,45.9859246 80.0064323,45.9359796 79.868298,45.8360896 C79.7301638,45.7361996 79.6324273,45.6012832 79.5750886,45.4306918 L78.174199,40.818238 L70.380692,40.818238 L68.951133,45.4306918 C68.9029164,45.6012832 68.8123472,45.7361996 68.6787741,45.8360896 C68.5458524,45.9359796 68.3933835,45.9859246 68.2220189,45.9859246 L65.5479488,45.9859246 Z" id="Fill-17" fill="#000000"></path>
            <path d="M88.8689158,35.6087143 L88.8689158,29.4025607 C88.8689158,29.2416989 88.9262545,29.0989988 89.040932,28.9751093 C89.1549579,28.8518684 89.3028658,28.7902479 89.4840041,28.7902479 L96.7764487,28.7902479 C97.0338215,28.7902479 97.2573122,28.8473279 97.4488757,28.9608393 C97.6391361,29.0749993 97.791605,29.2293748 97.9062825,29.4239657 C98.0209599,29.6185566 98.0776471,29.8436335 98.0776471,30.0998449 L98.0776471,34.2848473 C98.0776471,34.5507882 98.0209599,34.7810542 97.9062825,34.9756451 C97.791605,35.170236 97.6391361,35.3239629 97.4488757,35.4374743 C97.2573122,35.5516343 97.0383825,35.6087143 96.7907834,35.6087143 L88.8689158,35.6087143 Z M103.182749,45.4160975 L98.6099851,37.3567895 L100.350998,36.1068671 C100.932856,35.7176852 101.392869,35.2240729 101.731037,34.6266787 C102.069205,34.0286359 102.238615,33.3689726 102.238615,32.6476889 L102.238615,30.1711949 C102.238615,29.3934798 102.038581,28.6605206 101.637861,27.9716687 C101.237793,27.284114 100.691772,26.7217462 100.001101,26.2852139 C99.3091268,25.8486816 98.5207191,25.6300911 97.634575,25.6300911 C97.4534368,25.6300911 97.2507965,25.6378747 97.0266541,25.6521447 C96.8025118,25.6657661 96.5568674,25.6878197 96.2903726,25.7157111 C96.0232262,25.7442511 95.7208947,25.7773316 95.3827265,25.8156011 C95.0432551,25.853222 94.6627344,25.9057616 94.2385581,25.9719225 C93.8143818,26.0387321 93.3348214,26.1198116 92.8011802,26.2138639 C92.267539,26.3092135 91.6739528,26.4162385 91.0210731,26.5342903 C90.3681934,26.6529908 89.6312604,26.7833667 88.8115771,26.9260667 L88.8115771,26.3280239 C88.8115771,26.176243 88.7594509,26.0458671 88.6551987,25.9362475 C88.5496433,25.8272766 88.4167217,25.7727911 88.2544791,25.7727911 L85.3230362,25.7727911 C85.1705673,25.7727911 85.0389489,25.8272766 84.929484,25.9362475 C84.8200191,26.0458671 84.7652867,26.176243 84.7652867,26.3280239 L84.7652867,45.4303675 C84.7652867,45.5730675 84.8200191,45.7008489 84.929484,45.8143602 C85.0389489,45.9285203 85.1705673,45.9856003 85.3230362,45.9856003 L88.3111663,45.9856003 C88.4545131,45.9856003 88.5835253,45.9285203 88.6975512,45.8143602 C88.8115771,45.7008489 88.8689158,45.5730675 88.8689158,45.4303675 L88.8689158,38.5269297 L93.9883527,38.5269297 C94.4268637,38.5269297 94.7506973,38.7027102 94.9605049,39.0529739 L98.5780579,45.4874475 C98.7591962,45.8195493 99.0354646,45.9856003 99.4075148,45.9856003 L102.825034,45.9856003 C102.996398,45.9856003 103.120198,45.9259257 103.196432,45.8078739 C103.272667,45.6891734 103.268106,45.5587975 103.182749,45.4160975 L103.182749,45.4160975 Z" id="Fill-19" fill="#000000"></path>
            <path d="M110.331521,45.9856651 C110.179052,45.9856651 110.047434,45.9285851 109.937969,45.8144251 C109.828504,45.7009137 109.773772,45.5731324 109.773772,45.4304323 L109.773772,39.0251474 C109.773772,38.8824473 109.754876,38.7449364 109.717085,38.6126146 C109.678642,38.4796441 109.621303,38.3512141 109.545068,38.2279732 L102.695696,26.3566288 C102.609688,26.2236583 102.605127,26.0932824 102.681361,25.9648524 C102.757596,25.837071 102.871622,25.772856 103.024742,25.772856 L106.399257,25.772856 C106.571273,25.772856 106.727652,25.8130714 106.870998,25.8935024 C107.013694,25.9745819 107.128371,26.0906878 107.213728,26.2431174 L111.904427,34.5125835 L116.565806,26.2431174 C116.651162,26.0906878 116.758672,25.9745819 116.887033,25.8935024 C117.016045,25.8130714 117.17112,25.772856 117.352259,25.772856 L120.597761,25.772856 C120.760004,25.772856 120.876636,25.837071 120.94831,25.9648524 C121.019331,26.0932824 121.017377,26.2236583 120.941142,26.3566288 L114.077435,38.2279732 C114.0012,38.3421332 113.946468,38.4679686 113.913238,38.6048309 C113.879356,38.7423419 113.863066,38.8824473 113.863066,39.0251474 L113.863066,45.4304323 C113.863066,45.5731324 113.808334,45.7009137 113.698869,45.8144251 C113.589404,45.9285851 113.457786,45.9856651 113.305317,45.9856651 L110.331521,45.9856651 Z" id="Fill-21" fill="#000000"></path>
        </g>
    </g>
</svg>