<?xml version="1.0" encoding="UTF-8"?>
<svg width="144px" height="96px" viewBox="0 0 144 96" version="1.1" xmlns="http://www.w3.org/2000/svg" xmlns:xlink="http://www.w3.org/1999/xlink">
    <title>cf_b</title>
    <defs>
        <polygon id="path-1" points="0 0 16.8416771 0 16.8416771 20.9708352 0 20.9708352"></polygon>
        <polygon id="path-3" points="0 0 14.2196604 0 14.2196604 20.6908638 0 20.6908638"></polygon>
    </defs>
    <g id="Page-1" stroke="none" stroke-width="1" fill="none" fill-rule="evenodd">
        <g id="Artboard" transform="translate(-133.000000, -250.000000)">
            <g id="cf_b" transform="translate(133.000000, 250.000000)">
                <rect id="Rectangle-Copy-2" fill="#FFFFFF" x="0" y="0" width="144" height="96"></rect>
                <g id="Group-25" transform="translate(10.000000, 25.000000)">
                    <path d="M0,16.9171604 L0,6.24785331 C0,4.66934161 0.670322162,3.46097301 2.03438093,2.6443617 L5.29701684,0.814584983 C5.88438496,0.448494551 6.58213548,0.278958207 7.21900843,0.278958207 L14.136305,0.278958207 C14.4687901,0.278958207 14.6360362,0.448494551 14.6360362,0.788918126 L14.6360362,2.84361756 C14.6360362,3.15297073 14.4687901,3.293463 14.136305,3.293463 L4.46011762,3.293463 C4.12562552,3.293463 3.98714579,3.48934164 3.98714579,3.85543208 L3.98714579,17.4237431 C3.98714579,17.7898336 4.12562552,17.9607208 4.46011762,17.9607208 L14.4159404,17.9607208 C14.7203282,17.9607208 14.9183475,18.0998622 14.9183475,18.3808467 C14.9183475,18.6915508 14.7771918,18.9455176 14.4687901,19.1116767 L12.0744957,20.4652657 C11.426919,20.8306807 10.7626177,20.9704975 10.0909576,20.9704975 L4.07076882,20.9704975 C2.0905756,20.9704975 0,19.5351798 0,16.9171604" id="Fill-1" fill="#000000"></path>
                    <path d="M28.1871138,12.1889201 L25.6215594,3.14945842 C25.5660337,2.9832993 25.4248781,2.86914933 25.2047823,2.86914933 C25.0094389,2.86914933 24.8963806,2.9832993 24.8140955,3.14945842 L22.2773074,12.1889201 C22.1642491,12.5813529 22.3027288,12.6934765 22.6385589,12.6934765 L27.7415703,12.6934765 C28.1596854,12.6934765 28.2981652,12.5813529 28.1871138,12.1889201 L28.1871138,12.1889201 Z M34.5157043,20.520517 C34.6274246,20.8582388 34.5157043,20.9703624 34.1537838,20.9703624 L31.1694453,20.9703624 C30.8369602,20.9703624 30.6141885,20.8582388 30.5292275,20.4941747 L29.3310768,16.2415817 C29.193266,15.9612727 28.9691563,15.734999 28.6353332,15.734999 L21.8003217,15.734999 C21.4671676,15.734999 21.2156295,15.9612727 21.1614418,16.2415817 L19.9331868,20.4941747 C19.8509018,20.8582388 19.6816488,20.9703624 19.2923,20.9703624 L16.2537738,20.9703624 C15.94671,20.9703624 15.862418,20.8582388 15.94671,20.520517 L21.915387,0.757712632 C21.997672,0.44971035 22.2217817,0.279498562 22.5549359,0.279498562 L27.8512837,0.279498562 C28.2413015,0.279498562 28.4667492,0.44971035 28.5778006,0.757712632 L34.5157043,20.520517 Z" id="Fill-3" fill="#000000"></path>
                    <path d="M48.3458152,9.26107476 L48.3458152,3.85549962 C48.3458152,3.48940919 48.1518098,3.29353054 47.8179867,3.29353054 L40.481237,3.29353054 C40.1487519,3.29353054 40.0096032,3.48940919 40.0096032,3.85549962 L40.0096032,9.2880925 C40.0096032,9.65418294 40.1487519,9.82304384 40.481237,9.82304384 L47.8179867,9.82304384 C48.1518098,9.82304384 48.3458152,9.62648975 48.3458152,9.26107476 M52.332292,3.46104056 L52.332292,6.89702216 C52.332292,8.50187615 51.6345415,9.65418294 50.2136191,10.4687679 L48.7639303,11.3434674 C48.4568666,11.5400215 48.3725746,11.7669705 48.5953463,12.0749728 L53.5291047,20.60515 C53.6709294,20.9138278 53.6421631,20.970565 53.2508073,20.970565 L49.7955039,20.970565 C49.4871022,20.970565 49.2101428,20.8584414 49.0689871,20.5504391 L44.9446996,13.3441313 C44.7754466,13.0334273 44.4958112,12.86254 44.1352287,12.86254 L40.481237,12.86254 C40.1487519,12.86254 40.0096032,13.0597696 40.0096032,13.3988423 L40.0096032,20.4937018 C40.0096032,20.8584414 39.7868314,20.970565 39.4496634,20.970565 L36.5509549,20.970565 C36.2164628,20.970565 36.1034045,20.8584414 36.1034045,20.5207196 L36.1034045,0.788310227 C36.1034045,0.448562096 36.2164628,0.279025752 36.5509549,0.279025752 L39.4496634,0.279025752 C39.7868314,0.279025752 40.0096032,0.448562096 40.0096032,0.788310227 L40.0096032,1.23815567 C40.0096032,1.63193928 40.1761802,1.77108067 40.5381007,1.65963247 L47.9256931,0.112866626 C48.2896205,0.0541030325 48.6234436,6.75443601e-05 48.8749817,6.75443601e-05 C50.2136191,6.75443601e-05 52.332292,1.04025069 52.332292,3.46104056" id="Fill-5" fill="#000000"></path>
                    <g id="Group-9" transform="translate(55.954039, 0.000000)">
                        <mask id="mask-2" fill="white">
                            <use xlink:href="#path-1"></use>
                        </mask>
                        <g id="Clip-8"></g>
                        <path d="M12.8812906,17.4234054 L12.8812906,3.85509435 C12.8812906,3.48967937 12.6866162,3.29312528 12.2691701,3.29312528 L4.37917053,3.29312528 C4.0165811,3.29312528 3.87609442,3.48967937 3.87609442,3.85509435 L3.87609442,17.4544758 C3.87609442,17.7901713 4.0165811,17.9603831 4.35040421,17.9603831 L12.2691701,17.9603831 C12.6866162,17.9603831 12.8812906,17.7901713 12.8812906,17.4234054 M16.8416771,3.46063529 L16.8416771,14.9749224 C16.8416771,16.5250654 16.1158292,17.733434 14.7223351,18.5797649 L11.5172319,20.4656034 C10.8475787,20.8310184 10.1765875,20.9708352 9.45408462,20.9708352 L0.420122073,20.9708352 C0.113058329,20.9708352 0,20.8587116 0,20.5209898 L0,0.788580404 C0,0.448832273 0.113058329,0.279295929 0.420122073,0.279295929 L3.3475969,0.279295929 C3.68342697,0.279295929 3.87609442,0.448832273 3.87609442,0.788580404 L3.87609442,1.23842584 C3.87609442,1.63153402 4.04534742,1.77337717 4.43469622,1.65922721 L12.4658515,0.11448769 C12.9120639,0.0543732099 13.160926,-0.000337721801 13.3836978,-0.000337721801 C15.0842556,-0.000337721801 16.8416771,1.43430449 16.8416771,3.46063529" id="Fill-7" fill="#000000" mask="url(#mask-2)"></path>
                    </g>
                    <g id="Group-12" transform="translate(0.000000, 26.252534)">
                        <mask id="mask-4" fill="white">
                            <use xlink:href="#path-3"></use>
                        </mask>
                        <g id="Clip-11"></g>
                        <path d="M14.2196604,2.56398391 C14.2196604,2.86995986 13.9968887,3.0131539 13.6349682,3.0131539 L4.49129228,3.0131539 C4.12937183,3.0131539 3.98821617,3.20970799 3.98821617,3.57579842 L3.96078782,8.39103586 C3.96078782,8.72875766 4.09926754,8.87060081 4.46051901,8.87060081 L12.8535947,8.87060081 C13.1894248,8.87060081 13.3279045,9.03675994 13.3279045,9.40149948 L13.3279045,11.4575498 C13.3279045,11.7952716 13.1894248,11.9094216 12.8535947,11.9094216 L4.46051901,11.9094216 C4.09926754,11.9094216 3.96078782,12.1343443 3.96078782,12.473417 L3.98821617,20.2146761 C3.98821617,20.5787402 3.76611341,20.6908638 3.40352398,20.6908638 L0.502139536,20.6908638 C0.169654391,20.6908638 -0.000267593677,20.5787402 -0.000267593677,20.2410184 L-0.000267593677,5.97024599 C-0.000267593677,4.39376063 0.643964185,3.18133936 2.00802295,2.36472805 L5.29942519,0.534951332 C5.90953877,0.170211787 6.58052992,0 7.22275474,0 L13.6349682,0 C13.9968887,0 14.2196604,0.170211787 14.2196604,0.509284475 L14.2196604,2.56398391 Z" id="Fill-10" fill="#000000" mask="url(#mask-4)"></path>
                    </g>
                    <path d="M27.0163915,38.161888 L24.454182,29.1224263 C24.3959804,28.9562672 24.2568317,28.8421172 24.0353979,28.8421172 C23.8367096,28.8421172 23.7269962,28.9562672 23.6433732,29.1224263 L21.1079231,38.161888 C20.9935268,38.5543208 21.1333445,38.6664444 21.4671676,38.6664444 L26.568841,38.6664444 C26.9889631,38.6664444 27.1301188,38.5543208 27.0163915,38.161888 L27.0163915,38.161888 Z M33.3449819,46.4934848 C33.4580403,46.8312066 33.3449819,46.9433303 32.9830615,46.9433303 L30.0007299,46.9433303 C29.6642309,46.9433303 29.4414592,46.8312066 29.3598431,46.4671425 L28.1603544,42.2145496 C28.0205367,41.9342405 27.798434,41.7079669 27.4626039,41.7079669 L20.6336133,41.7079669 C20.2971142,41.7079669 20.0455762,41.9342405 19.9920574,42.2145496 L18.7651404,46.4671425 C18.6808484,46.8312066 18.5122644,46.9433303 18.1242536,46.9433303 L15.0850584,46.9433303 C14.7786636,46.9433303 14.6923647,46.8312066 14.7786636,46.4934848 L20.7433267,26.7306805 C20.8262807,26.4226782 21.0517284,26.2524664 21.3875585,26.2524664 L26.6805614,26.2524664 C27.0712482,26.2524664 27.2960269,26.4226782 27.4070782,26.7306805 L33.3449819,46.4934848 Z" id="Fill-13" fill="#000000"></path>
                    <path d="M35.0731688,42.8901283 L35.0731688,32.2208212 C35.0731688,30.6423095 35.743491,29.4339409 37.1082187,28.6173296 L40.3715236,26.7875529 C40.9555468,26.4214624 41.6532973,26.2519261 42.2948532,26.2519261 L49.2101428,26.2519261 C49.5432969,26.2519261 49.709874,26.4214624 49.709874,26.761886 L49.709874,28.8165854 C49.709874,29.1259386 49.5432969,29.2664309 49.2101428,29.2664309 L39.5352934,29.2664309 C39.1987943,29.2664309 39.0616526,29.4623095 39.0616526,29.8284 L39.0616526,43.396711 C39.0616526,43.7628015 39.1987943,43.9336887 39.5352934,43.9336887 L49.4891092,43.9336887 C49.794166,43.9336887 49.9915163,44.0728301 49.9915163,44.3538146 C49.9915163,44.6645187 49.8510296,44.9184855 49.5432969,45.0846446 L47.1456576,46.4382336 C46.5041017,46.8036485 45.8364555,46.9434654 45.1674713,46.9434654 L39.1446066,46.9434654 C37.1644134,46.9434654 35.0731688,45.5081477 35.0731688,42.8901283" id="Fill-15" fill="#000000"></path>
                    <path d="M67.1955821,28.8165179 C67.1955821,29.1224939 66.9955558,29.2656879 66.691168,29.2656879 L61.2523265,29.2656879 C60.8910751,29.2656879 60.7786857,29.462242 60.7786857,29.8013147 L60.7786857,46.4672101 C60.7786857,46.8312742 60.6114397,46.9433978 60.2782856,46.9433978 L57.3233824,46.9433978 C57.0149807,46.9433978 56.9052673,46.8312742 56.9052673,46.4672101 L56.9052673,29.8013147 C56.9052673,29.462242 56.7099239,29.2656879 56.3466655,29.2656879 L50.9372593,29.2656879 C50.6589618,29.2656879 50.4923848,29.1224939 50.4923848,28.8165179 L50.4923848,26.7307481 C50.4923848,26.4227458 50.6589618,26.252534 50.9372593,26.252534 L66.691168,26.252534 C66.9955558,26.252534 67.1955821,26.4227458 67.1955821,26.7307481 L67.1955821,28.8165179 Z" id="Fill-17" fill="#000000"></path>
                    <path d="M81.0186687,29.8281973 C81.0186687,29.4627823 80.7704756,29.2662283 80.3523604,29.2662283 L72.3212052,29.2662283 C71.9599537,29.2662283 71.820805,29.4627823 71.820805,29.8281973 L71.820805,43.3965084 C71.820805,43.7632743 71.9599537,43.9334861 72.3212052,43.9334861 L80.3523604,43.9334861 C80.7704756,43.9334861 81.0186687,43.7632743 81.0186687,43.3965084 L81.0186687,29.8281973 Z M71.905766,47 C69.199056,47 67.8055619,44.7744133 67.8055619,42.8899257 L67.8055619,32.221294 C67.8055619,30.6731773 68.4758841,29.4627823 69.8399428,28.617127 L73.1032477,26.7049461 C73.7167062,26.3375048 74.3582621,26.1693193 75.080765,26.1693193 L80.8260013,26.1693193 C82.6376105,26.1693193 84.9235294,27.6613743 84.9235294,30.3644995 L84.9235294,41.0047626 C84.9235294,42.5798971 84.2257789,43.7896166 82.8637271,44.6102805 L79.6853832,46.4934173 C78.9862947,46.8601832 78.3467458,47 77.5928007,47 L71.905766,47 Z" id="Fill-19" fill="#000000"></path>
                    <path d="M100.564112,35.2341102 L100.564112,29.828535 C100.564112,29.4624446 100.369438,29.266566 100.036284,29.266566 L92.702879,29.266566 C92.367049,29.266566 92.2285692,29.4624446 92.2285692,29.828535 L92.2285692,35.2611279 C92.2285692,35.6272184 92.367049,35.7960793 92.702879,35.7960793 L100.036284,35.7960793 C100.369438,35.7960793 100.564112,35.5995252 100.564112,35.2341102 M104.551258,29.434076 L104.551258,32.8700576 C104.551258,34.4749116 103.855515,35.6272184 102.434592,36.4418033 L100.986241,37.3165028 C100.677171,37.5130569 100.593548,37.7400059 100.81565,38.0480082 L105.753423,46.5781855 C105.889895,46.8868632 105.863136,46.9436005 105.474456,46.9436005 L102.01447,46.9436005 C101.708075,46.9436005 101.431785,46.8314768 101.291967,46.5234745 L97.1629966,39.3171668 C96.9937436,39.0064627 96.7174532,38.8355755 96.3548637,38.8355755 L92.702879,38.8355755 C92.367049,38.8355755 92.2285692,39.032805 92.2285692,39.3718777 L92.2285692,46.4667373 C92.2285692,46.8314768 92.0051285,46.9436005 91.6692985,46.9436005 L88.7712589,46.9436005 C88.4367668,46.9436005 88.3250465,46.8314768 88.3250465,46.493755 L88.3250465,26.7613457 C88.3250465,26.4215975 88.4367668,26.2520612 88.7712589,26.2520612 L91.6692985,26.2520612 C92.0051285,26.2520612 92.2285692,26.4215975 92.2285692,26.7613457 L92.2285692,27.2111911 C92.2285692,27.6049747 92.3951463,27.7441161 92.7563978,27.6326679 L100.145997,26.0859021 C100.507918,26.0271385 100.845086,25.973103 101.093279,25.973103 C102.434592,25.973103 104.551258,27.0132861 104.551258,29.434076" id="Fill-21" fill="#000000"></path>
                    <path d="M123.957352,26.7050812 L116.878162,38.4996774 C116.710915,38.7799865 116.594512,39.091366 116.594512,39.4290878 L116.594512,46.4638329 C116.594512,46.8312742 116.429273,46.9433978 116.124216,46.9433978 L113.194735,46.9433978 C112.887002,46.9433978 112.721094,46.8312742 112.721094,46.4638329 L112.721094,39.4290878 C112.721094,39.091366 112.610042,38.7799865 112.443465,38.4996774 L105.417793,26.7050812 C105.358923,26.5929576 105.358923,26.5078517 105.417793,26.3930263 C105.474657,26.3099467 105.556273,26.252534 105.694753,26.252534 L108.984817,26.252534 C109.293219,26.252534 109.570847,26.4227458 109.765522,26.7307481 L114.282503,35.0103357 C114.367464,35.1758194 114.480522,35.2609253 114.672521,35.2609253 C114.811,35.2609253 114.926066,35.1758194 115.037117,35.0103357 L119.57952,26.7307481 C119.774863,26.4227458 119.969537,26.252534 120.274594,26.252534 L123.707152,26.252534 C123.790775,26.252534 123.901158,26.3099467 123.957352,26.3930263 C124.014216,26.5078517 124.014216,26.5929576 123.957352,26.7050812" id="Fill-23" fill="#000000"></path>
                </g>
            </g>
        </g>
    </g>
</svg>