<?xml version="1.0" encoding="UTF-8"?>
<svg width="144px" height="96px" viewBox="0 0 144 96" version="1.1" xmlns="http://www.w3.org/2000/svg" xmlns:xlink="http://www.w3.org/1999/xlink">
    <title>Brand/Space/CookingLibrary</title>
    <g id="Brand/Space/CookingLibrary" stroke="none" stroke-width="1" fill="none" fill-rule="evenodd">
        <rect id="Rectangle" fill="#FFFFFF" x="0" y="0" width="144" height="96"></rect>
        <g id="기본" transform="translate(10.000000, 25.000000)" fill="#000000">
            <path d="M4.52379871,46 C1.49754935,46.0046612 0.387130296,43.5470573 0.384747422,41.9810058 L0.375215928,25.9727387 C0.375215928,25.6366561 0.518188339,25.4686148 0.861322125,25.4686148 L3.85421126,25.4662809 C4.19734504,25.4662809 4.39750642,25.6319883 4.39750642,25.9680709 L4.40942078,42.4804618 C4.40942078,42.8422174 4.55001032,43.0102587 4.91935571,43.0102587 L14.5342503,43.003257 C14.8750012,43.003257 15.1037571,43.1432914 15.1037571,43.4233602 C15.1037571,43.7337698 14.9035957,43.9834978 14.6224167,44.1492052 L12.1990343,45.4935356 C11.5103838,45.857625 10.8264992,45.9976595 10.0854255,45.9976595 L4.52379871,46 Z" id="Fill-13"></path>
            <path d="M20.4418703,45.5446481 C20.4418703,45.8807307 20.241709,45.9927582 19.8985752,45.9927582 L16.8770916,45.9950922 C16.5911467,45.9950922 16.4767688,45.8830646 16.4767688,45.5493159 L16.4696202,25.9328289 C16.4696202,25.6270871 16.5792324,25.4590218 16.8651772,25.4590218 L19.8938094,25.4590218 C20.2345603,25.4567119 20.4323389,25.6247532 20.4323389,25.930495 L20.4418703,45.5446481 Z" id="Fill-16"></path>
            <path d="M37.1019688,42.4631909 L37.0995859,37.8817318 C37.0995859,37.5176423 36.8422356,37.2679143 36.4419128,37.2679143 L28.7404656,37.2702482 C28.3663545,37.2702482 28.1971705,37.4943033 28.1971705,37.8560588 L28.2019362,42.4958656 C28.2019362,42.8319482 28.3735031,42.9743165 28.7452314,42.9743165 L36.4490614,42.9696487 C36.8446184,42.9696487 37.1019688,42.8016074 37.1019688,42.4631909 M37.092503,33.7437149 L37.092503,28.9942145 C37.092503,28.6347929 36.835087,28.4107378 36.43953,28.4107378 L28.7071054,28.4154056 C28.33776,28.4154056 28.1947876,28.6394607 28.1947876,28.9988823 L28.1947876,33.7787236 C28.1971705,34.11714 28.3663545,34.2805135 28.7404656,34.2805135 L36.4419128,34.2781796 C36.8422356,34.2781796 37.097203,34.1101383 37.092503,33.7437149 M41.2005112,28.6044521 L41.2028941,31.3701317 C41.2028941,32.6001006 40.7191708,33.6877012 39.7493413,34.4718939 C39.6349633,34.5862553 39.5491799,34.6959489 39.5491799,34.8919971 C39.5491799,35.0833775 39.6349633,35.195405 39.7779357,35.2817596 C40.7501481,36.0892913 41.2648724,37.1512189 41.2648724,38.4698763 L41.2648724,40.0335939 C41.2696146,41.5949776 40.5523696,42.7969396 39.1274113,43.6068053 L35.8509602,45.4832664 C35.1932871,45.8473559 34.5094024,45.9873903 33.706374,45.9873903 L24.6967293,45.9897242 C24.3798071,45.9897242 24.2654292,45.8800305 24.2654292,45.543948 L24.2558977,25.9601356 C24.2558977,25.624053 24.3678927,25.4560117 24.6848149,25.4560117 L27.6491096,25.4560117 C27.9922434,25.4536778 28.1924047,25.6217191 28.1924047,25.9554678 L28.1924047,26.4035779 C28.1924047,26.7653335 28.3639716,26.903034 28.7928889,26.8213472 L36.6921145,25.2809687 C37.1496263,25.2226211 37.49276,25.1689374 37.6619441,25.1689374 C39.1154969,25.1666073 41.2005112,26.2285349 41.2005112,28.6044521" id="Fill-18"></path>
            <path d="M57.0104004,34.3505307 L57.0080175,28.982545 C57.0080175,28.6231233 56.810239,28.4270752 56.4647224,28.4270752 L48.9658194,28.4294091 C48.6226856,28.4294091 48.4820961,28.630125 48.4820961,28.9895467 L48.484479,34.3832054 C48.484479,34.744961 48.6274514,34.9130023 48.9705852,34.9130023 L56.4671052,34.9083345 C56.8150048,34.9083345 57.0104004,34.7146202 57.0104004,34.3505307 M61.0898799,28.5927825 L61.0898799,32.0002865 C61.0922627,33.5896771 60.3797835,34.7402932 58.9238478,35.5478249 L57.4417005,36.4160383 C57.1271612,36.6144204 57.0437606,36.8338076 57.2677507,37.1418833 L62.3242083,45.6046295 C62.4671807,45.9150392 62.4385863,45.968719 62.0382635,45.968719 L58.5020792,45.9733868 C58.185157,45.9733868 57.903978,45.8613593 57.7610056,45.5532836 L53.5361708,38.4045269 C53.3598382,38.0964512 53.0762762,37.9284099 52.7093137,37.9284099 L48.9705852,37.9307438 C48.6274514,37.9307438 48.484479,38.126792 48.484479,38.4628746 L48.4940105,45.5019376 C48.4940105,45.8660271 48.2628717,45.9780546 47.9173551,45.9780546 L44.9530604,45.9803885 C44.6099266,45.9803885 44.4955487,45.868361 44.4955487,45.5322784 L44.4836344,25.9484661 C44.4836344,25.6123835 44.5980123,25.4420083 44.9387632,25.4420083 L47.9054407,25.4420083 C48.2485745,25.4420083 48.4820961,25.6077157 48.4820961,25.9437983 L48.4820961,26.3919084 C48.4820961,26.7816708 48.6488973,26.9240391 49.0206255,26.8120116 L56.5767174,25.2692992 C56.9508286,25.2132854 57.2915795,25.1572717 57.5465469,25.1572717 C58.9190821,25.1572717 61.0851141,26.1888585 61.0898799,28.5927825" id="Fill-20"></path>
            <path d="M75.1597948,37.243875 L72.5291024,28.2770049 C72.4742963,28.1112976 72.3265582,28.0016039 72.1049509,28.0016039 C71.9000238,28.0016039 71.7904116,28.1112976 71.7022453,28.2793388 L69.1144447,37.246209 C69.0000668,37.6406392 69.1406563,37.7526667 69.4837901,37.7526667 L74.704666,37.7503328 C75.1335832,37.7503328 75.2741727,37.6383053 75.1597948,37.243875 L75.1597948,37.243875 Z M81.6388279,45.512907 C81.7532058,45.8466557 81.6388279,45.9586832 81.2670996,45.9586832 L78.2146386,45.963351 C77.8738877,45.963351 77.6475147,45.8513235 77.5617313,45.487234 L76.3321686,41.2675304 C76.1891961,40.9897955 75.9628232,40.7657405 75.6173065,40.7657405 L68.6283385,40.7680744 C68.2852047,40.7680744 68.0278544,40.9921294 67.9730483,41.2721983 L66.7220397,45.4919018 C66.6338734,45.8559913 66.4623065,45.9680188 66.0643666,45.9680188 L62.9547167,45.9703527 C62.6425602,45.9703527 62.5591597,45.8583252 62.6425602,45.5245765 L68.7355678,25.9057556 C68.8213513,25.5976799 69.0501071,25.4296386 69.3884751,25.4296386 L74.8118953,25.4273047 C75.2074523,25.4273047 75.4409739,25.595346 75.550586,25.9034217 L81.6388279,45.512907 Z" id="Fill-22"></path>
            <path d="M95.7869011,34.3274251 L95.7797524,28.9617732 C95.7797524,28.6023516 95.5819739,28.4063034 95.241223,28.4063034 L87.7375543,28.4109712 C87.3991863,28.4109712 87.253831,28.6093533 87.253831,28.966441 L87.2562139,34.3624337 C87.2562139,34.7241892 87.4015692,34.8922305 87.7423201,34.8922305 L95.2436059,34.8852288 C95.5843568,34.8852288 95.7869011,34.6961823 95.7869011,34.3274251 M99.8592319,28.5720108 L99.8616148,31.9818487 C99.8616148,33.5712392 99.1539013,34.7195214 97.6979656,35.5270532 L96.2158183,36.3952665 C95.8988961,36.5889808 95.8154955,36.8130358 96.0442514,37.1211115 L101.100709,45.5861917 C101.243681,45.8919335 101.215087,45.9479472 100.814764,45.9479472 L97.276197,45.9526151 C96.9616577,45.9526151 96.6757129,45.8382536 96.5351233,45.5325118 L92.3102886,38.3814212 C92.1363388,38.0756794 91.8527769,37.9076382 91.4786657,37.9076382 L87.744703,37.912306 C87.4015692,37.912306 87.2609796,38.1060202 87.2609796,38.4421028 L87.2633625,45.4811659 C87.2633625,45.8475892 87.0346066,45.9572829 86.6938557,45.9572829 L83.7271782,45.9572829 C83.3840444,45.9572829 83.2696665,45.8475892 83.2696665,45.5115067 L83.2577521,25.9253604 C83.2577521,25.5892778 83.3721301,25.4235704 83.712881,25.4235704 L86.6819414,25.4212365 C87.0226923,25.4212365 87.253831,25.5892778 87.253831,25.9230265 L87.253831,26.3711366 C87.253831,26.7608991 87.4253979,26.9032674 87.7923604,26.7912398 L95.3532181,25.2485274 C95.7225635,25.1925137 96.0656973,25.1364999 96.3230476,25.1364999 C97.6931999,25.1364999 99.8592319,26.1680867 99.8592319,28.5720108" id="Fill-24"></path>
            <path d="M119.718338,25.8499752 L112.479168,37.5591859 C112.305219,37.8392547 112.190841,38.1473304 112.190841,38.483413 L112.197989,45.4687962 C112.197989,45.8305517 112.024039,45.9425793 111.714266,45.9425793 L108.721377,45.9449132 C108.406837,45.9449132 108.232888,45.8328856 108.232888,45.4711301 L108.228122,38.4880808 C108.228122,38.1473304 108.116127,37.8415886 107.942177,37.5615198 L100.748282,25.8593108 C100.68871,25.7496172 100.68871,25.6655966 100.748282,25.553569 C100.803088,25.4672145 100.891254,25.4112007 101.034227,25.4112007 L104.401227,25.4112007 C104.715766,25.4112007 104.999328,25.579242 105.19949,25.8873177 L109.824647,34.098002 C109.910431,34.2660433 110.022426,34.34773 110.22497,34.34773 C110.367942,34.34773 110.48232,34.2660433 110.596698,34.098002 L115.240919,25.880316 C115.44108,25.5745742 115.636476,25.4065329 115.951015,25.4065329 L119.460988,25.404199 C119.544388,25.404199 119.663532,25.4602128 119.718338,25.5418995 C119.773144,25.653927 119.773144,25.7402816 119.718338,25.8499752" id="Fill-26"></path>
            <g id="Group-2">
                <path d="M0.00235548886,16.4410802 L0,5.96497229 C0,4.42029968 0.671314325,3.23528219 2.05398628,2.42836366 L5.36109264,0.634699057 C5.95232035,0.275043943 6.65661152,0.109049275 7.30672644,0.106743793 L14.3119503,0.104438312 C14.6511407,0.104438312 14.8183804,0.268127499 14.8183804,0.600116835 L14.8230914,2.61971863 C14.8230914,2.92173671 14.6511407,3.06237108 14.3119503,3.06237108 L4.51547214,3.06467656 C4.17628175,3.06467656 4.03495242,3.25603152 4.03495242,3.61799212 L4.04201888,16.9390642 C4.04201888,17.2987193 4.1857037,17.4624085 4.52018312,17.4624085 L14.6040309,17.460103 C14.9149555,17.460103 15.1128165,17.5961265 15.1128165,17.8773952 C15.1128165,18.1817188 14.9691317,18.4284053 14.6605627,18.5943999 L12.2344091,19.9177463 C11.5819387,20.2797069 10.9059134,20.4180358 10.2275326,20.4180358 L4.12917197,20.4203413 C2.12465095,20.4203413 0.00235548886,19.0139976 0.00235548886,16.4410802" id="Fill-10"></path>
                <path d="M31.4264613,3.60715636 C31.4264613,3.24519576 31.1720685,3.05153531 30.7480805,3.05153531 L22.6145774,3.05614628 C22.2471212,3.05845176 22.1057918,3.2521122 22.1057918,3.61176732 L22.1128583,16.9328394 C22.1128583,17.2924945 22.2565431,17.4584892 22.6239994,17.4539717 L30.7527914,17.4515728 C31.1767794,17.4515728 31.4288167,17.2855781 31.4288167,16.925923 L31.4264613,3.60715636 Z M22.2000114,20.4694481 C19.4629333,20.4694481 18.04964,18.2861571 18.04964,16.4325499 L18.0449229,5.95874749 C18.0425736,4.43943518 18.7209544,3.2521122 20.0989153,2.42213886 L23.4036662,0.54086596 C24.0278708,0.176599883 24.6756302,0.0152161779 25.4058317,0.0152161779 L31.2262447,0.0128998375 C33.058815,0.0082997334 35.3766161,1.47228049 35.3766161,4.12819517 L35.386038,14.5720264 C35.386038,16.1190045 34.6793914,17.3109384 33.2967194,18.1063295 L30.0791216,19.9668531 C29.3748305,20.3218972 28.7247155,20.4625316 27.9591817,20.4625316 L22.2000114,20.4694481 Z" id="Fill-12"></path>
                <path d="M52.2336721,3.59424566 C52.2336721,3.23228506 51.9816348,3.0409301 51.5552913,3.0409301 L43.4264992,3.04323558 C43.0613985,3.04323558 42.9177137,3.23459055 42.9177137,3.59885662 L42.9271356,16.9153178 C42.9271356,17.2749729 43.0684649,17.4409676 43.4335657,17.4409676 L51.5647133,17.4386621 C51.9910567,17.4386621 52.243094,17.2726674 52.243094,16.9153178 L52.2336721,3.59424566 Z M43.0142887,20.4542392 C40.2724997,20.4588428 38.8568509,18.2732464 38.8568509,16.4219447 L38.8544954,5.94583679 C38.8544954,4.42652448 39.5305207,3.23920151 40.9131926,2.41153365 L44.2179435,0.530260745 C44.8397926,0.163689187 45.482841,0.0023054815 46.220109,0.0023054815 L52.0334555,0 C53.8707369,0 56.1861824,1.46167527 56.1908934,4.11758996 L56.1956102,14.5637266 C56.1979598,16.1130102 55.4913132,17.3003332 54.1086412,18.0957243 L50.8910434,19.9539424 C50.1843968,20.311292 49.5342819,20.4519264 48.773459,20.4519264 L43.0142887,20.4542392 Z" id="Fill-14"></path>
                <path d="M76.2495299,20.0493893 C76.3885037,20.3283526 76.3885037,20.3836841 76.0493133,20.3836841 L72.405372,20.3859896 C72.0402713,20.3859896 71.7317022,20.3006868 71.5338412,20.0263345 L64.2129818,10.7721318 C64.1022738,10.6868289 63.9609445,10.5784713 63.7889938,10.5784713 C63.4215375,10.5784713 63.2825637,10.7974921 63.2825637,11.1571472 L63.2872747,19.9179769 C63.2872747,20.277632 63.0611477,20.3859896 62.7219573,20.3906006 L59.7870182,20.3906006 C59.4760937,20.3906006 59.3630302,20.2799375 59.3630302,19.9479481 L59.3512528,0.574987086 C59.3512528,0.245303232 59.4619608,0.0793085636 59.7752408,0.0793085636 L62.7125354,0.0793085636 C63.0493703,0.0770030821 63.2754972,0.240692269 63.2754972,0.572681605 L63.2825637,8.78019575 C63.2825637,9.13985086 63.4215375,9.28048523 63.7889938,9.28048523 C63.9609445,9.28048523 64.0999183,9.22515368 64.2129818,9.1098796 L71.5785954,0.459713011 C71.8047224,0.210721009 72.0850255,0.0746976006 72.4524818,0.0746976006 L75.9268279,0.0700866376 C76.2377524,0.0700866376 76.2895732,0.18074975 76.0964231,0.429741752 L68.2220238,9.38653738 C67.9982524,9.66319516 67.9982524,9.9951845 68.2220238,10.2118998 L76.2495299,20.0493893 Z" id="Fill-16"></path>
                <path d="M81.6433638,19.9387262 C81.6433638,20.2684101 81.4455027,20.3790732 81.1110233,20.3790732 L78.112486,20.3836841 C77.8321828,20.3836841 77.7191194,20.273021 77.7191194,19.9410317 L77.7073419,0.538099382 C77.7073419,0.236081306 77.8204054,0.0700866376 78.1007085,0.0700866376 L81.0945349,0.0654756746 C81.4313698,0.0654756746 81.6315863,0.231470343 81.6315863,0.535793901 L81.6433638,19.9387262 Z" id="Fill-18"></path>
                <path d="M103.980936,19.9230489 C103.980936,20.2550383 103.808985,20.3657014 103.495705,20.3680069 L97.486853,20.3703123 C97.1429516,20.3703123 96.9215356,20.2596492 96.8037612,19.9599366 L89.6242311,3.10225591 C89.5676994,2.9915928 89.4829018,2.90859546 89.3415725,2.90859546 C89.1437114,2.90859546 89.0306479,3.04692435 89.0306479,3.21291902 L89.0400699,19.9046051 C89.0400699,20.2642602 88.8422088,20.3726178 88.4771081,20.3726178 L85.6834983,20.3772288 C85.3984841,20.3772288 85.2877762,20.2665657 85.2877762,19.9368818 L85.2759987,0.533949516 C85.2759987,0.229625957 85.3843512,0.0636312894 85.6717208,0.0636312894 L91.767726,0.0613258079 C92.076295,0.0613258079 92.3094884,0.199654698 92.4201964,0.503978256 L99.5997265,17.3293822 C99.6845241,17.4400454 99.7693217,17.4953769 99.8541193,17.4953769 C100.049625,17.4953769 100.21922,17.4100741 100.21922,17.2440794 L100.212154,0.522422108 C100.212154,0.220404031 100.381749,0.0544093634 100.720939,0.0544093634 L103.488639,0.0544093634 C103.799563,0.0544093634 103.966803,0.220404031 103.966803,0.522422108 L103.980936,19.9230489 Z" id="Fill-20"></path>
                <path d="M110.870505,20.6423592 C109.23344,20.6423592 107.483312,19.4227594 107.478601,17.2971055 L107.47389,5.90802689 C107.47389,4.36335429 108.119294,3.1783368 109.476056,2.37141827 L112.778451,0.580059146 C113.4003,0.21809855 114.076325,0.0497984004 114.782972,0.0497984004 L123.255666,0.0451874374 C123.564235,0.0451874374 123.736185,0.211182105 123.736185,0.54086596 L123.736185,2.56277324 C123.736185,2.86479131 123.564235,3.0031202 123.255666,3.0031202 L111.961096,3.00773117 C111.624262,3.00773117 111.452311,3.20139161 111.452311,3.56104673 L111.461733,16.8844243 C111.461733,17.2417739 111.628973,17.4077686 111.968163,17.4077686 L119.508083,17.4031577 C119.821363,17.4031577 120.042779,17.237163 120.042779,16.8775079 L120.042779,13.0342702 C120.042779,12.6746151 119.821363,12.4832601 119.533993,12.4832601 L116.370572,12.4855656 C116.005471,12.4855656 115.861786,12.3472367 115.861786,12.0429132 L115.861786,10.0509771 C115.861786,9.69362752 116.00076,9.55299315 116.33995,9.55299315 L123.484148,9.55068766 C123.825694,9.54838218 123.995289,9.71668233 123.997645,10.0717265 L124,19.913827 C124,20.2458163 123.828049,20.3564795 123.488859,20.3610904 L120.556275,20.3610904 C120.217085,20.3610904 120.049845,20.2481218 120.049845,19.8861612 L120.042779,19.4181485 C120.042779,19.0631043 119.795452,18.9270809 119.456262,19.0077728 L111.888076,20.5270851 C111.461733,20.6423592 111.124898,20.6423592 110.870505,20.6423592" id="Fill-22"></path>
            </g>
        </g>
    </g>
</svg>