<?xml version="1.0" encoding="UTF-8"?>
<svg width="88px" height="59px" viewBox="0 0 88 59" version="1.1" xmlns="http://www.w3.org/2000/svg" xmlns:xlink="http://www.w3.org/1999/xlink">
    <title>Brand/Culture/CultureProject 4</title>
    <g id="Page-1" stroke="none" stroke-width="1" fill="none" fill-rule="evenodd">
        <g id="PCCUL000100_컬처서브메인" transform="translate(-612.000000, -2882.000000)">
            <g id="Brand/Culture/CultureProject" transform="translate(612.000000, 2882.000000)">
                <rect id="Rectangle" fill="#FFFFFF" x="0" y="0" width="88" height="59"></rect>
                <g id="Group-3" transform="translate(9.777778, 7.989092)" fill="#000000">
                    <path d="M7.44577778,16.4992224 L7.44577778,11.2186091 C7.44577778,10.3780217 7.82417778,9.73435507 8.56826667,9.30720342 L10.2510222,8.39999601 C10.5492444,8.22168959 10.9256889,8.1188205 11.308,8.1188205 L14.8661333,8.1188205 C15.1193778,8.1188205 15.2709333,8.26773576 15.2709333,8.5185404 L15.2709333,9.53351542 C15.2709333,9.76472595 15.1193778,9.90384415 14.8661333,9.90384415 L9.88728889,9.90384415 C9.82471111,9.90384415 9.78951111,9.90384415 9.78951111,10.0351247 L9.78951111,16.7480676 C9.78951111,16.8656323 9.812,16.8656323 9.88728889,16.8656323 L15.0079111,16.8656323 C15.2533333,16.8656323 15.4146667,17.0067099 15.4146667,17.2222452 C15.4146667,17.435821 15.3080889,17.6072695 15.1066667,17.7140574 L13.8746667,18.3802572 C13.5471111,18.5624824 13.1902222,18.650656 12.7873778,18.650656 L9.68782222,18.650656 C8.60151111,18.650656 7.44577778,17.8972623 7.44577778,16.4992224 Z M23.8382222,18.6516357 L22.4018667,18.6516357 C22.1496,18.6516357 22.0244444,18.5301522 22.0244444,18.2813069 L22.0244444,18.057934 C22.0244444,18.0079691 22.0136889,17.9932735 22.0127111,17.9932735 C21.9912,17.9913141 21.9736,17.9932735 21.9501333,18.0040502 L19.1869333,18.7339309 C19.0246222,18.7789974 18.8535111,18.7789974 18.7029333,18.7789974 C17.7095111,18.7789974 16.9057778,17.9942532 16.9057778,17.0302229 L16.9057778,10.9580074 C16.9057778,10.5974757 17.1502222,10.5445716 17.2949333,10.5445716 L18.7420444,10.5445716 C18.9317333,10.5445716 19.1194667,10.6729131 19.1194667,10.9580074 L19.1194667,16.8352614 C19.1194667,16.9009017 19.1194667,16.9253943 19.2592889,16.9253943 L21.8865778,16.9253943 C22.0244444,16.9253943 22.0244444,16.8783685 22.0244444,16.8352614 L22.0244444,10.9580074 C22.0244444,10.6170698 22.2297778,10.5445716 22.4018667,10.5445716 L23.8382222,10.5445716 C24.0865778,10.5445716 24.2430222,10.7023042 24.2430222,10.9580074 L24.2430222,18.2979619 C24.2430222,18.3812369 24.2127111,18.6535951 23.8382222,18.6535951 L23.8382222,18.6516357 Z M26.5564444,18.2960025 L26.5564444,8.26087782 C26.5564444,8.00713406 26.7089778,7.84842175 26.9602667,7.84842175 L28.3946667,7.84842175 C28.6068444,7.84842175 28.7730667,8.02966729 28.7730667,8.26087782 L28.7730667,18.2960025 C28.7730667,18.5095783 28.6224889,18.6516357 28.3946667,18.6516357 L26.9602667,18.6516357 C26.6923556,18.6516357 26.5564444,18.5311319 26.5564444,18.2960025 L26.5564444,18.2960025 Z M36.3664889,17.7561847 L35.2381333,18.4086687 C34.9320889,18.584036 34.5888889,18.6663312 34.1596444,18.6663312 L33.1965333,18.6663312 C31.8755556,18.6663312 31.0552,17.5915942 31.0552,16.5962133 L31.0552,9.56290659 C31.0552,9.32581783 31.1559111,9.17984169 31.3788444,9.09068848 L32.8758222,8.72231916 C33.132,8.66451653 33.3011556,8.81147238 33.3011556,9.02994673 L33.3011556,10.4946066 C33.3011556,10.5171399 33.3040889,10.5328152 33.3089778,10.5396731 C33.3099556,10.5396731 33.3207111,10.5416325 33.3412444,10.5416325 L35.9538667,10.5416325 C36.2188444,10.5416325 36.3713778,10.6915275 36.3713778,10.9550683 L36.3713778,11.9161595 C36.3713778,12.0229474 36.3312889,12.2717926 35.9538667,12.2717926 L33.4145778,12.2717926 C33.3353778,12.2717926 33.3011556,12.2717926 33.3011556,12.4158094 L33.3011556,16.8323223 C33.3011556,16.9146176 33.3011556,16.9234349 33.4145778,16.9234349 L36.2530667,16.9234349 C36.5151111,16.9234349 36.6744889,17.0645125 36.6744889,17.3055201 C36.6744889,17.5004816 36.5737778,17.6474374 36.3674667,17.7561847 L36.3664889,17.7561847 Z M45.2075556,18.650656 L43.7751111,18.650656 C43.5189333,18.650656 43.3976889,18.5301522 43.3976889,18.2813069 L43.3976889,18.057934 C43.3976889,18.0138473 43.3859556,17.9962126 43.3830222,17.9932735 C43.3595556,17.9913141 43.3478222,17.9932735 43.3214222,18.0040502 L40.5543111,18.7339309 C40.3939556,18.7789974 40.2218667,18.7789974 40.0693333,18.7789974 C39.0808,18.7789974 38.2770667,17.9942532 38.2770667,17.0302229 L38.2770667,10.9580074 C38.2770667,10.5974757 38.5205333,10.5445716 38.6672,10.5445716 L40.1152889,10.5445716 C40.3421333,10.5445716 40.4888,10.7072028 40.4888,10.9580074 L40.4888,16.8352614 C40.4888,16.8979626 40.4888,16.9253943 40.6305778,16.9253943 L43.2559111,16.9253943 C43.3976889,16.9253943 43.3976889,16.87347 43.3976889,16.8352614 L43.3976889,10.9580074 C43.3976889,10.6170698 43.6030222,10.5445716 43.7741333,10.5445716 L45.2075556,10.5445716 C45.4568889,10.5445716 45.6123556,10.7032839 45.6123556,10.9580074 L45.6123556,18.2979619 C45.6123556,18.4047498 45.5722667,18.6535951 45.2075556,18.6535951 L45.2075556,18.650656 Z M47.8954667,18.2950228 L47.8954667,10.956048 C47.8954667,10.6151104 48.1008,10.5416325 48.2748444,10.5416325 L49.7209778,10.5416325 C49.9654222,10.5416325 50.1267556,10.7072028 50.1267556,10.956048 L50.1267556,11.1764818 C50.1267556,11.2411423 50.1267556,11.2538785 50.2392,11.2538785 C50.2704889,11.2538785 50.3017778,11.2538785 50.3242667,11.2391829 L51.1504889,10.7160201 C51.5024889,10.5377137 51.8368889,10.4583575 52.2172444,10.4583575 L53.0679111,10.4583575 C53.3084444,10.4583575 53.4707556,10.6111916 53.4707556,10.8414224 L53.4707556,11.9142001 C53.4707556,12.1297353 53.3133333,12.2698332 53.0679111,12.2698332 L50.2392,12.2698332 C50.16,12.2698332 50.1257778,12.2776709 50.1257778,12.4020935 L50.1257778,18.2793475 C50.1257778,18.5066392 49.9722667,18.6496762 49.7209778,18.6496762 L48.2748444,18.6496762 C48.0225778,18.6496762 47.8954667,18.5291725 47.8954667,18.2940431 L47.8954667,18.2950228 Z M55.9425778,15.50874 L55.9425778,16.8470179 C55.9425778,16.9244146 55.9425778,16.9371508 56.0677333,16.9371508 L60.4882667,16.9371508 C60.7884444,16.9371508 60.896,17.1252543 60.896,17.3055201 C60.896,17.5092989 60.7825778,17.6709503 60.5772444,17.7610832 L59.4557333,18.3949528 C59.1682667,18.5683607 58.8192,18.6516357 58.3625778,18.6516357 L55.8663111,18.6516357 C54.6851556,18.6516357 53.7269333,17.7091588 53.7269333,16.5531062 L53.7269333,13.5032826 C53.7269333,12.6930661 54.0955556,12.0846689 54.8210667,11.6996446 L56.3962667,10.7973357 C56.7228444,10.6092322 57.0816889,10.5151805 57.4600889,10.5151805 L58.8045333,10.5151805 C59.6904,10.5151805 60.9947556,11.1892179 60.9947556,12.640162 L60.9947556,14.0058716 C60.9947556,15.0551363 60.0355556,15.392155 59.5691556,15.392155 L56.0677333,15.392155 C55.9601778,15.392155 55.9425778,15.4244853 55.9425778,15.50874 L55.9425778,15.50874 Z M56.0677333,13.8158087 L58.6207111,13.8158087 C58.7898667,13.8158087 58.7898667,13.7668234 58.7898667,13.738412 L58.7898667,12.3599661 C58.7898667,12.2473 58.7409778,12.2012538 58.6207111,12.2012538 L56.0677333,12.2012538 C55.9709333,12.2012538 55.9259556,12.2237871 55.9259556,12.3599661 L55.9259556,13.738412 C55.9259556,13.7873972 55.9259556,13.8158087 56.0677333,13.8158087 L56.0677333,13.8158087 Z M15.9905778,24.4142641 L15.9905778,26.4118839 C15.9905778,27.2710857 15.6268444,27.8863409 14.8788444,28.291939 L13.2596444,29.2148217 C12.9584889,29.3872499 12.6143111,29.4656263 12.1801778,29.4656263 L9.85111111,29.4656263 C9.80613333,29.4656263 9.75822222,29.4656263 9.75822222,29.5822113 L9.75822222,32.7417619 C9.75822222,32.8309151 9.72791111,33.120908 9.31137778,33.120908 L7.83395556,33.120908 C7.59537778,33.120908 7.47608889,32.9974651 7.47608889,32.7525387 L7.47608889,23.0887224 C7.47608889,22.7448458 7.70195556,22.6939011 7.83395556,22.6939011 L9.31137778,22.6939011 C9.57831111,22.6939011 9.75822222,22.850654 9.75822222,23.0887224 L9.75822222,23.3101359 C9.75822222,23.3757762 9.77191111,23.3934109 9.77191111,23.3934109 C9.78168889,23.3865529 9.80222222,23.3826341 9.83546667,23.3757762 L13.6008889,22.6145449 C13.8228444,22.5773161 13.9929778,22.5557626 14.1230222,22.5557626 C14.8984,22.5557626 15.9896,23.1328092 15.9896,24.4142641 L15.9905778,24.4142641 Z M13.6937778,24.5906111 C13.6937778,24.4965594 13.6615111,24.4622697 13.5715556,24.4622697 L9.85111111,24.4622697 C9.79146667,24.4622697 9.75822222,24.4622697 9.75822222,24.5906111 L9.75822222,27.6090842 C9.75822222,27.6903997 9.75822222,27.6972577 9.85111111,27.6972577 L13.5715556,27.6972577 C13.6937778,27.6972577 13.6937778,27.6639477 13.6937778,27.6090842 L13.6937778,24.5906111 Z M22.5221333,25.5360271 L22.5221333,26.5774542 C22.5221333,26.7890706 22.3647111,26.9281888 22.1261333,26.9281888 L19.3795556,26.9281888 C19.3072,26.9281888 19.2788444,26.9281888 19.2788444,27.0496723 L19.2788444,32.7564575 C19.2788444,32.9808101 19.1253333,33.120908 18.8799111,33.120908 L17.4748444,33.120908 C17.2284444,33.120908 17.1042667,33.0023636 17.1042667,32.7711531 L17.1042667,25.6437947 C17.1042667,25.3116745 17.3066667,25.2411357 17.4748444,25.2411357 L18.8799111,25.2411357 C19.1184889,25.2411357 19.2788444,25.4027871 19.2788444,25.6437947 L19.2788444,25.8612893 C19.2788444,25.902437 19.2866667,25.9151731 19.2866667,25.9151731 C19.2866667,25.9151731 19.3042667,25.9298687 19.3795556,25.9298687 C19.4128,25.9298687 19.4460444,25.9298687 19.4714667,25.9151731 L20.2634667,25.4086653 C20.6076444,25.2342777 20.9342222,25.1559013 21.3048,25.1559013 L22.1261333,25.1559013 C22.3637333,25.1559013 22.5221333,25.3087354 22.5221333,25.5321083 L22.5221333,25.5360271 Z M43.0965333,27.2808828 L43.0965333,28.6054448 C43.0965333,29.6253183 42.1627556,29.9584183 41.7110222,29.9584183 L38.3083556,29.9584183 C38.2105778,29.9584183 38.1949333,29.9838906 38.1949333,30.0671656 L38.1949333,31.3642958 C38.1949333,31.4387535 38.1949333,31.4465911 38.3083556,31.4465911 L42.5988444,31.4465911 C42.8452444,31.4465911 42.9977778,31.586689 42.9977778,31.8100619 C42.9977778,32.0089421 42.8882667,32.165695 42.6907556,32.2558279 L41.6015111,32.8720628 C41.3189333,33.0405721 40.9806222,33.120908 40.5386667,33.120908 L38.1176889,33.120908 C36.9688,33.120908 36.0330667,32.205863 36.0330667,31.0811609 L36.0330667,28.1185311 C36.0330667,27.3279087 36.3919111,26.7381259 37.0988444,26.3638783 L38.6290667,25.4880215 C38.9448889,25.3048165 39.2939556,25.2127242 39.6606222,25.2127242 L40.9688889,25.2127242 C41.8518222,25.2127242 43.0965333,25.8544314 43.0965333,27.2799031 L43.0965333,27.2808828 Z M40.9512889,27.010484 C40.9512889,26.9203511 40.9219556,26.8596094 40.7899556,26.8596094 L38.3083556,26.8596094 C38.2193778,26.8596094 38.1763556,26.8782238 38.1763556,27.010484 L38.1763556,28.3487619 C38.1763556,28.3928487 38.1763556,28.4173413 38.3083556,28.4173413 L40.7899556,28.4173413 C40.9512889,28.4173413 40.9512889,28.3742343 40.9512889,28.3487619 L40.9512889,27.010484 Z M51.0096889,31.8110416 C51.0096889,32.0118812 50.9148444,32.1666747 50.7329778,32.2548482 L49.6251556,32.8740222 C49.3337778,33.0395924 48.9896,33.120908 48.5779556,33.120908 L46.5451556,33.120908 C45.2505778,33.120908 44.4478222,32.0618462 44.4478222,31.0821406 L44.4478222,28.1459629 C44.4478222,27.3778736 44.8193778,26.7684967 45.5145778,26.381513 L47.0584889,25.5027171 C47.3616,25.3195121 47.7057778,25.2274198 48.0792889,25.2274198 L50.6127111,25.2274198 C50.7241778,25.2274198 50.9842667,25.2656283 50.9842667,25.6310585 L50.9842667,26.564718 C50.9842667,26.7831923 50.8454222,26.9125135 50.6127111,26.9125135 L46.7680889,26.9125135 C46.7016,26.9125135 46.6536889,26.9281888 46.6536889,27.0496723 L46.6536889,31.3496002 C46.6536889,31.4025043 46.6536889,31.4338549 46.7680889,31.4338549 L50.6420444,31.4338549 C50.8718222,31.4338549 51.0096889,31.5749325 51.0096889,31.8100619 L51.0096889,31.8110416 Z M57.7495111,31.8110416 C57.7495111,31.9981654 57.6517333,32.1431618 57.4493333,32.2538685 L56.3552,32.8857787 C56.0530667,33.0562474 55.7294222,33.1336442 55.3031111,33.1336442 L54.3703111,33.1336442 C53.0855111,33.1336442 52.2856889,32.089278 52.2856889,31.1213288 L52.2856889,24.2927806 C52.2856889,24.0645092 52.3864,23.9185331 52.6034667,23.8303596 L54.0603556,23.4717873 C54.0926222,23.4649294 54.1239111,23.4610106 54.1532444,23.4610106 C54.3439111,23.4610106 54.4798222,23.5913114 54.4798222,23.7764758 L54.4798222,25.1960692 C54.4798222,25.2186025 54.4808,25.2303589 54.4808,25.2372169 C54.4856889,25.2372169 54.4964444,25.2372169 54.5120889,25.240156 L57.0474667,25.240156 C57.3095111,25.240156 57.4571556,25.3871118 57.4571556,25.642815 L57.4571556,26.5764744 C57.4571556,26.6558306 57.4278222,26.9272091 57.0474667,26.9272091 L54.5815111,26.9272091 C54.5032889,26.9272091 54.4798222,26.9272091 54.4798222,27.0633881 L54.4798222,31.3486205 C54.4798222,31.4054435 54.4876444,31.420139 54.4876444,31.420139 C54.4876444,31.420139 54.5081778,31.4348346 54.5824889,31.4348346 L57.3378667,31.4348346 C57.5979556,31.4348346 57.7495111,31.5768919 57.7495111,31.8120213 L57.7495111,31.8110416 Z M28.9852444,31.9707336 L27.4080889,32.8397325 C27.1128,33.0082419 26.7842667,33.0866183 26.3736,33.0866183 L24.9128,33.0866183 C23.6250667,33.0866183 22.8281778,32.0344145 22.8281778,31.0586277 L22.8281778,28.0969776 C22.8281778,27.3122334 23.188,26.7185318 23.8939556,26.3335075 L25.4261333,25.466468 C25.7439111,25.2852224 26.0910222,25.1931301 26.4576889,25.1931301 L27.9204444,25.1931301 C28.9461333,25.1931301 30.0031111,25.9670975 30.0031111,27.2612887 L30.0031111,30.195507 C30.0031111,30.9606571 29.6589333,31.5572978 28.9852444,31.9707336 L28.9852444,31.9707336 Z M27.8304889,27.0134232 C27.8304889,26.9213308 27.8128889,26.8929194 27.6975111,26.8929194 L25.1357333,26.8929194 C25.0213333,26.8929194 25.0037333,26.9223105 25.0037333,27.0134232 L25.0037333,31.31727 C25.0037333,31.3799711 25.0037333,31.3995652 25.1357333,31.3995652 L27.6975111,31.3995652 C27.8304889,31.3995652 27.8304889,31.3809508 27.8304889,31.31727 L27.8304889,27.0134232 Z M34.2212444,22.8349787 L34.2212444,23.9440054 C34.2212444,24.1095757 34.1528,24.3084559 33.8223111,24.3084559 L32.4162667,24.3084559 C32.0984889,24.3084559 32.0603556,24.1007583 32.0603556,23.9440054 L32.0603556,22.8349787 C32.0603556,22.4842441 32.2823111,22.43134 32.4162667,22.43134 L33.8223111,22.43134 C34.0618667,22.43134 34.2212444,22.5929914 34.2212444,22.8349787 L34.2212444,22.8349787 Z M34.2378667,25.6437947 L34.2378667,33.1120907 C34.2378667,33.9174087 33.8702222,34.5483391 33.1730667,34.9304243 L31.6408889,35.7827682 C31.2693333,35.9777296 30.9437333,36.0727611 30.6376889,36.0727611 L29.5064,36.0727611 C29.2512,36.0727611 29.0976889,35.9150284 29.0976889,35.6544268 L29.0976889,34.7756308 C29.0976889,34.5179682 29.2453333,34.3710124 29.5064,34.3710124 L31.9596444,34.3710124 C32.0779556,34.3710124 32.0779556,34.3259459 32.0779556,34.2887171 L32.0779556,25.6437947 C32.0779556,25.5438647 32.0779556,25.2421154 32.4475556,25.2421154 L33.8379556,25.2421154 C34.0931556,25.2421154 34.2378667,25.3890712 34.2378667,25.6437947 Z M65.0212444,2.31112557 L3.4232,2.31112557 C2.81697778,2.31112557 2.30657778,2.8215522 2.30657778,3.42701027 L2.30657778,39.5948028 C2.30657778,40.2012405 2.81697778,40.7116672 3.4232,40.7116672 L65.0212444,40.7116672 C65.6245333,40.7116672 66.1339556,40.2012405 66.1339556,39.5948028 L66.1339556,3.42701027 C66.1339556,2.8215522 65.6245333,2.31112557 65.0212444,2.31112557 L65.0212444,2.31112557 Z M65.0212444,0 C66.9034667,0 68.4444444,1.54107695 68.4444444,3.42701027 L68.4444444,39.5948028 C68.4444444,41.4797564 66.9034667,43.0208333 65.0212444,43.0208333 L3.4232,43.0208333 C1.54,43.0208333 0,41.4797564 0,39.5948028 L0,3.42701027 C0,1.54107695 1.54,0 3.4232,0 L65.0212444,0 Z" id="Fill-1"></path>
                </g>
            </g>
        </g>
    </g>
</svg>