<?xml version="1.0" encoding="UTF-8"?>
<svg width="144px" height="96px" viewBox="0 0 144 96" version="1.1" xmlns="http://www.w3.org/2000/svg" xmlns:xlink="http://www.w3.org/1999/xlink">
    <title>Brand/Space/DesignLibrary</title>
    <g id="Brand/Space/DesignLibrary" stroke="none" stroke-width="1" fill="none" fill-rule="evenodd">
        <rect id="Rectangle" fill="#FFFFFF" x="0" y="0" width="144" height="96"></rect>
        <g id="Group" transform="translate(12.000000, 24.000000)" fill="#000000">
            <path d="M17.7113102,3.50984755 L17.7128891,15.1928762 C17.7128891,16.7653771 16.9692073,17.9921509 15.5371068,18.8508925 L12.2418545,20.7675274 C11.5565936,21.1355595 10.8665958,21.2773554 10.1181772,21.2773554 L0.830839372,21.2869147 C0.513471995,21.2869147 0.399788159,21.1722034 0.399788159,20.8296627 L0.387156621,0.80616562 C0.387156621,0.465218105 0.5024194,0.289964709 0.818207835,0.289964709 L3.82767162,0.289964709 C4.17188101,0.288371496 4.37240667,0.465218105 4.37240667,0.804572407 L4.37240667,1.26182445 C4.37240667,1.66331405 4.54609031,1.80670319 4.95029951,1.69199187 L13.2065881,0.114711314 C13.6613235,0.0557624441 13.9250068,0 14.1523745,0 C15.9018424,0 17.7065733,1.45300997 17.7113102,3.50984755 M13.6439551,17.6814744 L13.6376393,3.91293036 C13.6376393,3.54330502 13.4355348,3.34096701 13.0060625,3.34096701 L4.8902997,3.34733986 C4.51924829,3.34733986 4.37556455,3.54489823 4.37556455,3.91771 L4.38503821,17.7133387 C4.38503821,18.052693 4.52556406,18.2279464 4.87293134,18.2279464 L13.0139572,18.2247599 C13.4434295,18.2247599 13.6439551,18.052693 13.6439551,17.6814744" id="Fill-1"></path>
            <path d="M25.6630208,21.2716199 C22.9677666,21.2716199 21.4456663,19.1335284 21.4456663,17.1611311 L21.4425057,6.33843736 C21.4409295,4.73566539 22.1246114,3.51048484 23.5314489,2.67882781 L26.8898589,0.821141819 C27.516699,0.449923263 28.2066967,0.27626308 28.8935365,0.273076655 L36.2893017,0.271483442 C36.6066691,0.271483442 36.8103526,0.445143625 36.8103526,0.787684353 L36.8103526,2.87319976 C36.8103526,3.18387623 36.6066691,3.3304518 36.2893017,3.3304518 L26.0561774,3.33523144 C25.7151259,3.33523144 25.5698633,3.53597624 25.5698633,3.90560158 L25.5714422,8.50679982 C25.5714422,8.90191657 25.7151259,9.01981431 26.0577564,9.01662788 L35.6024618,9.01503467 C35.981408,9.01503467 36.1819336,9.21737268 36.1819336,9.55513377 L36.1850915,11.6422424 C36.1850915,11.9847831 35.981408,12.126579 35.6103565,12.126579 L26.0577564,12.1329519 C25.7182838,12.1329519 25.5746001,12.3368831 25.5746001,12.7319999 L25.5809159,17.6757388 C25.5809159,18.0469574 25.7230206,18.2174312 26.0624932,18.2158379 L36.5877218,18.2110583 C36.9587732,18.2110583 37.1592988,18.351261 37.1592988,18.6380393 C37.1592988,18.9519022 36.9887731,19.2084094 36.6729846,19.3820696 L34.2350979,20.7570122 C33.5798369,21.1266375 32.8914181,21.2700267 32.1445785,21.2700267 L25.6630208,21.2716199 Z" id="Fill-3"></path>
            <path d="M55.7123431,13.2005637 L55.7155009,15.2335031 C55.7155009,16.8585801 55.0223453,18.086947 53.6502446,18.8867398 L50.2681504,20.7428326 C49.6097315,21.1140511 48.8944707,21.2574403 48.206052,21.2574403 L40.5481824,21.2654063 C40.1755521,21.2654063 40.0334473,21.1522882 40.0334473,20.8081543 L40.0318683,18.7226389 C40.0318683,18.4103692 40.1755521,18.2080312 40.5750244,18.2080312 L51.125516,18.2000651 C51.4160414,18.2000651 51.644988,18.0311846 51.644988,17.6583728 L51.6434091,12.8022606 C51.6434091,12.4326352 51.4081467,12.2318904 51.125516,12.2318904 L43.6697511,12.2350768 C41.1134437,12.23667 39.4823964,10.2690524 39.4823964,8.06882566 L39.4808175,6.29557993 C39.4808175,4.72785865 40.1076575,3.49630524 41.514495,2.66783465 L44.8965892,0.81492829 C45.5265871,0.437336883 46.2418479,0.2636767 46.9302667,0.2636767 L54.4428735,0.260490274 C54.8170828,0.260490274 55.0176085,0.434150457 55.0176085,0.778284398 L55.0176085,2.86220659 C55.0176085,3.17447628 54.8202407,3.31945863 54.4460314,3.31945863 L44.0360657,3.32423827 C43.6650143,3.3274247 43.5529094,3.5281695 43.5529094,3.89779484 L43.5529094,8.38428177 C43.5529094,8.81126277 43.6934352,8.95146548 44.0676445,8.95146548 L51.4949885,8.94668585 C53.3312983,8.94668585 55.7107641,10.3996958 55.7123431,13.2005637" id="Fill-5"></path>
            <path d="M62.4875839,20.7939747 C62.4875839,21.1365154 62.2870583,21.2512268 61.9412699,21.2512268 L58.9049641,21.2544132 C58.6144388,21.2544132 58.5007549,21.1397019 58.5007549,20.7955679 L58.4928602,0.744986253 C58.4928602,0.432716566 58.6033862,0.257452205 58.8923326,0.257452205 L61.9317963,0.257452205 C62.2728478,0.255869958 62.4733734,0.427936928 62.4765313,0.744986253 L62.4875839,20.7939747 Z" id="Fill-7"></path>
            <path d="M69.8325071,21.5338627 C68.1683021,21.5338627 66.3872553,20.2800043 66.3825185,18.0813708 L66.3777817,6.31230867 C66.3777817,4.71272313 67.0362005,3.48435615 68.4114592,2.65429234 L71.7651324,0.798199556 C72.3951303,0.425387788 73.085128,0.248541179 73.8003888,0.248541179 L82.4040447,0.246947967 C82.7214121,0.246947967 82.8903589,0.42060815 82.8903589,0.76474209 L82.8982536,2.84547786 C82.8982536,3.16093397 82.7214121,3.30432311 82.4040447,3.30432311 L70.9361877,3.31069596 C70.5903994,3.31069596 70.4214526,3.50825434 70.4214526,3.88106611 L70.4309262,17.6512034 C70.4309262,18.0208287 70.5982941,18.1928957 70.9456614,18.1928957 L78.600373,18.188116 C78.9145825,18.1849296 79.1451081,18.0160491 79.1451081,17.6464237 L79.1451081,13.6713581 C79.1419502,13.3017327 78.9114246,13.1025811 78.627215,13.1073608 L75.4156467,13.1073608 C75.0398584,13.1073608 74.8977536,12.9607852 74.8977536,12.6501087 L74.8977536,10.5900847 C74.8977536,10.2236458 75.0398584,10.0802567 75.3840678,10.0802567 L82.640886,10.0722906 C82.9819376,10.0706974 83.1540423,10.2443576 83.1540423,10.6139829 L83.1587791,20.7850527 C83.1587791,21.1260002 82.9898323,21.2391183 82.6440439,21.2391183 L79.6645801,21.2423048 C79.3219496,21.2423048 79.1451081,21.1260002 79.1451081,20.7579681 L79.1451081,20.2720382 C79.1451081,19.8992265 78.8861616,19.7558373 78.5435311,19.843464 L70.8588195,21.4191514 C70.4309262,21.5338627 70.0882958,21.5338627 69.8325071,21.5338627" id="Fill-9"></path>
            <path d="M105.6726,20.7729443 C105.6726,21.1138918 105.503653,21.2286031 105.186286,21.2286031 L99.0757794,21.2333828 C98.7363068,21.2333828 98.5057812,21.1186715 98.3920974,20.8016221 L91.0958056,3.38302782 C91.0405426,3.26831651 90.9552798,3.18706266 90.813175,3.18706266 C90.6094914,3.18706266 90.4942286,3.32567216 90.4942286,3.49773913 L90.5052812,20.7490461 C90.5052812,21.1186715 90.3063345,21.2365692 89.9321252,21.2365692 L87.0963451,21.2397556 C86.8089776,21.2397556 86.6937148,21.1218579 86.6937148,20.7825036 L86.6810833,0.731921909 C86.6810833,0.416465797 86.7931882,0.242805614 87.0821346,0.242805614 L93.2779037,0.239619188 C93.5921132,0.239619188 93.8194809,0.381415117 93.9331647,0.698464442 L101.22472,18.0851945 C101.31314,18.201499 101.399982,18.2604479 101.483666,18.2604479 C101.68735,18.2604479 101.859454,18.1744144 101.859454,18.0007542 L101.849981,0.722362633 C101.849981,0.411686158 102.020507,0.233246337 102.364716,0.233246337 L105.175233,0.233246337 C105.491021,0.233246337 105.661547,0.40690652 105.663126,0.72076942 L105.6726,20.7729443 Z" id="Fill-11"></path>
            <path d="M4.16998628,48 C1.12736471,48.0047728 0.0126315374,45.4859036 0.00947365305,43.8815384 L0,27.4730409 C0,27.128907 0.143683738,26.95684 0.487893132,26.95684 L3.49735692,26.9552468 C3.84156631,26.9552468 4.04209197,27.1241274 4.04209197,27.4682613 L4.0547235,44.3929597 C4.0547235,44.7641782 4.1968283,44.9362452 4.56787971,44.9362452 L14.2325848,44.9282791 C14.5736363,44.9282791 14.8041618,45.0732615 14.8041618,45.3600398 C14.8041618,45.6770891 14.6036362,45.9335964 14.3210055,46.1040701 L11.8846977,47.4806059 C11.1931211,47.8550109 10.5047023,47.9984 9.76102052,47.9984 L4.16998628,48 Z" id="Fill-13"></path>
            <path d="M20.169881,47.5331819 C20.169881,47.8773158 19.9693554,47.9936204 19.623567,47.9936204 L16.5872612,47.9952136 C16.2998938,47.9952136 16.184631,47.8805023 16.184631,47.5379615 L16.1767363,27.4332106 C16.1767363,27.1193477 16.2872622,26.9472377 16.5746297,26.9472377 L19.6188302,26.9472377 C19.9614607,26.9440943 20.1604074,27.1177545 20.1604074,27.4300242 L20.169881,47.5331819 Z" id="Fill-15"></path>
            <path d="M41.0362334,30.1713059 L41.0378124,33.0056313 C41.0378124,34.2658626 40.5514982,35.3811114 39.5772909,36.1840906 C39.4620281,36.3019884 39.3767652,36.4135133 39.3767652,36.6142581 C39.3767652,36.8102232 39.4620281,36.9265277 39.6057118,37.0141544 C40.583077,37.842625 41.1009932,38.9307893 41.1009932,40.2818337 L41.1009932,41.8846056 C41.1057069,43.4841912 40.3841303,44.7173378 38.9520298,45.5474016 L35.6583564,47.4704093 C34.9983586,47.8432211 34.3099398,47.9866102 33.5031003,47.9866102 L24.4478669,47.9897966 C24.1289206,47.9897966 24.0136578,47.8766785 24.0136578,47.5325446 L24.0041842,27.4612512 C24.0041842,27.1171172 24.1162891,26.943457 24.4352354,26.943457 L27.4146993,26.943457 C27.7589087,26.9418638 27.9610133,27.1139308 27.9610133,27.4564715 L27.9610133,27.9153168 C27.9610133,28.2865353 28.133118,28.4267381 28.5641692,28.343891 L36.5046694,26.7650172 C36.9641416,26.7044751 37.308351,26.6502989 37.4788767,26.6502989 C38.9393982,26.6471195 41.0362334,27.7352837 41.0362334,30.1713059 M36.9073639,35.4384671 L36.9073639,30.5696091 C36.9073639,30.201577 36.6483531,29.9721544 36.2504597,29.9721544 L28.4773274,29.976934 C28.1078549,29.976934 27.9625922,30.2063566 27.9625922,30.5743888 L27.9625922,35.475111 C27.9657501,35.8208381 28.1362759,35.9881255 28.5120641,35.9881255 L36.2520386,35.9865323 C36.6546689,35.9865323 36.9120365,35.8144653 36.9073639,35.4384671 M36.9167733,44.3747971 L36.9136154,39.6795993 C36.9136154,39.3067875 36.6546689,39.0502803 36.2520386,39.0502803 L28.5120641,39.0534667 C28.1362759,39.0534667 27.9657501,39.2828893 27.9657501,39.6541079 L27.9704869,44.4082545 C27.9704869,44.7523885 28.1425916,44.898964 28.5168009,44.898964 L36.2599334,44.8941844 C36.6578268,44.8941844 36.9167733,44.7221174 36.9167733,44.3747971" id="Fill-17"></path>
            <path d="M61.0273782,30.1588789 L61.0273782,33.6512011 C61.0289571,35.2810577 60.3136963,36.4600351 58.8500169,37.2869125 L57.3610745,38.1775183 C57.045286,38.3814496 56.9600232,38.6060926 57.1858119,38.9215487 L62.2684267,47.5949985 C62.4121105,47.9136411 62.3836895,47.9678103 61.9810593,47.9678103 L58.4268604,47.9725899 C58.1079141,47.9725899 57.8252835,47.8578786 57.6815997,47.5424225 L53.4342453,40.2152374 C53.2574038,39.8997813 52.9731942,39.7277143 52.6037217,39.7277143 L48.8458393,39.7293075 C48.500051,39.7293075 48.3579462,39.9300523 48.3579462,40.2757795 L48.3658409,47.4898465 C48.3658409,47.8626583 48.1337364,47.9773696 47.7879481,47.9773696 L44.8084842,47.980556 C44.4626958,47.980556 44.3474331,47.8658447 44.3474331,47.5201175 L44.3363805,27.4488241 C44.3363805,27.1046902 44.4500643,26.9294368 44.7926948,26.9294368 L47.7753165,26.9294368 C48.1195259,26.9294368 48.3547883,27.0999105 48.3547883,27.4440445 L48.3547883,27.9028897 C48.3547883,28.3027861 48.5221562,28.4493617 48.8963655,28.3330572 L56.4910773,26.7525902 C56.8668656,26.6952345 57.209496,26.6378789 57.4668636,26.6378789 C58.8452801,26.6378789 61.0226414,27.6957721 61.0273782,30.1588789 M56.9268654,36.0601387 L56.9252864,30.5587753 C56.9252864,30.1907431 56.7263397,29.9899983 56.3789724,29.9899983 L48.8411025,29.9915916 C48.4953142,29.9915916 48.3547883,30.197116 48.3547883,30.5651481 L48.3579462,36.0935962 C48.3579462,36.4648147 48.500051,36.6368817 48.8458393,36.6368817 L56.3805514,36.632102 C56.7310765,36.632102 56.9268654,36.4329505 56.9268654,36.0601387" id="Fill-19"></path>
            <path d="M81.6823103,47.500521 C81.797573,47.8430618 81.6823103,47.9577731 81.3096799,47.9577731 L78.2402163,47.9625527 C77.8991648,47.9625527 77.6702182,47.8478414 77.5849553,47.4750296 L76.3486436,43.1494572 C76.2049599,42.8642721 75.9775922,42.6348495 75.6302249,42.6348495 L68.6055112,42.6380359 C68.2597228,42.6380359 68.0007763,42.8674585 67.9455133,43.1542368 L66.6886754,47.4798093 C66.6002546,47.852621 66.4281499,47.9673323 66.0270986,47.9673323 L62.902372,47.9689256 C62.5881625,47.9689256 62.5044786,47.8558075 62.5881625,47.5132667 L68.7128792,27.4053294 C68.7981421,27.0882801 69.0286677,26.9178063 69.3697192,26.9178063 L74.8202276,26.9146199 C75.218121,26.9146199 75.4533834,27.0866869 75.5639093,27.402143 L81.6823103,47.500521 Z M75.1691738,39.0262227 L72.5260246,29.8349788 C72.4707616,29.6660982 72.322341,29.5529801 72.0997102,29.5529801 C71.8928688,29.5529801 71.7823428,29.6660982 71.6939221,29.8381652 L69.0934043,39.027816 C68.9781415,39.432492 69.1202463,39.5472033 69.4644557,39.5472033 L74.7128595,39.5440169 C75.1439107,39.5440169 75.2844366,39.4308988 75.1691738,39.0262227 L75.1691738,39.0262227 Z" id="Fill-21"></path>
            <path d="M99.9967763,30.1378485 L99.9983553,33.6317639 C99.9983553,35.2616205 99.2878313,36.4390047 97.8241519,37.265882 L96.3352094,38.1564879 C96.0162631,38.3540463 95.9325792,38.5834689 96.1615258,38.9005183 L101.24572,47.5755613 C101.387824,47.8894242 101.359403,47.9467799 100.956773,47.9467799 L97.3994164,47.9515595 C97.083628,47.9515595 96.7978395,47.8336618 96.6557347,47.5213921 L92.4083802,40.1926138 C92.2331177,39.8787509 91.9489081,39.7066839 91.5731198,39.7066839 L87.8199743,39.7114635 C87.4741859,39.7114635 87.3336601,39.9090219 87.3336601,40.254749 L87.335239,47.4688161 C87.335239,47.8432211 87.1062924,47.9563392 86.763662,47.9563392 L83.7810402,47.9563392 C83.4368308,47.9563392 83.321568,47.8432211 83.321568,47.4990871 L83.3105154,27.4246073 C83.3105154,27.0804733 83.4241993,26.9115928 83.7668297,26.9115928 L86.7510304,26.9084064 C87.0936609,26.9084064 87.3273443,27.0804733 87.3273443,27.4230141 L87.3273443,27.8818593 C87.3273443,28.2817557 87.4978701,28.4267381 87.8673425,28.3120267 L95.4667912,26.7315598 C95.8394216,26.6742041 96.183631,26.6168484 96.4425775,26.6168484 C97.8194151,26.6168484 99.9967763,27.6747417 99.9967763,30.1378485 M95.9041582,36.0375151 L95.8962635,30.5361517 C95.8962635,30.1697127 95.6973168,29.9689679 95.3546863,29.9689679 L87.8120796,29.9721544 C87.472607,29.9721544 87.3273443,30.1760856 87.3273443,30.5425245 L87.3289233,36.0725657 C87.3289233,36.4437843 87.4741859,36.6158513 87.8183953,36.6158513 L95.3578442,36.6078852 C95.7004747,36.6078852 95.9041582,36.4135133 95.9041582,36.0375151" id="Fill-23"></path>
            <path d="M119.958553,27.3481331 L112.681208,39.348211 C112.507525,39.6349893 112.392262,39.9520386 112.392262,40.2961726 L112.398578,47.4560704 C112.398578,47.827289 112.224894,47.9420003 111.912263,47.9420003 L108.904379,47.9435935 C108.58859,47.9435935 108.413328,47.8288822 108.413328,47.4576636 L108.408591,40.3009522 C108.408591,39.9520386 108.296486,39.6381757 108.121223,39.3513975 L100.889668,27.3576923 C100.831247,27.2445742 100.831247,27.1585408 100.889668,27.0438294 C100.944931,26.9546095 101.034931,26.8972539 101.177036,26.8972539 L104.562288,26.8972539 C104.878076,26.8972539 105.163865,27.0709141 105.36439,27.3863702 L110.014375,35.8017196 C110.099638,35.9737866 110.211743,36.0566336 110.417005,36.0566336 C110.55911,36.0566336 110.674373,35.9737866 110.789636,35.8017196 L115.456989,27.3799973 C115.659093,27.0661344 115.854882,26.8924742 116.172249,26.8924742 L119.699606,26.890881 C119.78329,26.890881 119.90329,26.9482367 119.958553,27.032677 C120.013816,27.1473883 120.013816,27.235015 119.958553,27.3481331" id="Fill-25"></path>
        </g>
    </g>
</svg>