<?xml version="1.0" encoding="UTF-8"?>
<svg width="88px" height="59px" viewBox="0 0 88 59" version="1.1" xmlns="http://www.w3.org/2000/svg" xmlns:xlink="http://www.w3.org/1999/xlink">
    <title>dm_b</title>
    <defs>
        <rect id="path-1" x="0" y="0" width="88" height="59"></rect>
        <rect id="path-3" x="0" y="0" width="88" height="57"></rect>
        <polygon id="path-5" points="0 0 53 0 53 66 0 66"></polygon>
    </defs>
    <g id="Page-1" stroke="none" stroke-width="1" fill="none" fill-rule="evenodd">
        <g id="dm_b">
            <mask id="mask-2" fill="white">
                <use xlink:href="#path-1"></use>
            </mask>
            <use id="path-1" fill="#FFFFFF" fill-rule="nonzero" xlink:href="#path-1"></use>
            <mask id="mask-4" fill="white">
                <use xlink:href="#path-3"></use>
            </mask>
            <use id="path-1" fill="#FFFFFF" fill-rule="nonzero" xlink:href="#path-3"></use>
            <g id="Group-32" mask="url(#mask-4)">
                <g transform="translate(17.000000, 2.000000)">
                    <g id="Group-3" stroke-width="1" fill="none">
                        <mask id="mask-6" fill="white">
                            <use xlink:href="#path-5"></use>
                        </mask>
                        <g id="Clip-2"></g>
                        <path d="M17.2873252,25.7214456 C17.2873252,25.990896 17.0642484,26.2091875 16.7893563,26.2091875 L15.2919119,26.2091875 C15.0168116,26.2091875 14.7937349,25.990896 14.7937349,25.7214456 L14.7937349,20.2089226 C14.7937349,19.9394722 15.0168116,19.7209768 15.2919119,19.7209768 L16.7893563,19.7209768 C17.0642484,19.7209768 17.2873252,19.9394722 17.2873252,20.2089226 L17.2873252,25.7214456 Z M17.4492223,18.0989751 L14.6318378,18.0989751 C13.8100746,18.0989751 13.1377229,18.7575184 13.1377229,19.5624047 L13.1377229,26.3677597 C13.1377229,27.172646 13.8100746,27.8313931 14.6318378,27.8313931 L17.4492223,27.8313931 C18.2709855,27.8313931 18.9433372,27.172646 18.9433372,26.3677597 L18.9433372,19.5624047 C18.9433372,18.7575184 18.2709855,18.0989751 17.4492223,18.0989751 L17.4492223,18.0989751 Z M52.2972666,26.5242937 C52.2972666,26.6035798 52.2313008,26.667987 52.1505603,26.667987 L42.6872779,26.667987 C42.6063294,26.667987 42.5405717,26.6035798 42.5405717,26.5242937 L42.5405717,15.0600149 C42.5405717,14.9809326 42.6063294,14.9165254 42.6872779,14.9165254 L52.1505603,14.9165254 C52.2313008,14.9165254 52.2972666,14.9809326 52.2972666,15.0600149 L52.2972666,26.5242937 Z M41.8376301,28.6972216 C41.8376301,28.7763039 41.7718724,28.8409149 41.691132,28.8409149 L32.2278496,28.8409149 C32.146901,28.8409149 32.0811433,28.7763039 32.0811433,28.6972216 L32.0811433,17.2329428 C32.0811433,17.1538605 32.146901,17.0894533 32.2278496,17.0894533 L41.691132,17.0894533 C41.7718724,17.0894533 41.8376301,17.1538605 41.8376301,17.2329428 L41.8376301,28.6972216 Z M31.3782018,26.5242937 C31.3782018,26.6035798 31.3124441,26.667987 31.2314955,26.667987 L21.7684212,26.667987 C21.6874727,26.667987 21.621715,26.6035798 21.621715,26.5242937 L21.621715,15.0600149 C21.621715,14.9809326 21.6874727,14.9165254 21.7684212,14.9165254 L31.2314955,14.9165254 C31.3124441,14.9165254 31.3782018,14.9809326 31.3782018,15.0600149 L31.3782018,26.5242937 Z M28.4848629,30.4411078 L22.6725896,30.4411078 L25.0752429,28.2569698 L26.0659784,27.356288 L30.8479783,27.356288 L28.4848629,30.4411078 Z M40.9440745,31.1296127 C41.024815,31.1296127 41.0905727,31.1940199 41.0905727,31.273306 L41.0905727,36.1517442 C41.0905727,36.2308265 41.024815,36.2952337 40.9440745,36.2952337 L12.0560503,36.2952337 C11.9751018,36.2952337 11.909344,36.2308265 11.909344,36.1517442 L11.909344,31.273306 C11.909344,31.1940199 11.9751018,31.1296127 12.0560503,31.1296127 L40.9440745,31.1296127 Z M24.3508677,36.9835347 L25.0752429,36.9835347 L25.0752429,39.285277 L23.5001794,38.98933 C23.3709531,38.9658907 23.2679465,38.8845664 23.2177959,38.7657392 C23.1676452,38.646912 23.1815875,38.5180975 23.2477614,38.4233211 L24.3508677,36.9835347 Z M40.7120497,42.9253033 L41.4412111,39.0816606 L46.9442567,46.9315945 L38.9301409,52.3218254 L39.7204819,48.1545161 L27.9246739,46.0900206 L25.0752429,45.5914762 L11.909344,43.2870842 C11.3524845,43.192104 10.9171519,42.8005653 10.7729428,42.2653332 C10.6289417,41.7301012 10.8106078,41.1793788 11.247189,40.8277889 L15.475867,36.9835347 L23.4725029,36.9835347 L22.6775839,38.0213875 C22.4682413,38.3187613 22.4274549,38.6954212 22.5685426,39.029075 C22.7094223,39.3627287 23.0103262,39.6009946 23.3703288,39.6658095 L25.0752429,39.986215 L27.9246739,40.5218546 L40.7120497,42.9253033 Z M24.415793,3.68011767 C23.6038102,3.68011767 23.1786742,4.29545107 23.1786742,4.82538378 C23.1786742,5.24199241 23.4298437,5.59235946 23.9421711,5.59235946 C24.1837682,5.59235946 24.7637262,5.61131474 24.7637262,6.1035407 C24.7637262,6.47265921 24.4834235,6.82302626 23.6329434,6.82302626 C22.8113883,6.82302626 21.8350113,6.30226546 21.8350113,5.05264338 C21.8350113,3.45265425 23.2850102,2.46820234 24.5897596,2.46820234 C25.6722645,2.46820234 26.5905833,3.13082204 26.5905833,4.6929006 L26.6679943,8.0159863 C27.6441632,6.29288973 28.8136514,4.58874844 28.803871,3.33912636 C28.7942987,2.78045499 29.1035264,2.47778189 29.4129621,2.47778189 C29.7317621,2.47778189 30.0603425,2.79941028 30.0603425,3.47160953 C30.0603425,4.97682224 28.1660629,7.58042238 27.1511885,9.53995047 C26.899811,10.0038454 26.5518778,10.2215255 26.1845919,10.2215255 C25.6531199,10.2215255 25.4017423,9.89969325 25.3919619,9.2466531 L25.3049786,4.98640179 C25.3049786,4.10589822 24.8796345,3.68011767 24.415793,3.68011767 L24.415793,3.68011767 Z M22.9135625,7.48564596 C22.8170069,7.73165702 22.7202431,7.95891663 22.6141152,8.20513152 C22.0726546,9.4547536 21.4250661,10.041756 20.3232084,10.041756 C19.8013087,10.041756 19.3470395,9.82387211 19.1150147,9.48328844 C18.7285842,9.8619865 18.2838873,10.041756 17.8683236,10.041756 C16.9597852,10.041756 16.5922913,9.38830819 16.5922913,8.54591901 C16.5922913,6.98404427 17.8585432,4.77809747 19.4823006,4.77809747 C19.8689393,4.77809747 20.2362252,4.94849122 20.390839,5.21345757 C20.574586,4.95786695 20.8066108,4.84433906 21.0190748,4.84433906 C21.3187301,4.84433906 21.57968,5.08117822 21.57968,5.43134144 C21.57968,5.54486933 21.5605353,5.65839723 21.5024771,5.79108422 L21.4154938,5.99918472 L20.8742413,7.30567266 C20.6035111,7.93078943 20.4778223,8.26179355 20.4295445,8.37552526 C20.2942834,8.74484759 20.4488972,9.05730407 20.7774776,9.05730407 C21.0964857,9.05730407 21.4926967,8.75422333 21.7827797,8.07264834 C21.8408379,7.94954089 21.9373935,7.71290556 22.1402852,7.23005534 C22.2561935,6.96488516 22.4303682,6.87031256 22.6815377,6.94592988 C22.9329152,7.02175102 23.0198985,7.22047578 22.9135625,7.48564596 L22.9135625,7.48564596 Z M12.6901127,10.2215255 C12.0714493,10.2215255 11.5978273,9.97531057 11.2016164,9.67263747 C10.7569195,10.0511317 10.2254475,10.2215255 9.52937306,10.2215255 C8.35031249,10.2215255 7.78013495,9.56848531 7.78013495,8.89628605 C7.78013495,8.20513152 8.38901798,7.5141808 9.53915347,7.5141808 C10.0708336,7.5141808 10.4959697,7.73165702 10.873036,8.00620293 C10.9213138,7.89267504 10.979372,7.76977142 11.0372221,7.62770869 L12.3130464,4.55104169 C12.5065738,4.09631867 12.8060211,3.90717345 13.0863237,3.90717345 C13.385979,3.90717345 13.647137,4.14380879 13.647137,4.49417584 C13.647137,4.60770373 13.6275761,4.72143544 13.569726,4.85391861 L13.4827427,5.06201911 L12.2358435,8.06306879 C12.1199352,8.33761469 12.0038187,8.58382958 11.8879104,8.7921339 C12.1390798,8.9721072 12.4098101,9.08563509 12.699685,9.08563509 C14.4782644,9.08563509 15.3963751,7.39086953 15.3963751,5.90461211 C15.3963751,4.54146214 14.6328782,3.25392948 13.0767513,3.25392948 C11.984466,3.25392948 10.8923887,3.88821817 10.8923887,4.74976646 C10.8923887,5.18512656 11.1146331,5.31760973 11.2209691,5.47862775 C11.2498942,5.52611787 11.2596746,5.57320035 11.2596746,5.63964576 C11.2596746,5.84795008 11.0470025,6.07500586 10.7377749,6.07500586 C10.1384642,6.07500586 9.67462266,5.37447559 9.67462266,4.75914219 C9.67462266,3.1876879 11.3851553,2.17470115 13.1056764,2.17470115 C15.4833584,2.17470115 16.6432743,3.98279078 16.6432743,5.8762811 C16.6432743,7.94016516 15.2804667,10.2215255 12.6901127,10.2215255 L12.6901127,10.2215255 Z M31.2398193,4.84433906 C31.5392666,4.84433906 31.8004245,5.08117822 31.8004245,5.43134144 C31.8004245,5.54486933 31.7810718,5.65839723 31.7230135,5.79108422 L31.6360303,5.99918472 L31.0947778,7.30567266 C30.8240475,7.93078943 30.6985668,8.26179355 30.6500809,8.37552526 C30.5148198,8.74484759 30.6696418,9.05730407 30.9982222,9.05730407 C31.298918,9.05730407 31.6674525,8.78336962 31.9517088,8.1808769 L33.0662603,5.48800348 C33.2595796,5.03368809 33.5592349,4.84433906 33.8395375,4.84433906 C34.0811347,4.84433906 34.2938067,4.99598134 34.3712177,5.23241286 C34.7480759,4.9201602 35.17342,4.77809747 35.5502783,4.77809747 C36.1591613,4.77809747 36.6521359,5.13784025 36.6521359,5.7627532 C36.6521359,6.03729911 36.4009665,6.67158779 36.1398085,7.30567266 C35.8692863,7.93078943 35.7435976,8.26179355 35.6953198,8.37552526 C35.5600587,8.74484759 35.7146725,9.05730407 36.0432529,9.05730407 C36.362261,9.05730407 36.758472,8.75422333 37.0483469,8.07264834 C37.1020352,7.95891663 37.1898508,7.74510916 37.3631931,7.33237311 C37.7687683,6.02894248 38.8947649,4.77809747 40.150196,4.77809747 C41.0780871,4.77809747 41.6097672,5.32718928 41.6097672,5.99918472 C41.6097672,6.66200824 41.0780871,7.18276903 40.4692041,7.18276903 C39.9473043,7.18276903 39.7152795,6.87031256 39.7152795,6.55785608 C39.7152795,6.25497916 39.937732,5.96147797 40.3437234,5.96147797 C40.440279,5.96147797 40.546615,5.98980899 40.6335983,6.03729911 C40.7301539,6.1035407 40.8075649,6.07500586 40.7592871,5.9708537 C40.6818761,5.80045995 40.51769,5.70588735 40.2758847,5.70588735 C39.4349769,5.70588735 38.6327746,7.05966159 38.6327746,8.06306879 C38.6327746,8.65007117 38.9130772,9.12334184 39.6187239,9.12334184 C40.4334119,9.12334184 41.0543644,8.75136984 41.4584829,8.0269926 C41.5350615,7.83050986 41.6320333,7.59530126 41.7537683,7.30567266 L42.5076928,5.48800348 C42.7010121,5.03368809 43.0006675,4.84433906 43.2809701,4.84433906 C43.5806254,4.84433906 43.8415753,5.08117822 43.8415753,5.43134144 C43.8415753,5.54486933 43.8222226,5.65839723 43.7643724,5.79108422 L43.6773891,5.99918472 L43.1359286,7.30567266 C42.8654064,7.93078943 42.7397176,8.26179355 42.6914398,8.37552526 C42.5559706,8.74484759 42.7107925,9.05730407 43.039373,9.05730407 C43.358173,9.05730407 43.754592,8.75422333 44.0444669,8.07264834 C44.1025252,7.94954089 44.1990808,7.71290556 44.4021805,7.23005534 C44.518297,6.96488516 44.6922635,6.87031256 44.943433,6.94592988 C45.1948105,7.02175102 45.2817938,7.22047578 45.1754578,7.48564596 C45.0786941,7.73165702 44.9821385,7.95891663 44.8758024,8.20513152 C44.33455,9.4547536 43.6869615,10.041756 42.5851038,10.041756 C42.0457241,10.041756 41.5847959,9.81449638 41.3598463,9.45108483 C40.8242124,9.88603729 40.1514445,10.1079976 39.357774,10.1079976 C38.385767,10.1079976 37.6940626,9.72033141 37.3848349,9.10846296 C36.9338952,9.73867524 36.3782843,10.041756 35.5889837,10.041756 C34.8252788,10.041756 34.2163958,9.58744059 34.2163958,8.93399281 C34.2163958,8.64069543 34.3516569,8.27157692 34.7576482,7.30567266 C34.960748,6.82302626 35.1442869,6.3780866 35.1442869,6.21706859 C35.1442869,6.02771956 35.0573036,5.90461211 34.8157065,5.90461211 C34.5643289,5.90461211 34.3227318,6.03729911 34.0811347,6.3780866 L33.1436712,8.64069543 L32.79553,9.46412933 C32.6215634,9.88073797 32.3123357,10.041756 32.0418135,10.041756 C31.8443323,10.041756 31.6674525,9.96002405 31.564654,9.81266199 C31.2714496,9.9655272 30.9368344,10.041756 30.543953,10.041756 C29.7804561,10.041756 29.171365,9.58744059 29.171365,8.93399281 C29.171365,8.64069543 29.3066261,8.27157692 29.7126175,7.30567266 L30.466542,5.48800348 C30.6598613,5.03368809 30.9595167,4.84433906 31.2398193,4.84433906 L31.2398193,4.84433906 Z M31.8874078,2.95105256 C32.2933992,2.95105256 32.6219796,3.27288477 32.6219796,3.68011767 C32.6219796,4.0775672 32.2933992,4.39939941 31.8874078,4.39939941 C31.4814164,4.39939941 31.152836,4.0775672 31.152836,3.68011767 C31.152836,3.27288477 31.4814164,2.95105256 31.8874078,2.95105256 L31.8874078,2.95105256 Z M43.9285586,2.95105256 C44.33455,2.95105256 44.6631304,3.27288477 44.6631304,3.68011767 C44.6631304,4.0775672 44.33455,4.39939941 43.9285586,4.39939941 C43.5225672,4.39939941 43.1939868,4.0775672 43.1939868,3.68011767 C43.1939868,3.27288477 43.5225672,2.95105256 43.9285586,2.95105256 L43.9285586,2.95105256 Z M20.9189815,28.6972216 C20.9189815,28.7763039 20.8530158,28.8409149 20.7722753,28.8409149 L11.3089929,28.8409149 C11.2280443,28.8409149 11.1622866,28.7763039 11.1622866,28.6972216 L11.1622866,17.2329428 C11.1622866,17.1538605 11.2280443,17.0894533 11.3089929,17.0894533 L20.7722753,17.0894533 C20.8530158,17.0894533 20.9189815,17.1538605 20.9189815,17.2329428 L20.9189815,28.6972216 Z M10.4593451,26.5242937 C10.4593451,26.6035798 10.3935874,26.667987 10.3128469,26.667987 L0.84935644,26.667987 C0.768615971,26.667987 0.702858269,26.6035798 0.702858269,26.5242937 L0.702858269,15.0600149 C0.702858269,14.9809326 0.768615971,14.9165254 0.84935644,14.9165254 L10.3128469,14.9165254 C10.3935874,14.9165254 10.4593451,14.9809326 10.4593451,15.0600149 L10.4593451,26.5242937 Z M52.1505603,14.2280205 L42.6872779,14.2280205 C42.2188583,14.2280205 41.8376301,14.6014193 41.8376301,15.0600149 L41.8376301,16.4154197 C41.7897685,16.4072669 41.7412826,16.4009484 41.691132,16.4009484 L32.2278496,16.4009484 C32.1774908,16.4009484 32.1290049,16.4072669 32.0811433,16.4154197 L32.0811433,15.0600149 C32.0811433,14.6014193 31.6999151,14.2280205 31.2314955,14.2280205 L27.9246739,14.2280205 L27.9246739,12.3962878 L47.5329546,12.3962878 C47.7564476,12.3962878 47.9526802,12.2503524 48.0128194,12.0393985 L51.2632475,0.618941018 C51.3516875,0.307911284 51.1130037,-6.11460814e-05 50.7833828,-6.11460814e-05 L2.21653397,-6.11460814e-05 C1.88712118,-6.11460814e-05 1.64843737,0.307911284 1.73687732,0.618941018 L4.98730548,12.0393985 C5.04723655,12.2503524 5.24346919,12.3962878 5.46696213,12.3962878 L25.0752429,12.3962878 L25.0752429,14.2280205 L21.7684212,14.2280205 C21.3000016,14.2280205 20.9189815,14.6014193 20.9189815,15.0600149 L20.9189815,16.4154197 C20.8709118,16.4072669 20.8224259,16.4009484 20.7722753,16.4009484 L11.3089929,16.4009484 C11.2586341,16.4009484 11.2101482,16.4072669 11.1622866,16.4154197 L11.1622866,15.0600149 C11.1622866,14.6014193 10.7810584,14.2280205 10.3128469,14.2280205 L0.84935644,14.2280205 C0.381144957,14.2280205 -8.3237597e-05,14.6014193 -8.3237597e-05,15.0600149 L-8.3237597e-05,26.5242937 C-8.3237597e-05,26.9830931 0.381144957,27.356288 0.84935644,27.356288 L10.3128469,27.356288 C10.3629976,27.356288 10.4114835,27.3501734 10.4593451,27.3418168 L10.4593451,28.6972216 C10.4593451,29.156021 10.8405733,29.5292159 11.3089929,29.5292159 L20.7722753,29.5292159 C21.2406949,29.5292159 21.621715,29.156021 21.621715,28.6972216 L21.621715,27.3418168 C21.6695766,27.3501734 21.7180625,27.356288 21.7684212,27.356288 L25.0332079,27.356288 L21.6400272,30.4411078 L12.0560503,30.4411078 C11.5876307,30.4411078 11.2064025,30.8145066 11.2064025,31.273306 L11.2064025,36.1517442 C11.2064025,36.6103398 11.5876307,36.9835347 12.0560503,36.9835347 L14.4435127,36.9835347 L10.7922955,40.3029517 C10.1472041,40.827585 9.87938715,41.6457196 10.0933078,42.4408225 C10.308477,43.2393903 10.9579383,43.823743 11.7871929,43.9649905 L25.0752429,46.2905798 L25.0752429,66 L27.9246739,66 L27.9246739,46.789328 L38.9001753,48.7101302 L37.9290007,53.8300954 L47.9216742,47.1093258 L41.0597748,37.3220802 L40.150196,42.1185826 L27.9246739,39.8209167 L27.9246739,36.9835347 L40.9440745,36.9835347 C41.412286,36.9835347 41.7933061,36.6103398 41.7933061,36.1517442 L41.7933061,31.273306 C41.7933061,30.8145066 41.412286,30.4411078 40.9440745,30.4411078 L29.3630196,30.4411078 L31.3782018,27.8108072 L31.3782018,28.6972216 C31.3782018,29.156021 31.75943,29.5292159 32.2278496,29.5292159 L41.691132,29.5292159 C42.1593435,29.5292159 42.5405717,29.156021 42.5405717,28.6972216 L42.5405717,27.3418168 C42.5884333,27.3501734 42.6369192,27.356288 42.6872779,27.356288 L52.1505603,27.356288 C52.6189799,27.356288 53,26.9830931 53,26.5242937 L53,15.0600149 C53,14.6014193 52.6189799,14.2280205 52.1505603,14.2280205 L52.1505603,14.2280205 Z M49.9408102,24.0362596 L46.5033056,24.0362596 L46.5033056,15.9747603 C46.5033056,15.9480598 46.4808314,15.9260472 46.453363,15.9260472 L44.897028,15.9260472 C44.8695596,15.9260472 44.8470855,15.9480598 44.8470855,15.9747603 L44.8470855,25.6095483 C44.8470855,25.6364526 44.8695596,25.6584652 44.897028,25.6584652 L49.9408102,25.6584652 C49.9680705,25.6584652 49.9905447,25.6364526 49.9905447,25.6095483 L49.9905447,24.0851765 C49.9905447,24.0582722 49.9680705,24.0362596 49.9408102,24.0362596 L49.9408102,24.0362596 Z M9.21140544,15.9260472 L7.65007621,15.9260472 C7.64737099,15.9260472 7.64570624,15.9282892 7.64320911,15.9286969 C7.63550963,15.9295122 7.63009919,15.9325695 7.62344018,15.9368497 C7.62031877,15.9390917 7.61740545,15.9405185 7.61490832,15.9435758 C7.6124112,15.9462254 7.60845741,15.9468369 7.60658457,15.950098 L5.58183002,19.5638314 L3.55728356,15.950098 C3.55478644,15.9458178 3.55000027,15.9447987 3.54646268,15.9417414 C3.54521411,15.9401108 3.54354936,15.9394993 3.5420927,15.9380726 C3.53480941,15.9329771 3.52815041,15.929716 3.51941046,15.9289007 C3.51670524,15.9284931 3.51504048,15.9260472 3.51233526,15.9260472 L1.95079794,15.9260472 C1.92478619,15.9260472 1.90356061,15.9468369 1.90356061,15.9723144 L1.90356061,25.6119941 C1.90356061,25.6376755 1.92478619,25.6584652 1.95079794,25.6584652 L3.51233526,25.6584652 C3.53834701,25.6584652 3.5595726,25.6376755 3.5595726,25.6119941 L3.5595726,19.3259732 L4.63729139,21.2498327 L5.58183002,22.9356302 L6.52636865,21.2498327 L7.60263078,19.3288266 L7.60263078,25.6119941 C7.60263078,25.6376755 7.62406446,25.6584652 7.65007621,25.6584652 L9.21140544,25.6584652 C9.23741718,25.6584652 9.25885087,25.6376755 9.25885087,25.6119941 L9.25885087,15.9723144 C9.25885087,15.9468369 9.23741718,15.9260472 9.21140544,15.9260472 L9.21140544,15.9260472 Z M29.3530311,15.9260472 L23.6468857,15.9260472 C23.6196254,15.9260472 23.5971512,15.9480598 23.5971512,15.9747603 L23.5971512,17.4993359 C23.5971512,17.5262402 23.6196254,17.5480489 23.6468857,17.5480489 L25.6718483,17.5480489 L25.6718483,25.6095483 C25.6718483,25.6364526 25.6943225,25.6584652 25.7217909,25.6584652 L27.278334,25.6584652 C27.3055943,25.6584652 27.3280684,25.6364526 27.3280684,25.6095483 L27.3280684,17.5480489 L29.3530311,17.5480489 C29.3804995,17.5480489 29.4027655,17.5262402 29.4027655,17.4993359 L29.4027655,15.9747603 C29.4027655,15.9480598 29.3804995,15.9260472 29.3530311,15.9260472 L29.3530311,15.9260472 Z M8.89156497,8.83004447 C8.89156497,9.00981395 9.11380935,9.19916298 9.56807854,9.19916298 C9.88708663,9.19916298 10.1191114,9.15187668 10.3317835,8.92461707 C10.0417005,8.68777792 9.75182553,8.51738417 9.40389238,8.51738417 C9.06553155,8.51738417 8.89156497,8.66902645 8.89156497,8.83004447 L8.89156497,8.83004447 Z M19.6369145,5.83837052 C18.8251398,5.83837052 17.984232,7.52355653 17.984232,8.39448055 C17.984232,8.70693702 18.090568,8.90566179 18.3321651,8.90566179 C18.593115,8.90566179 18.9410481,8.65007117 19.2117784,7.98745147 L19.492081,7.30567266 L19.9752753,6.14124745 C19.9463502,5.9708537 19.8304419,5.83837052 19.6369145,5.83837052 L19.6369145,5.83837052 Z M39.4863761,18.0989751 L34.4326054,18.0989751 C34.405137,18.0989751 34.3826629,18.1207839 34.3826629,18.1476882 L34.3826629,27.7824762 C34.3826629,27.8093805 34.405137,27.8313931 34.4326054,27.8313931 L39.4863761,27.8313931 C39.5136364,27.8313931 39.5361106,27.8093805 39.5361106,27.7824762 L39.5361106,26.2581044 C39.5361106,26.2312001 39.5136364,26.2091875 39.4863761,26.2091875 L36.038883,26.2091875 L36.038883,23.776185 L38.8980944,23.776185 C38.9255628,23.776185 38.9478289,23.7541724 38.9478289,23.7272681 L38.9478289,22.2028963 C38.9478289,22.175992 38.9255628,22.1541832 38.8980944,22.1541832 L36.038883,22.1541832 L36.038883,19.7209768 L39.4863761,19.7209768 C39.5136364,19.7209768 39.5361106,19.6989643 39.5361106,19.6722638 L39.5361106,18.1476882 C39.5361106,18.1207839 39.5136364,18.0989751 39.4863761,18.0989751 L39.4863761,18.0989751 Z" id="Fill-1" fill="#000000" mask="url(#mask-6)"></path>
                    </g>
                    <path d="M15.5323131,33.0645385 C15.5323131,33.048974 15.5441862,32.9244583 15.5006514,32.8427449 C15.4769051,32.7919443 15.4175394,32.7219042 15.2869349,32.7219042 C15.2592309,32.7219042 15.1838145,32.7260115 15.120711,32.7724887 C15.0057175,32.8505272 15.0217682,32.9709355 15.0217682,33.083994 L15.0217682,34.4735542 C15.0217682,34.5552676 15.0175906,34.6564365 15.0692607,34.7264766 C15.1284066,34.80819 15.2550533,34.80819 15.2790195,34.80819 C15.3027658,34.80819 15.3779623,34.8042989 15.4412857,34.7617128 C15.5362708,34.6953477 15.5323131,34.5863965 15.5323131,34.4852275 L15.5323131,33.0645385 Z M15.8885072,35.0224175 C15.7222833,35.1741709 15.4966937,35.2052998 15.2827573,35.2052998 C15.0771762,35.2052998 14.8674174,35.1778458 14.7009736,35.0457641 C14.6178617,34.979399 14.5782846,34.9134663 14.5624537,34.8743389 C14.5149612,34.7770611 14.5028682,34.6603277 14.5028682,34.5591587 L14.5028682,33.0178451 C14.5028682,32.9594784 14.4912149,32.6829931 14.6770075,32.5195663 C14.7801279,32.4300707 14.9740558,32.340575 15.2869349,32.340575 C15.6906216,32.340575 15.904338,32.5040018 15.98745,32.6637537 C16.0312047,32.7532493 16.0507734,32.8388538 16.0507734,33.0295184 L16.0507734,34.5591587 C16.0507734,34.734475 16.0230694,34.8940107 15.8885072,35.0224175 L15.8885072,35.0224175 Z" id="Fill-4" fill="#000000"></path>
                    <path d="M17.5627074,33.0839508 C17.5627074,33.0061285 17.5745805,32.9244151 17.5229104,32.8621573 C17.4637646,32.7882261 17.3527287,32.8037906 17.3329402,32.8037906 L17.0796466,32.8037906 L17.0796466,33.6094674 L17.3292023,33.6094674 C17.4360606,33.6094674 17.4952064,33.597794 17.5270879,33.5549918 C17.5627074,33.5082984 17.5627074,33.4188028 17.5627074,33.3643272 L17.5627074,33.0839508 Z M17.9703517,33.8662809 C17.8872398,33.9674499 17.7685084,34.0024699 17.5149949,34.0024699 L17.0796466,34.0024699 L17.0796466,35.1468899 L16.5609664,35.1468899 L16.5609664,32.3988985 L17.5981069,32.3988985 C17.6139377,32.3988985 17.6814387,32.3988985 17.7368467,32.4105718 C17.9030706,32.4455919 17.9822248,32.550652 18.0099288,32.6051276 C18.0695144,32.721861 18.0695144,32.8971773 18.0695144,33.0178018 L18.0695144,33.3796755 C18.0695144,33.6367052 18.0574214,33.7612208 17.9703517,33.8662809 L17.9703517,33.8662809 Z" id="Fill-6" fill="#000000"></path>
                    <polygon id="Fill-8" fill="#000000" points="18.5122065 35.1468899 18.5122065 32.3988985 19.8659639 32.3988985 19.8659639 32.8154639 19.0269289 32.8154639 19.0269289 33.461605 19.8184714 33.461605 19.8184714 33.8779543 19.0269289 33.8779543 19.0269289 34.7225422 19.9057609 34.7225422 19.9057609 35.1468899"></polygon>
                    <polygon id="Fill-10" fill="#000000" points="21.2352664 35.1468899 20.7403325 33.0880581 20.7838673 35.1468899 20.3010264 35.1468899 20.3010264 32.3988985 20.9621842 32.3988985 21.4648137 34.4151442 21.4135833 32.3988985 21.884551 32.3988985 21.884551 35.1468899"></polygon>
                    <path d="M24.6626231,33.1230133 C24.5874266,33.255095 24.4370335,33.5588181 24.3222599,33.9479295 C24.2747673,34.1037902 24.1243742,34.6176335 24.1281121,35.146825 L23.6333981,35.146825 C23.6373558,34.9872893 23.6531866,34.8472092 23.7244254,34.5357039 C23.8748185,33.8819967 24.1243742,33.352589 24.2351902,33.1383615 C24.2708096,33.0683215 24.3101668,33.0060637 24.3460061,32.9399147 L23.7283832,32.9399147 L23.7283832,33.2436378 L23.3444851,33.2436378 L23.3444851,32.5585855 L24.7657435,32.5585855 L24.7657435,32.9438058 C24.7301241,33.0021725 24.6945047,33.0605393 24.6626231,33.1230133" id="Fill-12" fill="#000000"></path>
                    <path d="M25.0540628,35.1468899 L25.0540628,35.084632 C25.0540628,34.8511652 25.0817668,34.6486111 25.188625,34.4307087 C25.2915255,34.2242634 25.4302653,34.0960728 25.5964893,33.936321 C25.6358465,33.897626 25.6796012,33.8584987 25.7191783,33.8156964 C25.7943749,33.7417653 25.8816644,33.663943 25.9249794,33.566449 C25.9529032,33.5082984 25.9566411,33.4538228 25.9566411,33.391565 L25.9566411,33.0956241 C25.9566411,33.021693 25.9449878,32.9516529 25.88936,32.9049595 C25.8418674,32.8699395 25.7825017,32.8699395 25.7627132,32.8699395 C25.75084,32.8699395 25.6914743,32.8699395 25.6479395,32.8893951 C25.5529544,32.9358723 25.5410813,33.0294752 25.5410813,33.1189708 L25.5410813,33.426585 L25.1094708,33.426585 L25.1094708,33.1111886 C25.1094708,32.955544 25.1292594,32.8271372 25.2361176,32.7065127 C25.4104768,32.5197392 25.6796012,32.5233965 25.7468823,32.5233965 C25.8022903,32.5233965 26.2259854,32.5156319 26.3605476,32.8271372 C26.4001247,32.9244151 26.4119978,33.0644952 26.4119978,33.0839508 L26.4119978,33.426585 C26.4119978,33.5586667 26.4001247,33.6055763 26.3763784,33.6717252 C26.3249282,33.8273698 26.1547465,33.9907966 25.8933177,34.2439352 C25.7825017,34.3528864 25.6358465,34.4812932 25.5846161,34.6371539 C25.572743,34.67974 25.5687853,34.6875222 25.5648276,34.7575623 L26.4397018,34.7575623 L26.4397018,35.1468899 L25.0540628,35.1468899 Z" id="Fill-14" fill="#000000"></path>
                    <polygon id="Fill-16" fill="#000000" points="28.9052685 35.1468899 28.9052685 33.8898438 28.4340809 33.8898438 28.4340809 35.1468899 27.9195783 35.1468899 27.9195783 32.3988985 28.4340809 32.3988985 28.4340809 33.4769533 28.9052685 33.4769533 28.9052685 32.3988985 29.419991 32.3988985 29.419991 35.1468899"></polygon>
                    <path d="M30.9592772,33.0645385 C30.9592772,33.048974 30.9711503,32.9244583 30.9273956,32.8427449 C30.9038692,32.7919443 30.8445035,32.7219042 30.713899,32.7219042 C30.686195,32.7219042 30.6109985,32.7260115 30.5474552,32.7724887 C30.4326816,32.8505272 30.4487323,32.9709355 30.4487323,33.083994 L30.4487323,34.4735542 C30.4487323,34.5552676 30.4445547,34.6564365 30.4962249,34.7264766 C30.5553707,34.80819 30.6820175,34.80819 30.7059836,34.80819 C30.7297299,34.80819 30.8049264,34.8042989 30.8682498,34.7617128 C30.9632349,34.6953477 30.9592772,34.5863965 30.9592772,34.4852275 L30.9592772,33.0645385 Z M31.3154713,35.0224175 C31.1492474,35.1741709 30.9236578,35.2052998 30.7097214,35.2052998 C30.5041403,35.2052998 30.2941617,35.1778458 30.1279378,35.0457641 C30.0448258,34.979399 30.0052487,34.9134663 29.9894178,34.8743389 C29.9419253,34.7770611 29.9298323,34.6603277 29.9298323,34.5591587 L29.9298323,33.0178451 C29.9298323,32.9594784 29.918179,32.6829931 30.1041915,32.5195663 C30.207092,32.4300707 30.4010199,32.340575 30.713899,32.340575 C31.1178055,32.340575 31.3313021,32.5040018 31.4144141,32.6637537 C31.4581688,32.7532493 31.4777375,32.8388538 31.4777375,33.0295184 L31.4777375,34.5591587 C31.4777375,34.734475 31.4500335,34.8940107 31.3154713,35.0224175 L31.3154713,35.0224175 Z" id="Fill-18" fill="#000000"></path>
                    <path d="M33.3697218,34.967877 C33.1718362,35.2207994 32.7916759,35.2054511 32.7241749,35.2054511 C32.5185938,35.2054511 32.3046575,35.1624327 32.1542644,35.0067881 C32.1265604,34.9795503 32.0711524,34.9134014 32.035533,34.8197985 C31.9959559,34.7225206 31.9838629,34.6135694 31.9838629,34.5162916 L31.9838629,32.3988769 L32.4985854,32.3988769 L32.4985854,34.4423604 C32.4985854,34.5162916 32.4985854,34.5902227 32.5262893,34.6565879 C32.5777396,34.7694302 32.7083441,34.7733213 32.7402257,34.7733213 C32.7639719,34.7733213 32.831253,34.7733213 32.8906187,34.7303029 C32.9895615,34.6643701 32.9776884,34.5357471 32.9776884,34.4384693 L32.9776884,32.3988769 L33.4963686,32.3988769 L33.4963686,34.5279649 C33.4963686,34.6916079 33.4805377,34.8277969 33.3697218,34.967877" id="Fill-20" fill="#000000"></path>
                    <path d="M35.0434602,33.0178883 C35.0434602,32.8464631 34.9838747,32.7919875 34.8057776,32.7919875 L34.5366532,32.7919875 L34.5366532,33.5239493 L34.8057776,33.5239493 C34.9838747,33.5239493 35.0434602,33.4616915 35.0434602,33.2630285 L35.0434602,33.0178883 Z M35.1265722,35.1469763 L34.7305811,33.9286252 L34.5366532,33.9286252 L34.5366532,35.1469763 L34.0219308,35.1469763 L34.0219308,32.398985 L35.0513757,32.398985 C35.3917389,32.398985 35.5540051,32.5546295 35.5540051,32.8892654 L35.5540051,33.3875442 C35.5540051,33.6601383 35.4708931,33.784654 35.225515,33.8585852 L35.6610832,35.1469763 L35.1265722,35.1469763 Z" id="Fill-22" fill="#000000"></path>
                    <path d="M37.5090929,34.7848433 C37.4457695,35.0066368 37.2597571,35.2052998 36.7846117,35.2052998 C36.5867261,35.2052998 36.3769674,35.1778458 36.2107435,35.0496553 C36.1197161,34.979399 36.0840967,34.905684 36.0643081,34.8626656 C36.0324265,34.7848433 36.0089001,34.734475 36.0089001,34.5786143 L36.0089001,34.1776133 L36.519445,34.1776133 L36.519445,34.4969009 C36.519445,34.5980698 36.5115296,34.7148033 36.6104724,34.7770611 C36.642354,34.7967328 36.6896266,34.8161884 36.7690007,34.8161884 C36.8600281,34.8161884 36.9112585,34.7967328 36.9468779,34.7653877 C37.0222943,34.7072372 37.0222943,34.5863965 37.0222943,34.399623 C37.0222943,34.364603 37.0302098,34.2398711 36.9666665,34.1467006 C36.9273092,34.0881177 36.8679436,34.0530977 36.8479351,34.0375332 L36.3611365,33.7145707 C36.2542783,33.6445307 36.1988703,33.6015122 36.1276315,33.4888861 C36.068046,33.3916082 36.0286887,33.286332 36.0286887,33.0528651 C36.0286887,33.013954 36.0245111,32.8191821 36.0957499,32.6752109 C36.2542783,32.340575 36.7333813,32.340575 36.7887893,32.340575 C36.8719013,32.340575 37.3191227,32.340575 37.465778,32.7024487 C37.4934819,32.7724887 37.5090929,32.7997265 37.5090929,32.9322406 L37.5090929,33.2046186 L36.9945903,33.2046186 L36.9945903,32.9244583 C36.9945903,32.8427449 36.9629286,32.7260115 36.7648232,32.7260115 C36.6460918,32.7260115 36.5352759,32.7688138 36.5352759,32.9983895 C36.5352759,33.0100629 36.5273604,33.1734897 36.5906838,33.2629853 C36.6067345,33.286332 36.642354,33.3135698 36.6977619,33.3524809 L37.1964337,33.6910079 C37.2320531,33.7145707 37.342869,33.7962841 37.425981,33.9052353 C37.5488899,34.064771 37.5370168,34.1856117 37.5370168,34.3801674 C37.5370168,34.5902876 37.5370168,34.6797832 37.5090929,34.7848433" id="Fill-24" fill="#000000"></path>
                    <path d="M30.7025976,44.9130679 L30.5579212,44.8858301 L30.7267836,44.4214904 L30.7025976,44.9130679 Z M30.3481625,45.0038605 L30.8510118,45.0985443 L30.9088383,43.9197529 L30.7527286,43.8903533 L30.3481625,45.0038605 Z" id="Fill-26" fill="#000000"></path>
                    <path d="M34.1751382,45.5664724 L34.0304618,45.5392346 L34.1993242,45.0751112 L34.1751382,45.5664724 Z M33.8207031,45.6574813 L34.3235524,45.7519489 L34.381379,44.5731574 L34.2252692,44.5437579 L33.8207031,45.6574813 Z" id="Fill-28" fill="#000000"></path>
                    <path d="M39.6027007,45.6999973 L39.4665993,46.3833202 L39.1427266,46.3223594 L39.2779484,45.6273631 L39.1174412,43.8865218 L39.4443922,43.9481311 L39.4573647,45.1770747 L39.6150135,45.2066904 L40.0782857,44.0674586 L40.4054566,44.129068 L39.6027007,45.6999973 Z M38.0534762,43.840477 C37.7603857,43.7853529 37.7111341,44.0384915 37.6926648,44.1336076 L37.4323353,45.4706377 C37.4132064,45.5689964 37.3626356,45.8297011 37.6700179,45.8874193 C37.9741021,45.9447051 38.0189562,45.7136162 38.048639,45.560998 L38.0972309,45.3117505 L38.4030741,45.3692525 L38.3489854,45.6468187 C38.3318353,45.7350173 38.309848,45.8355377 38.2643343,45.9131438 C38.1220766,46.15569 37.7814935,46.1211023 37.6361575,46.0938645 C37.635278,46.0936483 37.6343985,46.0934321 37.6337389,46.0934321 C37.5387538,46.0754898 37.448386,46.0430638 37.4118871,46.0274994 C37.2245554,45.9540005 37.1192363,45.8489405 37.0899932,45.7079957 C37.0743822,45.623472 37.0877945,45.5545128 37.1047247,45.4676113 L37.3690119,44.1093962 C37.3769273,44.069188 37.3888005,44.0259534 37.4008935,43.9831512 C37.4382719,43.8298845 37.5004959,43.7425506 37.616149,43.6822383 C37.7098149,43.6340317 37.842838,43.591878 38.1181189,43.6437595 C38.3083089,43.6794281 38.4393532,43.7371463 38.5297209,43.8244802 C38.5811712,43.875497 38.6174502,43.9381872 38.6319618,44.0036876 C38.6515305,44.0765379 38.6473529,44.1145844 38.6189893,44.2605011 L38.5594038,44.566386 L38.2535606,44.5088839 L38.2999537,44.2700128 C38.3346937,44.0912377 38.3472264,43.8958173 38.0534762,43.840477 L38.0534762,43.840477 Z M36.3967339,45.8057059 L35.9453349,45.7207499 L35.8635422,43.8519341 L35.7052337,43.8221023 L35.3952129,45.617203 L35.1124563,45.5640244 L35.5689125,43.2189796 L36.0315251,43.3058811 L36.1278294,45.1446488 L36.2845988,45.1742645 L36.5816471,43.409428 L36.85341,43.460661 L36.3967339,45.8057059 Z M34.2881529,45.4090284 L34.3059626,44.9907336 L33.7422085,44.8845926 L33.5946737,45.2784599 L33.2864119,45.2203093 L34.2057005,42.9623822 L34.6140045,43.0393398 L34.6032307,45.4682598 L34.2881529,45.4090284 Z M32.9511058,44.6312379 C32.9339557,44.7192203 32.9119684,44.8197407 32.8664547,44.8973468 C32.7241969,45.1401091 32.3836138,45.1055215 32.238058,45.0780675 C32.2373983,45.0778513 32.2365188,45.0778513 32.2358592,45.0776351 C32.1408741,45.0596928 32.0505064,45.0272668 32.0140075,45.0119185 C31.8266758,44.9384197 31.7213566,44.8331435 31.6918937,44.6921987 C31.6765026,44.607675 31.6899148,44.5387158 31.7066252,44.4518143 L31.9711323,43.0938154 C31.9790477,43.0536072 31.9909208,43.0101564 32.0030138,42.9675703 C32.0403922,42.8140875 32.1026163,42.7269698 32.2180495,42.6664413 C32.3117154,42.6184509 32.4447385,42.576081 32.7202392,42.6279625 C32.9104293,42.6638473 33.0412537,42.7213493 33.1318413,42.8086832 C33.1832915,42.8599162 33.2193507,42.9223902 33.2340822,42.9878906 C33.2536509,43.0609571 33.2492534,43.0990035 33.2208898,43.2447041 L33.1615241,43.550589 L32.8556809,43.4930869 L32.9020741,43.2544319 C32.936814,43.0754407 32.9493468,42.8800203 32.6555966,42.8248962 C32.362506,42.769772 32.3132545,43.0226945 32.2947852,43.1180268 L32.0344557,44.4550569 C32.0153267,44.5531994 31.9645361,44.8139041 32.2721383,44.8718384 C32.5760026,44.9289081 32.6210765,44.6980353 32.6507594,44.5454172 L32.6993513,44.2959535 L33.0051945,44.3534555 L32.9511058,44.6312379 Z M30.8157002,44.7555373 L30.8335099,44.3372426 L30.2697558,44.2313178 L30.1222211,44.6249688 L29.8137394,44.5670345 L30.733028,42.3088912 L31.1413319,42.3858488 L31.130778,44.8147688 L30.8157002,44.7555373 Z M28.9898756,44.4120384 L28.6462143,44.3474027 L28.6297238,41.9130784 L28.9652499,41.9764171 L28.8955502,43.5966338 L29.0516599,43.6260333 L29.5778158,42.0916373 L29.895752,42.1515172 L28.9898756,44.4120384 Z M26.6695569,43.8411255 C26.5440095,43.9180831 26.38746,43.9334314 26.1623102,43.8910615 C26.0187332,43.864256 25.8388771,43.8158333 25.7225644,43.6802928 C25.6642981,43.6124144 25.6497864,43.556858 25.6458287,43.5363215 C25.6277992,43.4697403 25.6288985,43.3845681 25.6486871,43.2831829 L25.9136339,41.9212929 C25.9457354,41.7494354 26.0130165,41.6320535 26.1137183,41.5726059 C26.1680269,41.5410446 26.2777434,41.4982424 26.4573796,41.5058084 C26.4824451,41.5630943 26.5316966,41.6089229 26.598538,41.621461 C26.6658191,41.6342152 26.7293624,41.6089229 26.7739966,41.5641751 C27.0319075,41.6517252 27.1068841,41.8030463 27.1268926,41.8700599 C27.1460215,41.9416132 27.1499792,42.0073298 27.1187573,42.1681625 L26.8573284,43.510597 C26.8243475,43.6800766 26.769819,43.7760574 26.6695569,43.8411255 L26.6695569,43.8411255 Z M39.9806622,43.8914938 L39.6106161,44.8005013 L39.6005019,43.8199405 L38.9415429,43.6958572 L38.9417627,43.6969381 L38.7992851,44.0480031 C38.7968665,44.0220623 38.7926889,43.9961215 38.7849934,43.9673705 C38.7645452,43.8752808 38.7148539,43.7883793 38.6407567,43.7148805 C38.4905836,43.5696122 38.287421,43.5179468 38.1478017,43.4915737 C37.8907703,43.4433671 37.7100348,43.459364 37.5427115,43.5454008 C37.3863819,43.6271142 37.2955744,43.7511975 37.2485216,43.9446724 C37.2362087,43.9885555 37.2230163,44.0358974 37.2144413,44.080429 L37.0682258,44.8314141 L37.0365641,43.3421982 L37.0374436,43.3376585 L36.4528015,43.2276265 L36.2485396,44.4410056 L36.1825777,43.1768258 L35.4440247,43.0378266 L35.4405067,43.0555528 L34.761979,45.1437841 L34.7718732,42.9113654 L34.1078571,42.7864174 L33.2151731,44.9790602 L33.189448,44.2326148 L33.1890082,44.2326148 L33.189448,44.2304531 L32.5742436,44.1148005 L32.4961887,44.5162338 C32.4572712,44.7153292 32.4302269,44.743864 32.3018211,44.7196526 C32.1958424,44.6997647 32.1547261,44.6610697 32.1890263,44.484024 L32.4493558,43.1469939 C32.4823367,42.9779466 32.5282902,42.9584911 32.6259137,42.9768658 C32.7637741,43.0028065 32.7831229,43.04215 32.7475035,43.2252486 L32.6714274,43.6160894 L33.2864119,43.7317419 L33.3756803,43.2738875 C33.4060228,43.1171621 33.4141581,43.0529587 33.3871137,42.9515735 C33.3666655,42.8597 33.3167544,42.7725823 33.2428771,42.6990835 C33.0927039,42.5538152 32.8895414,42.5021498 32.7497022,42.4759929 C32.4928906,42.4275702 32.3119353,42.4437831 32.1448318,42.5296038 C32.0203838,42.5946719 31.9388109,42.6882748 31.8864812,42.8205727 L31.8845023,42.8199242 L31.2893064,44.5216381 L31.2992007,42.2578743 L30.6354044,42.1329263 L29.8330882,44.1035595 L30.1105678,42.037594 L30.111887,42.0345676 L29.4729364,41.9141592 L29.0754062,43.0719819 L29.1281757,41.8493073 L28.4709756,41.7256564 L28.4709756,41.7282504 L27.0270703,43.4336394 L27.268051,42.196265 C27.3005922,42.0291633 27.3019114,41.9370736 27.2731081,41.8300679 C27.2460637,41.7384106 27.1490997,41.5356403 26.8291847,41.4249597 C26.8263263,41.3361126 26.7652017,41.2574256 26.672855,41.2399156 C26.5851258,41.2234865 26.5026734,41.2684504 26.4633162,41.3423816 L25.6675962,41.1925737 C25.5442475,41.1694432 25.4246366,41.2494272 25.4008903,41.3707003 L24.9925864,43.4688756 L24.2045619,40.9649435 L24.0455938,40.9348955 L23.6080467,43.1826625 C23.5321906,43.1982269 23.4697467,43.2568098 23.4543556,43.3359292 C23.4339074,43.4414216 23.5040468,43.5430229 23.6111249,43.5633432 C23.7184229,43.5834473 23.8217632,43.5144881 23.8422114,43.4089956 C23.8578223,43.3298763 23.8217632,43.2527025 23.7573404,43.210765 L24.1375007,41.2569933 L24.925745,43.76179 L25.0844932,43.7916219 L25.550184,41.3988028 C25.5580995,41.3583784 25.5978964,41.331573 25.6390127,41.3393552 L26.0787585,41.4221495 C26.0624879,41.4297155 26.0479763,41.4372816 26.0358833,41.4441991 C25.8958242,41.5269934 25.8043571,41.6783145 25.7625812,41.9024859 L25.4993934,43.2550805 C25.4747676,43.3804608 25.4747676,43.4848724 25.4976344,43.569396 C25.50533,43.6085233 25.529516,43.6869941 25.6066914,43.7767059 C25.7535665,43.947915 25.9655239,44.0062817 26.1337267,44.0380591 C26.2988512,44.0689719 26.5424704,44.095345 26.7509099,43.9673705 L26.752449,43.9662897 C26.8135737,43.92673 26.8560092,43.8789558 26.8914087,43.8285875 L26.8944869,43.8324786 L28.4727346,41.9684187 L28.4896648,44.4753771 L29.0885986,44.5882194 L29.8720057,42.6331507 L29.596505,44.6824709 L29.5973845,44.6824709 L29.5967248,44.6837679 L30.2238023,44.8017984 L30.3713371,44.4079311 L30.6705841,44.4643523 L30.6527744,44.8824309 L31.2873275,45.0017584 L31.2873275,45.0017584 L31.2877673,45.0019746 L31.6298895,44.0235755 L31.5520545,44.4228471 C31.5335852,44.5175309 31.5162152,44.6065941 31.5375429,44.721382 C31.5777796,44.9165862 31.7184983,45.062503 31.9535424,45.1545927 C31.9961978,45.1727513 32.097779,45.2092845 32.2092546,45.2302533 C32.2101341,45.2304695 32.2107937,45.2304695 32.2116732,45.2306856 C32.3873517,45.2637601 32.8101672,45.3031036 33.0027759,44.9747368 C33.0238837,44.9386359 33.0397145,44.8999409 33.0535665,44.8608136 L33.0698371,45.3357457 L33.0693974,45.3372589 L33.696255,45.4550732 L33.8437897,45.0614222 L34.1430367,45.1176271 L34.125227,45.5359219 L34.7597802,45.6552494 L34.7597802,45.6533039 L34.7613193,45.6537362 L35.1938093,44.3229751 L34.9282029,45.6870269 L35.5231789,45.7990045 L35.7371153,44.5616302 L35.7934027,45.8498052 L36.5218416,45.9868588 L36.8947461,44.0717821 L36.9270674,45.6038003 L36.9272872,45.6038003 C36.9253084,45.6453055 36.9264078,45.6887563 36.9354225,45.737179 C36.9758792,45.9321671 37.1165978,46.0783 37.3514221,46.1701736 C37.394737,46.1885483 37.5015953,46.2313505 37.6097727,46.2464826 C37.7852313,46.2795571 38.2080469,46.3189006 38.4006555,45.9905338 C38.4582622,45.8919589 38.4842072,45.7765225 38.5035561,45.676002 L38.5873276,45.2462501 L37.9721233,45.1305975 L37.8940684,45.5320308 C37.8553707,45.7311262 37.8281065,45.759661 37.6997007,45.7354496 C37.593722,45.7155617 37.5526058,45.6766506 37.5871258,45.499821 L37.8472355,44.1627909 C37.8802164,43.9937436 37.9261698,43.9742881 38.0240133,43.9926628 C38.1616537,44.0186035 38.1810025,44.057947 38.1453831,44.2410456 L38.0693071,44.6316702 L38.6845114,44.7475389 L38.6849512,44.7442964 L38.6856108,44.7447287 L38.9736443,44.0356812 L39.121179,45.6089884 L38.9584731,46.4453618 L39.591707,46.5644731 L39.7482565,45.759661 L40.6396213,44.0155771 L39.9806622,43.8914938 Z" id="Fill-30" fill="#000000"></path>
                </g>
            </g>
        </g>
    </g>
</svg>