<?xml version="1.0" encoding="UTF-8"?>
<svg width="88px" height="59px" viewBox="0 0 88 59" version="1.1" xmlns="http://www.w3.org/2000/svg" xmlns:xlink="http://www.w3.org/1999/xlink">
    <title>Brand/Culture/CultureProject 2</title>
    <defs>
        <polygon id="path-1" points="0 2.48310975e-16 5.5918421 2.48310975e-16 5.5918421 11.2947172 0 11.2947172"></polygon>
        <polygon id="path-3" points="-5.17622906e-17 2.48310975e-16 10.2252087 2.48310975e-16 10.2252087 11.2947172 -5.17622906e-17 11.2947172"></polygon>
        <polygon id="path-5" points="0 0 8.78736827 0 8.78736827 11.2949742 0 11.2949742"></polygon>
        <polygon id="path-7" points="3.10573744e-16 2.48310975e-16 11.1837691 2.48310975e-16 11.1837691 11.2949742 3.10573744e-16 11.2949742"></polygon>
        <polygon id="path-9" points="3.62336034e-16 2.48310975e-16 10.2252087 2.48310975e-16 10.2252087 11.2947172 3.62336034e-16 11.2947172"></polygon>
        <polygon id="path-11" points="0 2.48310975e-16 8.78736825 2.48310975e-16 8.78736825 11.2945887 0 11.2945887"></polygon>
        <polygon id="path-13" points="2.58811453e-17 2.48310975e-16 5.5918421 2.48310975e-16 5.5918421 11.2947172 2.58811453e-17 11.2947172"></polygon>
        <polygon id="path-15" points="0 1.04551989e-16 12.2414937 1.04551989e-16 12.2414937 24.7257068 0 24.7257068"></polygon>
        <polygon id="path-17" points="8.2819665e-16 -4.96621951e-16 22.3840796 -4.96621951e-16 22.3840796 24.7256638 8.2819665e-16 24.7256638"></polygon>
        <polygon id="path-19" points="-1.03524581e-16 1.04551989e-16 12.241112 1.04551989e-16 12.241112 24.7257068 -1.03524581e-16 24.7257068"></polygon>
    </defs>
    <g id="Page-1" stroke="none" stroke-width="1" fill="none" fill-rule="evenodd">
        <g id="PCCUL000100_컬처서브메인" transform="translate(-1068.000000, -2882.000000)">
            <g id="Brand/Culture/CultureProject" transform="translate(1068.000000, 2882.000000)">
                <rect id="Rectangle" fill="#FFFFFF" x="0" y="0" width="88" height="59"></rect>
                <g id="fm_b" transform="translate(10.388889, 9.833333)">
                    <path d="M27.6716424,21.5463568 L27.6716424,25.1620679 C27.6716424,28.3562816 25.0987987,30.9546589 21.9359738,30.9546589 C18.7735731,30.9546589 16.2003053,28.3562816 16.2003053,25.1620679 L16.2003053,21.5463568 L14.1563663,21.5463568 L14.1563663,25.1620679 C14.1563663,29.1504443 17.1016064,32.4371818 20.9137923,32.9430643 L20.9137923,37.2694098 L17.2967116,37.2694098 L17.2967116,39.3332051 L26.5769326,39.3332051 L26.5769326,37.2694098 L22.9577312,37.2694098 L22.9577312,32.9430643 C26.7703413,32.4371818 29.7155814,29.1504443 29.7155814,25.1620679 L29.7155814,21.5463568 L27.6716424,21.5463568 Z" id="Fill-1" fill="#000000" fill-rule="nonzero"></path>
                    <path d="M21.9256673,28.8630208 L21.9256673,28.8630208 C19.9105699,28.8630208 18.2772001,27.2134409 18.2772001,25.1783452 L18.2772001,16.8023691 C18.2772001,14.7672733 19.9105699,13.1172652 21.9256673,13.1172652 C23.9407646,13.1172652 25.5745585,14.7672733 25.5745585,16.8023691 L25.5745585,25.1783452 C25.5745585,27.2134409 23.9407646,28.8630208 21.9256673,28.8630208" id="Fill-3" fill="#000000" fill-rule="nonzero"></path>
                    <g id="Fill-5-Clipped">
                        <mask id="mask-2" fill="white">
                            <use xlink:href="#path-1"></use>
                        </mask>
                        <g id="path-1"></g>
                        <polygon id="Fill-5" fill="#000000" fill-rule="nonzero" mask="url(#mask-2)" points="5.5918421 -4.28351033e-05 5.5918421 3.22715384 3.19544134 3.22715384 3.19544134 4.03373885 5.5918421 4.03373885 5.5918421 7.26093552 3.19544134 7.26093552 3.19544134 11.2947172 -4.24141726e-05 11.2947172 -4.24141726e-05 -4.28351033e-05"></polygon>
                    </g>
                    <g id="Fill-8-Clipped" transform="translate(5.328196, 0.000000)">
                        <mask id="mask-4" fill="white">
                            <use xlink:href="#path-3"></use>
                        </mask>
                        <g id="path-3"></g>
                        <path d="M5.16053239,4.45352286 L4.38562546,7.26093552 L5.89514586,7.26093552 L5.16053239,4.45352286 Z M3.49916924,10.4881322 L3.27522241,11.2870069 L-5.17622906e-17,11.2870069 L3.11574512,-4.28351033e-05 L7.26936505,-4.28351033e-05 L10.2252087,11.2947172 L6.94998633,11.2947172 L6.74215689,10.4881322 L3.49916924,10.4881322 Z" id="Fill-8" fill="#000000" fill-rule="nonzero" mask="url(#mask-4)"></path>
                    </g>
                    <g id="Fill-11-Clipped" transform="translate(16.032685, 0.000000)">
                        <mask id="mask-6" fill="white">
                            <use xlink:href="#path-5"></use>
                        </mask>
                        <g id="path-5"></g>
                        <polygon id="Fill-11" fill="#000000" fill-rule="nonzero" mask="url(#mask-6)" points="3.19548377 5.6475942 3.19548377 11.2949742 0 11.2949742 0 -0.000214175516 3.19548377 -0.000214175516 5.59188452 5.6475942 5.59188452 -0.000214175516 8.78736827 -0.000214175516 8.78736827 11.2949742 5.59188452 11.2949742"></polygon>
                    </g>
                    <g id="Fill-14-Clipped" transform="translate(29.676900, 0.000000)">
                        <mask id="mask-8" fill="white">
                            <use xlink:href="#path-7"></use>
                        </mask>
                        <g id="path-7"></g>
                        <polygon id="Fill-14" fill="#000000" fill-rule="nonzero" mask="url(#mask-8)" points="3.19548377 5.6475942 3.19548377 11.2949742 3.10573744e-16 11.2949742 3.10573744e-16 -0.000214175516 3.19548377 -0.000214175516 5.59188452 5.6475942 7.98870939 -0.000214175516 11.1837691 -0.000214175516 11.1837691 11.2949742 7.98870939 11.2949742 7.98870939 5.6475942 5.59188452 11.2949742"></polygon>
                    </g>
                    <g id="Fill-17-Clipped" transform="translate(41.340076, 0.000000)">
                        <mask id="mask-10" fill="white">
                            <use xlink:href="#path-9"></use>
                        </mask>
                        <g id="path-9"></g>
                        <path d="M5.16053239,4.45352286 L4.38562546,7.26093552 L5.89514586,7.26093552 L5.16053239,4.45352286 Z M3.49916924,10.4881322 L3.27522241,11.2870069 L3.62336034e-16,11.2870069 L3.11532098,-4.28351033e-05 L7.26936505,-4.28351033e-05 L10.2252087,11.2947172 L6.94998634,11.2947172 L6.74215689,10.4881322 L3.49916924,10.4881322 Z" id="Fill-17" fill="#000000" fill-rule="nonzero" mask="url(#mask-10)"></path>
                    </g>
                    <g id="Fill-20-Clipped" transform="translate(52.044353, 0.000000)">
                        <mask id="mask-12" fill="white">
                            <use xlink:href="#path-11"></use>
                        </mask>
                        <g id="path-11"></g>
                        <path d="M3.19548377,3.22702535 L3.19548377,8.06782037 C3.85587244,8.06782037 4.42040508,7.8313706 4.88908168,7.35761436 C5.35733415,6.88471482 5.59188452,6.3145796 5.59188452,5.64763704 C5.59188452,4.97512591 5.35733415,4.40370564 4.88908168,3.93294785 C4.42040508,3.46219007 3.85587244,3.22702535 3.19548377,3.22702535 M3.19548377,11.2945887 L0,11.2945887 L0,-0.000171340414 L3.19548377,-0.000171340414 C4.73978379,-0.000171340414 6.05801628,0.55111644 7.14975709,1.65412035 C8.24149785,2.75669591 8.78736825,4.08801092 8.78736825,5.64763704 C8.78736825,7.20726315 8.24149785,8.53857812 7.14975709,9.64072529 C6.05801628,10.7433009 4.73978379,11.2945887 3.19548377,11.2945887" id="Fill-20" fill="#000000" fill-rule="nonzero" mask="url(#mask-12)"></path>
                    </g>
                    <g id="Fill-23-Clipped" transform="translate(61.630380, 0.000000)">
                        <mask id="mask-14" fill="white">
                            <use xlink:href="#path-13"></use>
                        </mask>
                        <g id="path-13"></g>
                        <polygon id="Fill-23" fill="#000000" fill-rule="nonzero" mask="url(#mask-14)" points="5.59188452 -4.28351033e-05 5.59188452 3.22715384 3.19548377 3.22715384 3.19548377 4.03373885 5.59188452 4.03373885 5.59188452 7.26093552 3.19548377 7.26093552 3.19548377 8.06752053 5.59188452 8.06752053 5.59188452 11.2947172 2.58811453e-17 11.2947172 2.58811453e-17 -4.28351033e-05"></polygon>
                    </g>
                    <g id="Fill-26-Clipped" transform="translate(0.000000, 14.607584)">
                        <mask id="mask-16" fill="white">
                            <use xlink:href="#path-15"></use>
                        </mask>
                        <g id="path-15"></g>
                        <polygon id="Fill-26" fill="#000000" fill-rule="nonzero" mask="url(#mask-16)" points="-8.48283453e-05 1.04551989e-16 6.99528466 1.04551989e-16 6.99528466 17.6609131 12.2414937 17.6609131 12.2414937 24.7257068 -8.48283453e-05 24.7257068"></polygon>
                    </g>
                    <g id="Fill-29-Clipped" transform="translate(31.368632, 14.607669)">
                        <mask id="mask-18" fill="white">
                            <use xlink:href="#path-17"></use>
                        </mask>
                        <g id="path-17"></g>
                        <polygon id="Fill-29" fill="#000000" fill-rule="nonzero" mask="url(#mask-18)" points="6.82019896 24.7257066 8.2819665e-16 0.0175623924 7.17011588 0.0175623924 11.2970149 14.9768654 15.2143879 -4.96621951e-16 22.3840796 -4.96621951e-16 15.9137976 24.7257066"></polygon>
                    </g>
                    <g id="Fill-32-Clipped" transform="translate(54.981110, 14.607584)">
                        <mask id="mask-20" fill="white">
                            <use xlink:href="#path-19"></use>
                        </mask>
                        <g id="path-19"></g>
                        <polygon id="Fill-32" fill="#000000" fill-rule="nonzero" mask="url(#mask-20)" points="12.2411543 1.04551989e-16 12.2411543 7.06436524 6.99494535 7.06436524 6.99494535 8.83045658 12.2411543 8.83045658 12.2411543 15.8952501 6.99494535 15.8952501 6.99494535 17.6609131 12.2411543 17.6609131 12.2411543 24.7257068 -1.03524581e-16 24.7257068 -1.03524581e-16 1.04551989e-16"></polygon>
                    </g>
                </g>
            </g>
        </g>
    </g>
</svg>