<?xml version="1.0" encoding="UTF-8"?>
<svg width="24px" height="16px" viewBox="0 0 24 16" version="1.1" xmlns="http://www.w3.org/2000/svg" xmlns:xlink="http://www.w3.org/1999/xlink">
    <title>ico_applepay_s</title>
    <g id="아코디언-수정-버전" stroke="none" stroke-width="1" fill="none" fill-rule="evenodd">
        <g id="webtop-copy" transform="translate(-1292.000000, -175.000000)">
            <g id="ico_applepay_s" transform="translate(1292.000000, 175.000000)">
                <rect id="Rectangle" stroke="#000000" stroke-width="0.710059172" fill="#FFFFFF" x="0.355029586" y="0.355029586" width="23.2899408" height="15.2899408" rx="2.8"></rect>
                <path d="M17.5758563,6.37328781 L18.5496092,9.76666317 L18.5641535,9.76666317 L19.5379078,6.37328781 L20.3724332,6.37328781 L18.9124667,10.8151092 L18.9124667,10.8151092 L18.8767381,10.9182269 C18.8647435,10.9517438 18.8526584,10.9844105 18.8404661,11.0162434 L18.8035507,11.1092575 C18.4991758,11.8487138 18.1204329,12.097577 17.4222254,12.097577 L17.3748203,12.0968127 L17.3748203,12.0968127 L17.3110559,12.0946171 L17.3110559,12.0946171 L17.2407043,12.0911366 C17.1820479,12.0877413 17.1267091,12.0831598 17.1001363,12.0777728 L17.1001363,11.3840198 C17.1293656,11.3919341 17.1769165,11.3958913 17.2254029,11.3978699 L17.2966609,11.3996011 L17.2966609,11.3996011 L17.3562826,11.3998484 L17.3562826,11.3998484 C17.7222876,11.3998484 17.9199752,11.2333861 18.0407058,10.8052678 L18.0440885,10.7905407 L18.0440885,10.7905407 L18.1103196,10.547586 L18.1103196,10.547586 L16.7194448,6.37328781 L17.5758563,6.37328781 Z M14.8548269,6.29797094 C15.7881954,6.29797094 16.3847883,6.83313884 16.3847883,7.66957423 L16.3847883,10.5436088 L15.6270805,10.5436088 L15.6270805,9.85780715 L15.6088652,9.85780715 C15.3856192,10.3216353 14.8987428,10.6149485 14.3936497,10.6149485 C13.6396114,10.6149485 13.1124914,10.1075362 13.1124914,9.35834761 C13.1124914,8.62888479 13.6285986,8.18096222 14.5437519,8.12544961 L15.5978511,8.05808554 L15.5978511,7.7370153 C15.5978511,7.27318712 15.3086622,6.99570104 14.8255975,6.99570104 C14.3679505,6.99570104 14.0824325,7.23350311 14.0129596,7.60618581 L13.2662631,7.60618581 C13.310179,6.85294309 13.903101,6.29797094 14.8548269,6.29797094 Z M6.9999258,5.88405443 L7.05401413,5.88609193 L7.12062064,5.89271878 L7.12062064,5.89271878 L7.16100342,5.89799216 L7.16100342,5.89799216 L7.20552885,5.90504085 C7.21327094,5.9063831 7.2211676,5.90781397 7.22920983,5.90934077 L7.27913779,5.91971147 L7.27913779,5.91971147 L7.33212648,5.93273622 L7.33212648,5.93273622 L7.38774312,5.94876651 L7.38774312,5.94876651 L7.44555493,5.96815384 C7.66102714,6.04582489 7.91204117,6.19828478 8.10259365,6.50350729 L8.05249981,6.53998354 L8.05249981,6.53998354 L8.0122744,6.57153208 L8.0122744,6.57153208 L7.98075299,6.59795059 L7.98075299,6.59795059 L7.94619029,6.62871575 L7.94619029,6.62871575 L7.90920538,6.66385991 C7.72558876,6.844358 7.47878826,7.1794367 7.48336873,7.68552967 C7.48758352,8.25180876 7.76369956,8.59020757 7.9834026,8.77114811 L8.02385568,8.80324644 L8.02385568,8.80324644 L8.06250565,8.8317575 L8.06250565,8.8317575 L8.09887158,8.85678444 L8.09887158,8.85678444 L8.13247254,8.87843043 L8.13247254,8.87843043 L8.17663763,8.90478578 L8.17663763,8.90478578 L8.22960813,8.93326796 L8.22960813,8.93326796 L8.25026855,8.94384283 L8.25026855,8.94384283 L8.22575423,9.02504825 L8.22575423,9.02504825 L8.19805538,9.10788079 L8.19805538,9.10788079 L8.1800799,9.15807117 L8.1800799,9.15807117 L8.15925252,9.21343158 L8.15925252,9.21343158 L8.13549733,9.2734525 L8.13549733,9.2734525 L8.10873845,9.33762438 L8.10873845,9.33762438 L8.07889997,9.40543772 C8.07366604,9.41701509 8.06830063,9.42872295 8.06280216,9.4405507 L8.02820198,9.51287083 L8.02820198,9.51287083 L7.99033246,9.58755859 C7.95739123,9.65064336 7.92096537,9.71566364 7.88085724,9.78129254 L7.78655715,9.93093109 L7.78655715,9.93093109 L7.73942978,10.0031912 L7.73942978,10.0031912 L7.69155847,10.0738134 C7.49828329,10.3522567 7.28171662,10.5775388 6.9766138,10.5834468 C6.82790998,10.5864312 6.71798643,10.5496994 6.61313594,10.5038767 L6.47338233,10.4400813 C6.35449419,10.3869102 6.22337403,10.3393196 6.03378424,10.3393196 C5.82508211,10.3393196 5.68400844,10.3934145 5.55434,10.4515303 L5.44965209,10.4989611 C5.34522812,10.5452575 5.23817441,10.5851036 5.09769703,10.5910735 C4.80984889,10.6024918 4.57457126,10.3644464 4.37338226,10.0826718 L4.32574194,10.0143116 C4.31790781,10.0028134 4.31012586,9.99127159 4.30239491,9.9796993 L4.25661164,9.91000534 L4.25661164,9.91000534 L4.19010723,9.80547595 C3.69740025,9.03520725 3.32444238,7.63231366 3.83110947,6.68655321 C4.07744344,6.21378926 4.52786438,5.9165412 5.01329225,5.90881941 C5.19977118,5.90512008 5.37921708,5.97189641 5.54020641,6.03959757 L5.67980509,6.09890044 C5.78402618,6.14229798 5.87752428,6.17592471 5.95638113,6.17592471 C6.01700683,6.17592471 6.09037089,6.15271119 6.17442182,6.11937737 L6.24903481,6.08863247 L6.24903481,6.08863247 L6.37014076,6.03722909 L6.37014076,6.03722909 L6.4565837,6.00210825 C6.61902724,5.93849495 6.80279485,5.88222296 6.9999258,5.88405443 L6.9999258,5.88405443 Z M11.1597602,4.82329371 C12.18463,4.82329371 12.8982839,5.58838938 12.8982839,6.70230935 C12.8982839,7.82020646 12.1699449,8.58927628 11.1340609,8.58927628 L9.99933386,8.58927628 L9.99933386,10.5436073 L9.17949352,10.5436073 L9.17949352,4.82329371 L11.1597602,4.82329371 Z M15.5978511,8.65274321 L14.6497961,8.71613163 C14.1776047,8.75183999 13.9104442,8.9777891 13.9104442,9.3345677 C13.9104442,9.6992221 14.1886189,9.93709967 14.6132248,9.93709967 C15.1659033,9.93709967 15.5978511,9.52480845 15.5978511,8.98176475 L15.5978511,8.65274321 Z M10.9437138,5.57256078 L9.99933247,5.57256078 L9.99933247,7.84398637 L10.9400428,7.84398637 C11.6538376,7.84398637 12.0600862,7.427795 12.0600862,6.70628499 C12.0600862,5.98485199 11.6538376,5.57256078 10.9437138,5.57256078 Z M7.05770318,4.38717578 C7.09306702,4.75442726 6.95898277,5.11381502 6.76139137,5.38147447 C6.55667423,5.64162352 6.23228047,5.84789369 5.90758697,5.81739158 C5.86701341,5.48019603 6.01447185,5.12226339 6.18832338,4.8911278 L6.21113606,4.86171088 C6.41548792,4.59384156 6.76845717,4.40275223 7.05770318,4.38717578 Z" id="Shape" fill="#000000" fill-rule="nonzero"></path>
            </g>
        </g>
    </g>
</svg>