<?xml version="1.0" encoding="UTF-8"?>
<svg width="144px" height="96px" viewBox="0 0 144 96" version="1.1" xmlns="http://www.w3.org/2000/svg" xmlns:xlink="http://www.w3.org/1999/xlink">
    <title>Brand/Space/Iron&amp;Wood</title>
    <defs>
        <polygon id="path-1" points="0 0 21.0280468 0 21.0280468 24.998777 0 24.998777"></polygon>
        <polygon id="path-3" points="0 60 125 60 125 0 0 0"></polygon>
    </defs>
    <g id="Brand/Space/Iron&amp;Wood" stroke="none" stroke-width="1" fill="none" fill-rule="evenodd">
        <rect id="Rectangle" fill="#FFFFFF" x="0" y="0" width="144" height="96"></rect>
        <g id="Group" transform="translate(9.000000, 18.000000)">
            <g id="Group-3" transform="translate(103.971953, 1.210115)">
                <mask id="mask-2" fill="white">
                    <use xlink:href="#path-1"></use>
                </mask>
                <g id="Clip-2"></g>
                <path d="M13.3259506,19.5454118 C12.9322932,20.0579525 12.5257197,20.5349314 12.1197078,20.9656236 C11.7047109,21.4059119 11.2515275,21.7965266 10.7741967,22.1244849 C10.2929351,22.4547011 9.77124066,22.7166162 9.22202954,22.9040209 C8.67113373,23.0931191 8.04611127,23.1890793 7.36493225,23.1890793 C6.68206854,23.1890793 6.02503684,23.0694113 5.41349195,22.8328974 C4.80250863,22.5975126 4.25385908,22.2667319 3.78102088,21.8518449 C3.30705955,21.4352645 2.92294871,20.9215948 2.63823498,20.3266412 C2.35295968,19.7288652 2.2075142,19.0633526 2.2075142,18.3487309 C2.2075142,17.7125708 2.2923106,17.1260843 2.4568493,16.604512 C2.62194958,16.0789885 2.88644695,15.5794306 3.24079482,15.1165635 C3.59233485,14.6565187 4.06068053,14.215666 4.63235426,13.8047303 C5.19167356,13.4033906 5.87902979,12.9681826 6.67589132,12.5103957 L6.82695245,12.4229025 L13.4427563,19.3930043 L13.3259506,19.5454118 Z M4.9659242,6.96219918 C4.76207591,6.49255838 4.65818628,6.03138465 4.65818628,5.58996745 C4.65818628,4.43505748 5.03106581,3.50537189 5.76783981,2.82631193 C6.49899817,2.15233221 7.41378846,1.8102621 8.48806336,1.8102621 C9.46967995,1.8102621 10.3153977,2.12241519 11.0005077,2.73938322 C11.6946027,3.36199597 12.0450196,4.19515683 12.0450196,5.21402901 C12.0450196,5.86712326 11.8911506,6.4575611 11.5884668,6.97066627 C11.2919602,7.47135304 10.9078493,7.91672155 10.4490503,8.2943534 C9.99642844,8.66803394 9.49775823,9.00389486 8.96764035,9.29346906 C8.43078368,9.58699456 7.95569922,9.8596346 7.51318556,10.1260654 L7.38346392,10.205656 L7.26272732,10.1113892 C7.04652458,9.94317647 6.78988912,9.68577718 6.49899817,9.34540049 C6.20979191,9.00953958 5.92900913,8.63981034 5.66619645,8.24637327 C5.39832968,7.84898489 5.16191058,7.41716372 4.9659242,6.96219918 L4.9659242,6.96219918 Z M15.8653501,19.0306132 L20.1753657,11.7314242 L17.9392117,11.7314242 L14.5552176,17.6228197 L8.59476082,11.4469302 L8.86206602,11.3086345 C9.46294117,10.995917 10.0862789,10.6369127 10.7169171,10.2406533 C11.333516,9.85342541 11.8990125,9.40297665 12.3965596,8.90341882 C12.8868064,8.41063465 13.290572,7.85462961 13.5971868,7.25064444 C13.8970628,6.65794871 14.0492471,5.97324402 14.0492471,5.21402901 C14.0492471,4.36224058 13.9015553,3.60528346 13.6106644,2.96404313 C13.3180887,2.32506068 12.9148846,1.78090955 12.4094756,1.34908838 C11.9006972,0.91388037 11.3015068,0.576890511 10.6270666,0.346585884 C9.94869537,0.11684573 9.21753702,0 8.45380786,0 C7.62100615,0 6.84379942,0.123054923 6.14408874,0.36408452 C5.44943214,0.603985173 4.83451786,0.963553916 4.31450816,1.43093684 C3.79618315,1.89775528 3.3862403,2.47633921 3.09478777,3.14806104 C2.80221212,3.82429864 2.65395881,4.61173726 2.65395881,5.48723352 C2.65395881,6.55860161 2.93361846,7.56110411 3.48788366,8.46595292 C4.05674957,9.39676746 4.70591935,10.2530717 5.41742291,11.0122867 L5.62857156,11.2380755 L5.35003504,11.3684686 C4.64190088,11.7015071 3.95454464,12.0977666 3.30649799,12.5476509 C2.66743639,12.9907615 2.09070856,13.5016087 1.59428461,14.0677743 C1.10235318,14.6282951 0.709257296,15.2684065 0.425666691,15.9700453 C0.142637651,16.6694263 0,17.4579939 0,18.3131691 C0,19.369861 0.198232641,20.321561 0.590205398,21.1411745 C0.983862852,21.9658683 1.52071952,22.6714584 2.18336688,23.2404463 C2.84994519,23.8111276 3.63782166,24.2514159 4.52509524,24.5488927 C5.41629978,24.8474984 6.36029147,24.998777 7.33123832,24.998777 C8.91148379,24.998777 10.2676646,24.6375148 11.3604712,23.9234576 C12.4673169,23.2009333 13.5247448,22.1888347 14.5041152,20.9136922 L14.6624766,20.7082244 L18.177877,24.3835024 L21.0283838,24.3835024 L15.8653501,19.0306132 Z" id="Fill-1" fill="#1E1E1C" mask="url(#mask-2)"></path>
            </g>
            <mask id="mask-4" fill="white">
                <use xlink:href="#path-3"></use>
            </mask>
            <g id="Clip-5"></g>
            <polygon id="Fill-4" fill="#1E1E1C" mask="url(#mask-4)" points="0.169031232 27.0692607 3.96802221 27.0692607 3.96802221 0.339812219 0.169031232 0.339812219"></polygon>
            <path d="M103.084399,50.4233917 C101.868609,53.8220784 99.0197873,56.0748866 95.0309872,56.0748866 L89.1424108,56.0748866 L89.1424108,36.6011628 L95.0309872,36.6011628 C98.9810393,36.6011628 101.830984,38.8161514 103.046212,42.1758895 C103.539828,43.4357913 103.768386,44.8108454 103.768386,46.338307 C103.768386,47.82682 103.539828,49.2013096 103.084399,50.4233917 M94.6508073,32.9733005 L85.3434198,32.9733005 L85.3434198,59.7021845 L94.6508073,59.7021845 C100.65282,59.7021845 105.097611,56.8007978 106.882828,51.7600617 C107.452817,50.1558319 107.756063,48.3613751 107.756063,46.338307 C107.756063,44.3519296 107.452817,42.5958568 106.920453,40.9921915 C105.134675,35.9136358 100.65282,32.9733005 94.6508073,32.9733005" id="Fill-6" fill="#1E1E1C" mask="url(#mask-4)"></path>
            <polygon id="Fill-7" fill="#1E1E1C" mask="url(#mask-4)" points="87.5541349 27.0683576 87.5541349 0.339473536 83.7551439 0.339473536 83.7551439 23.2344629 72.8725651 0.339473536 70.7256999 0.339473536 68.9034197 0.339473536 66.9272705 0.339473536 66.9272705 27.0683576 70.7256999 27.0683576 70.7256999 4.17336821 81.6082788 27.0683576 83.7551439 27.0683576 85.5779857 27.0683576"></polygon>
            <path d="M15.9120162,3.9668843 L21.9533384,3.9668843 C23.7761802,3.9668843 24.7617277,4.53982351 25.4833395,5.79972529 C25.787708,6.33428039 25.9393307,7.02180744 25.9393307,7.82392233 C25.9393307,8.66272791 25.7495215,9.38863906 25.4080897,9.96157826 C24.7235413,11.1452763 23.7391169,11.717651 21.9533384,11.717651 L15.9120162,11.717651 L15.9120162,3.9668843 Z M15.9120162,15.1547218 L18.1711944,15.1547218 L25.6490013,27.0684705 L29.9607016,27.0684705 L22.2060429,14.7144336 C25.4625615,14.5507366 27.7234245,13.5250908 28.940337,11.4122716 C29.5097645,10.4199296 29.814133,9.23679606 29.814133,7.78553822 C29.814133,6.14292434 29.471578,4.80625435 28.8645257,3.73770862 C27.5347384,1.40869663 25.2199652,0.33958643 21.4209742,0.33958643 L12.1130252,0.33958643 L12.1130252,27.0684705 L15.9120162,27.0684705 L15.9120162,15.1547218 Z" id="Fill-8" fill="#1E1E1C" mask="url(#mask-4)"></path>
            <path d="M48.1176323,56.6050389 C42.4738984,56.6050389 37.8825385,51.9893503 37.8825385,46.3164054 C37.8825385,40.6445895 42.4738984,36.0294654 48.1176323,36.0294654 C53.7613661,36.0294654 58.3521645,40.6445895 58.3521645,46.3164054 C58.3521645,51.9893503 53.7613661,56.6050389 48.1176323,56.6050389 M67.278249,32.6341656 C63.5415918,32.6341656 60.1604056,34.1509022 57.7007485,36.6012757 C55.2410913,34.1492088 51.8554126,32.6341656 48.1176323,32.6341656 C40.5999542,32.6341656 34.5052832,38.7598171 34.5052832,46.3164054 C34.5052832,53.8741227 40.5999542,60.0003387 48.1176323,60.0003387 C51.8554126,60.0003387 55.2410913,58.484731 57.7007485,56.0326641 C60.1604056,58.4830376 63.5415918,60.0003387 67.278249,60.0003387 C74.7959271,60.0003387 80.8900365,53.8741227 80.8900365,46.3164054 C80.8900365,38.7598171 74.7959271,32.6341656 67.278249,32.6341656" id="Fill-9" fill="#1E1E1C" mask="url(#mask-4)"></path>
            <polygon id="Fill-10" fill="#1E1E1C" mask="url(#mask-4)" points="23.2918861 56.1293017 19.0458889 32.9740907 16.5952168 32.9740907 15.2468979 32.9740907 12.7962258 32.9740907 8.55022867 56.1293017 4.14025437 32.9740907 -0.000168469664 32.9740907 5.35716692 59.7024103 7.96620049 59.7024103 9.1561579 59.7024103 11.7651915 59.7024103 15.9213381 36.704687 20.0769232 59.7024103 22.6859568 59.7024103 23.8759142 59.7024103 26.4843862 59.7024103 31.8422832 32.9740907 27.7018604 32.9740907"></polygon>
            <path d="M47.9596639,3.39580785 C53.6033977,3.39580785 58.1941961,8.01036747 58.1941961,13.6827479 C58.1941961,19.3551282 53.6033977,23.9708168 47.9596639,23.9708168 C42.31593,23.9708168 37.7245701,19.3551282 37.7245701,13.6827479 C37.7245701,8.01036747 42.31593,3.39580785 47.9596639,3.39580785 M47.9596639,27.3661166 C55.477342,27.3661166 61.5720129,21.2399007 61.5720129,13.6827479 C61.5720129,6.12559505 55.477342,-5.64472124e-05 47.9596639,-5.64472124e-05 C40.4419858,-5.64472124e-05 34.3473148,6.12559505 34.3473148,13.6827479 C34.3473148,21.2399007 40.4419858,27.3661166 47.9596639,27.3661166" id="Fill-11" fill="#1E1E1C" mask="url(#mask-4)"></path>
        </g>
    </g>
</svg>