<?xml version="1.0" encoding="UTF-8"?>
<svg width="144px" height="96px" viewBox="0 0 144 96" version="1.1" xmlns="http://www.w3.org/2000/svg" xmlns:xlink="http://www.w3.org/1999/xlink">
    <title>Brand/Space/MusicLibrary</title>
    <g id="Brand/Space/MusicLibrary" stroke="none" stroke-width="1" fill="none" fill-rule="evenodd">
        <rect id="Rectangle" fill="#FFFFFF" x="0" y="0" width="144" height="96"></rect>
        <g id="Group" transform="translate(12.000000, 24.000000)" fill="#000000">
            <path d="M4.24475759,49 C1.20421639,49.0046767 0.0883642675,46.4133812 0.0868058148,44.7618205 L0.0774550987,27.8824961 C0.0774550987,27.5281442 0.220832746,27.3501878 0.565250791,27.3501878 L3.57150603,27.3486267 C3.91748253,27.3486267 4.11696447,27.5234611 4.11696447,27.877813 L4.12943209,45.2894458 C4.12943209,45.670335 4.27125129,45.8467304 4.64216303,45.8467304 L14.2998943,45.8404863 C14.6427539,45.8404863 14.8718465,45.9872223 14.8718465,46.2822554 C14.8718465,46.6100699 14.6708061,46.8738825 14.3887262,47.0487169 L11.9544231,48.4661243 C11.2624701,48.8501356 10.5751924,48.9968716 9.83025203,48.9968716 L4.24475759,49 Z" id="Fill-1"></path>
            <path d="M20.2341705,48.5196674 C20.2341705,48.8740192 20.0331301,48.9926569 19.6887121,48.9926569 L16.6544047,48.9942179 C16.3660909,48.9942179 16.2507654,48.8771413 16.2507654,48.5243504 L16.2445316,27.8392558 C16.2445316,27.5176854 16.3536233,27.3412492 16.6419371,27.3412492 L19.6840367,27.3412492 C20.0268963,27.3381679 20.2248198,27.5145633 20.2248198,27.8376948 L20.2341705,48.5196674 Z" id="Fill-4"></path>
            <path d="M41.0868909,30.6572116 L41.0884493,33.5731996 C41.0884493,34.8704084 40.6037705,36.0177591 39.6281792,36.8435395 C39.5144121,36.9652991 39.4286972,37.0808147 39.4286972,37.2868695 C39.4286972,37.4882413 39.5144121,37.6068789 39.6577898,37.6974182 C40.6349396,38.5497359 41.152356,39.6689882 41.152356,41.0598583 L41.152356,42.7082969 C41.1554628,44.3551745 40.4354577,45.6227238 39.0047981,46.4766026 L35.713346,48.4544167 C35.0525621,48.8384279 34.3652844,48.986725 33.5580059,48.986725 L24.5080712,48.988286 C24.1901468,48.988286 24.0748213,48.8727704 24.0748213,48.5184186 L24.0654706,27.8692274 C24.0654706,27.5148755 24.1776792,27.3384801 24.4956035,27.3384801 L27.4738066,27.3384801 C27.8182247,27.3353581 28.0208235,27.5117535 28.0208235,27.8629833 L28.0208235,28.3359728 C28.0208235,28.718423 28.1922533,28.863598 28.6223863,28.7761808 L36.5580274,27.1527186 C37.0177709,27.0918387 37.362189,27.0340793 37.5320603,27.0340793 C38.9923305,27.0325199 41.0868909,28.1517723 41.0868909,30.6572116 M36.9601712,36.0770779 L36.9601712,31.0677602 C36.9601712,30.6899931 36.701405,30.4527178 36.3039996,30.4527178 L28.5366714,30.4589619 C28.1657596,30.4589619 28.022382,30.6946761 28.022382,31.0740043 L28.022382,36.1129814 C28.0254989,36.4704553 28.1953702,36.6421677 28.5709573,36.6421677 L36.3071165,36.6406067 C36.7091973,36.6406067 36.9647835,36.4626502 36.9601712,36.0770779 M36.9694589,45.269933 L36.9679004,40.4401328 C36.9679004,40.0561215 36.7091973,39.7923089 36.3071165,39.7923089 L28.5709573,39.7954309 C28.1953702,39.7954309 28.0254989,40.0311452 28.0254989,40.4135954 L28.0301742,45.3042755 C28.0301742,45.6586273 28.201604,45.8100464 28.5756327,45.8100464 L36.3133503,45.8038023 C36.7107557,45.8038023 36.9694589,45.6274069 36.9694589,45.269933" id="Fill-6"></path>
            <path d="M61.0659427,30.6450357 L61.0659427,34.2385069 C61.0675011,35.9134829 60.3521713,37.1263965 58.8903427,37.9787142 L57.400462,38.8934728 C57.0856545,39.1026496 57.0014981,39.3336808 57.2274737,39.6599343 L62.3049126,48.5827326 C62.4498487,48.9105471 62.4202381,48.9667439 62.0181573,48.9667439 L58.4664436,48.971427 C58.1485192,48.971427 57.8664393,48.8543504 57.7215032,48.5296579 L53.4778365,40.9899245 C53.3017314,40.6652321 53.0165345,40.4888366 52.6471812,40.4888366 L48.8913103,40.4919587 C48.5468922,40.4919587 48.4035146,40.6980135 48.4035146,41.0523654 L48.4128653,48.4750222 C48.4128653,48.8574724 48.1806558,48.97611 47.8346793,48.97611 L44.8564762,48.9792321 C44.5120582,48.9792321 44.3967327,48.8605944 44.3967327,48.5062426 L44.3842651,27.8570514 C44.3842651,27.5026996 44.4995906,27.3231821 44.8424502,27.3231821 L47.8222117,27.3231821 C48.1666298,27.3231821 48.4019561,27.4964555 48.4019561,27.8508073 L48.4019561,28.3237968 C48.4019561,28.7359065 48.5687106,28.8857645 48.9427392,28.7671269 L56.5324038,27.1405426 C56.9079909,27.0812238 57.2508505,27.021905 57.5064367,27.021905 C58.8856674,27.021905 61.0612673,28.1099369 61.0659427,30.6450357 M56.9687706,36.7158479 L56.9656537,31.0555843 C56.9656537,30.6778171 56.7677302,30.4702013 56.4201952,30.4702013 L48.8881934,30.4733233 C48.5422169,30.4733233 48.4019561,30.6840612 48.4019561,31.0633894 L48.4035146,36.7501904 C48.4035146,37.1326406 48.5468922,37.309036 48.8913103,37.309036 L56.4233121,37.304353 C56.7724055,37.304353 56.9687706,37.0998592 56.9687706,36.7158479" id="Fill-8"></path>
            <path d="M81.7078044,48.4862615 C81.8231299,48.8390524 81.7078044,48.956129 81.3337758,48.956129 L78.2682993,48.960812 C77.9254397,48.960812 77.6979056,48.8437354 77.6121907,48.4581631 L76.3778962,44.0092521 C76.2329601,43.7173411 76.005426,43.4800659 75.6594495,43.4800659 L68.6386201,43.4831879 C68.2942021,43.4831879 68.035499,43.7189021 67.9793947,44.0139352 L66.7232818,48.4644072 C66.63445,48.8468575 66.4630202,48.9654951 66.0624978,48.9654951 L62.9393587,48.9686171 C62.6261097,48.9686171 62.5419532,48.8499795 62.6261097,48.4987497 L68.7461534,27.812094 C68.8318683,27.4874015 69.0625193,27.3094451 69.402262,27.3094451 L74.8506126,27.3078841 C75.2464596,27.3078841 75.4817859,27.4842795 75.592436,27.808972 L81.7078044,48.4862615 Z M75.199706,39.767957 L72.5565702,30.3112893 C72.5020244,30.1380159 72.3539714,30.0209393 72.1311126,30.0209393 C71.9253969,30.0209393 71.8147467,30.1380159 71.7259149,30.3144113 L69.1264158,39.769518 C69.0126488,40.1863107 69.1529095,40.3033873 69.498886,40.3033873 L74.7415209,40.3002653 C75.1732123,40.3002653 75.313473,40.1831887 75.199706,39.767957 L75.199706,39.767957 Z" id="Fill-10"></path>
            <path d="M100.010429,30.6228691 L100.011987,34.2179014 C100.011987,35.8944384 99.3013327,37.1057911 97.839504,37.9565477 L96.3496233,38.8728673 C96.0316989,39.0773611 95.9491009,39.3130753 96.1781935,39.6377678 L101.257191,48.5636882 C101.400568,48.8852586 101.372516,48.9445774 100.970436,48.9445774 L97.4156049,48.9492605 C97.099239,48.9492605 96.8124837,48.8290618 96.6706645,48.5074914 L92.4269979,40.966197 C92.2524512,40.6430656 91.9672543,40.4666701 91.5916672,40.4666701 L87.8404716,40.4713532 C87.4960535,40.4713532 87.3542343,40.675847 87.3542343,41.0301989 L87.3573513,48.4528557 C87.3573513,48.8384279 87.1282587,48.9555046 86.7853991,48.9555046 L83.8056376,48.9555046 C83.4612195,48.9555046 83.345894,48.8384279 83.345894,48.4840761 L83.3334264,27.8317629 C83.3334264,27.477411 83.4487519,27.3041376 83.7916115,27.3041376 L86.7729315,27.3010156 C87.1157911,27.3010156 87.3480005,27.477411 87.3480005,27.8302018 L87.3480005,28.3031913 C87.3480005,28.71374 87.5194303,28.863598 87.8887836,28.7449604 L95.484682,27.1183761 C95.8540353,27.0590573 96.2000118,27.0012995 96.458715,27.0012995 C97.8348287,27.0012995 100.010429,28.0877704 100.010429,30.6228691 M95.9194903,36.6921204 L95.9132565,31.0334178 C95.9132565,30.6556506 95.7137746,30.4480347 95.370915,30.4480347 L87.8342378,30.4527178 C87.4944951,30.4527178 87.3480005,30.6618947 87.3480005,31.0396619 L87.349559,36.7295849 C87.349559,37.1104741 87.4960535,37.2868695 87.8389131,37.2868695 L95.3740319,37.2806254 C95.7168915,37.2806254 95.9194903,37.0808147 95.9194903,36.6921204" id="Fill-12"></path>
            <path d="M119.959091,27.7530874 L112.68735,40.0992057 C112.512804,40.3942387 112.397478,40.7189312 112.397478,41.0732831 L112.40527,48.4397431 C112.40527,48.8206323 112.230724,48.9392699 111.919033,48.9392699 L108.912778,48.9408309 C108.596412,48.9408309 108.421865,48.8237543 108.421865,48.4413041 L108.41719,41.0795271 C108.41719,40.7189312 108.303423,40.3973608 108.130435,40.1023277 L100.902331,27.7624535 C100.84311,27.6469379 100.84311,27.5579597 100.902331,27.4408831 C100.958435,27.3487828 101.047267,27.2910251 101.190645,27.2910251 L104.572487,27.2910251 C104.888853,27.2910251 105.17405,27.4674205 105.37509,27.7921129 L110.020838,36.4495377 C110.106553,36.6274941 110.218761,36.7133503 110.422919,36.7133503 C110.566296,36.7133503 110.681622,36.6274941 110.796947,36.4495377 L115.461396,27.7858688 C115.662437,27.4627374 115.858802,27.284781 116.175167,27.284781 L119.700387,27.2832199 C119.784544,27.2832199 119.904545,27.3409777 119.959091,27.4283949 C120.013636,27.5454715 120.013636,27.6375718 119.959091,27.7530874" id="Fill-14"></path>
            <path d="M25.2329075,21.2316083 C25.2329075,21.5828381 25.0926468,21.7061588 24.7451118,21.7061588 L21.874442,21.7061588 C21.5315824,21.7061588 21.3866463,21.5890822 21.3866463,21.2066319 L21.378854,3.24864165 C21.378854,2.9536086 21.2074242,2.77721319 20.8910583,2.77721319 C20.6058615,2.77721319 20.4640423,2.9239492 20.4032626,3.18776182 L16.0536212,21.2378523 C15.9912831,21.5906432 15.763749,21.7092808 15.4193309,21.7092808 L9.76993992,21.7139639 C9.45201557,21.7139639 9.22448147,21.5953262 9.16214337,21.2409744 L4.79691738,3.20024999 C4.71120248,2.9317543 4.56159102,2.79126238 4.33717384,2.79126238 C4.02080794,2.79126238 3.81509219,2.96609678 3.81509219,3.26425186 L3.82755981,21.215998 C3.82755981,21.6000093 3.65457156,21.7186469 3.28365982,21.7186469 L0.416106868,21.7186469 C0.130910026,21.7186469 0.0155845269,21.6000093 0.0155845269,21.2456575 L0,0.554318702 C0,0.229626249 0.113767046,0.05323083 0.403639247,0.05323083 L7.23122048,0.0469867444 C7.60680758,0.0469867444 7.80473107,0.224943185 7.92005657,0.549635637 L12.1481387,18.6184584 C12.1761909,18.876027 12.3242439,18.9993476 12.5798301,18.9993476 C12.865027,18.9993476 13.0380152,18.876027 13.0925611,18.6184584 L17.3315524,0.54183053 C17.3892151,0.217138078 17.5637618,0.0407426587 17.9035045,0.0407426587 L24.7373196,0.0407426587 C25.0770622,0.0407426587 25.2219983,0.215577056 25.2219983,0.54183053 L25.2329075,21.2316083 Z" id="Fill-16"></path>
            <path d="M32.439972,21.9930745 C30.4591786,21.9930745 28.9942331,20.3430749 28.9942331,18.4292626 L28.9817655,0.56805569 C28.9817655,0.213703831 29.0955325,0.038869433 29.4150153,0.038869433 L32.457115,0.0341863688 C32.7984161,0.0341863688 32.9994565,0.210581788 32.9994565,0.564933647 L33.0119241,17.9843715 C33.0119241,18.3683828 33.1537433,18.5447782 33.5262135,18.5447782 L41.5912062,18.5385341 C42.0213391,18.5385341 42.2208211,18.3605777 42.2208211,17.9765664 L42.2130288,0.560250583 C42.2130288,0.205898724 42.354848,0.0294629283 42.668097,0.0294629283 L45.6556508,0.0294629283 C46.0265625,0.0263812618 46.2276029,0.204337702 46.2276029,0.555567519 L46.241629,21.2203689 C46.241629,21.5747208 46.0405886,21.6933584 45.6650015,21.6949194 L42.68524,21.6949194 C42.3688741,21.6949194 42.2270549,21.5762818 42.2270549,21.1922705 L42.2254964,20.6911826 C42.2254964,20.3368308 41.9636764,20.1573133 41.5304265,20.2478526 L33.4140049,21.8775589 C32.9854304,21.9930745 32.6675061,21.9930745 32.439972,21.9930745" id="Fill-18"></path>
            <path d="M65.6074297,13.3646848 L65.6074297,15.4564535 C65.6074297,17.1376735 64.920152,18.4067839 63.5409214,19.2310032 L60.1590791,21.1526206 C59.501412,21.5366318 58.7814069,21.6849289 58.0941292,21.6849289 L50.4296589,21.691173 C50.0571887,21.691173 49.9138111,21.5740964 49.9138111,21.2197445 L49.9138111,19.065535 C49.9138111,18.7408425 50.0556303,18.5332267 50.4545942,18.5332267 L61.0193449,18.5254215 C61.3029833,18.5254215 61.5336343,18.3474651 61.5336343,17.9665759 L61.5305174,12.9510141 C61.5305174,12.5670028 61.3014249,12.357826 61.016228,12.362509 L53.555915,12.362509 C50.9984941,12.362509 49.3636773,10.3331812 49.3636773,8.06813914 L49.3621188,6.24330512 C49.3621188,4.6229649 49.9886168,3.35541551 51.3958996,2.49685374 L54.7824173,0.583041496 C55.4120322,0.197469208 56.1273619,0.0241958318 56.8146396,0.0195127676 L64.3388492,0.0163907248 C64.7097609,0.0163907248 64.9076844,0.192786144 64.9076844,0.545576982 L64.9123598,2.6982255 C64.9123598,3.02135693 64.7113194,3.16653192 64.3388492,3.16653192 L53.9237098,3.17433703 C53.5450058,3.17433703 53.4327972,3.38195288 53.4327972,3.76128108 L53.4374726,8.38658751 C53.4374726,8.82835657 53.5792918,8.97821462 53.951762,8.97821462 L61.3855813,8.97353156 C63.2183217,8.97353156 65.6043128,10.4721121 65.6074297,13.3646848" id="Fill-20"></path>
            <path d="M72.384517,21.2056953 C72.384517,21.5569251 72.1803597,21.6755627 71.8359417,21.6755627 L68.793842,21.6786848 C68.5086452,21.6786848 68.3933197,21.5631692 68.3933197,21.2072563 L68.383969,0.514356554 C68.383969,0.191225122 68.4992945,0.0117076606 68.7844913,0.0117076606 L71.826591,0.00858561774 C72.171009,0.00858561774 72.370491,0.189664101 72.370491,0.511234511 L72.384517,21.2056953 Z" id="Fill-22"></path>
            <path d="M76.3688572,17.428804 L76.3672987,6.25345176 C76.3672987,4.60813519 77.049901,3.33590275 78.4556253,2.48046302 L81.8125324,0.566650771 C82.4125367,0.181078483 83.1309834,0.00312204281 83.7917673,0.00312204281 L90.9076623,0 C91.2505219,0 91.4250686,0.17795644 91.4250686,0.535430343 L91.4250686,2.6833958 C91.4250686,3.00496621 91.2551973,3.15170222 90.9107792,3.15170222 L80.9522665,3.15482426 C80.6109654,3.15482426 80.4675878,3.36556215 80.4675878,3.7480124 L80.4738216,17.9579903 C80.4738216,18.3388795 80.6156408,18.5168359 80.9600588,18.5168359 L91.2053268,18.5090308 C91.5185758,18.5090308 91.7227331,18.6604499 91.7227331,18.9554829 C91.7227331,19.2770534 91.577797,19.545549 91.2629895,19.7172614 L88.7944005,21.1362299 C88.1367334,21.5218021 87.4494558,21.6685382 86.7590613,21.6685382 L80.5595365,21.6716602 C78.5257557,21.6716602 76.3719741,20.1699576 76.3688572,17.428804" id="Fill-24"></path>
        </g>
    </g>
</svg>