<?xml version="1.0" encoding="UTF-8"?>
<svg width="88px" height="59px" viewBox="0 0 88 59" version="1.1" xmlns="http://www.w3.org/2000/svg" xmlns:xlink="http://www.w3.org/1999/xlink">
    <title>Brand/Culture/CultureProject</title>
    <defs>
        <polygon id="path-1" points="0 0 13.7948936 0 13.7948936 13.4371894 0 13.4371894"></polygon>
        <polygon id="path-3" points="0 0 10.9324339 0 10.9324339 12.601741 0 12.601741"></polygon>
    </defs>
    <g id="Page-1" stroke="none" stroke-width="1" fill="none" fill-rule="evenodd">
        <g id="PCCUL000100_컬처서브메인" transform="translate(-916.000000, -2882.000000)">
            <g id="Brand/Culture/CultureProject" transform="translate(916.000000, 2882.000000)">
                <rect id="Rectangle" fill="#FFFFFF" x="0" y="0" width="88" height="59"></rect>
                <g id="Group-33" transform="translate(7.333333, 5.531250)">
                    <g id="Group-3">
                        <mask id="mask-2" fill="white">
                            <use xlink:href="#path-1"></use>
                        </mask>
                        <g id="Clip-2"></g>
                        <path d="M13.7948936,6.4830085 C13.7948936,10.5626237 10.9010169,13.4371894 6.89876399,13.4371894 C2.89455968,13.4371894 -0.000292704994,10.5626237 -0.000292704994,6.4830085 C-0.000292704994,2.67359263 3.30922509,-0.000788903105 6.89876399,-0.000788903105 C10.4834245,-0.000788903105 13.7948936,2.67359263 13.7948936,6.4830085 M3.37166882,6.50075882 C3.37166882,8.67320075 4.96008125,10.2618544 6.89876399,10.2618544 C8.82964126,10.2618544 10.4229321,8.67320075 10.4229321,6.50075882 C10.4229321,4.76418586 8.82964126,3.1745461 6.89876399,3.1745461 C4.96008125,3.1745461 3.37166882,4.76418586 3.37166882,6.50075882" id="Fill-1" fill="#000000" mask="url(#mask-2)"></path>
                    </g>
                    <polygon id="Fill-4" fill="#000000" points="20.5245717 8.07107045 23.5530927 0.415751937 27.0743338 0.415751937 21.7490543 13.0224236 19.2337427 13.0224236 13.9913962 0.415751937 17.5145887 0.415751937"></polygon>
                    <polygon id="Fill-6" fill="#000000" points="31.1265417 3.1928881 31.1265417 5.29925939 34.7814514 5.29925939 34.7814514 8.07126768 31.1265417 8.07126768 31.1265417 10.2446957 34.9804908 10.2446957 34.9804908 13.0216347 27.8853217 13.0216347 27.8853217 0.414963034 34.9804908 0.414963034 34.9804908 3.1928881"></polygon>
                    <path d="M47.3520576,13.0214374 L43.3166314,13.0214374 L40.2568885,8.17461398 L40.224691,8.17461398 L40.224691,13.0214374 L36.9824954,13.0214374 L36.9824954,0.414765808 L41.8277387,0.414765808 C44.2923147,0.414765808 46.1617239,1.60403724 46.1617239,4.29419683 C46.1617239,6.02978366 45.2016516,7.53757472 43.431762,7.85708048 L47.3520576,13.0214374 Z M40.224691,6.06824269 L40.5408124,6.06824269 C41.5965017,6.06824269 42.7887867,5.86608627 42.7887867,4.49733938 C42.7887867,3.12464798 41.5965017,2.92643607 40.5408124,2.92643607 L40.224691,2.92643607 L40.224691,6.06824269 Z" id="Fill-8" fill="#000000"></path>
                    <polygon id="Fill-10" fill="#000000" points="7.91406004 29.5482672 4.67381576 29.5482672 4.67381576 19.7195206 1.99263803 19.7195206 1.99263803 16.9415956 10.5932864 16.9415956 10.5932864 19.7195206 7.91406004 19.7195206"></polygon>
                    <polygon id="Fill-12" fill="#000000" points="19.6908503 21.8070569 19.6908503 16.941497 22.9310946 16.941497 22.9310946 29.5481686 19.6908503 29.5481686 19.6908503 24.3828255 15.0095218 24.3828255 15.0095218 29.5481686 11.7653748 29.5481686 11.7653748 16.941497 15.0095218 16.941497 15.0095218 21.8070569"></polygon>
                    <polygon id="Fill-14" fill="#000000" points="28.2900352 19.7192248 28.2900352 21.8255961 31.9459205 21.8255961 31.9459205 24.5976044 28.2900352 24.5976044 28.2900352 26.7720186 32.1439842 26.7720186 32.1439842 29.5479714 25.0488152 29.5479714 25.0488152 16.9412997 32.1439842 16.9412997 32.1439842 19.7192248"></polygon>
                    <g id="Group-18" transform="translate(62.400899, 33.457578)">
                        <mask id="mask-4" fill="white">
                            <use xlink:href="#path-3"></use>
                        </mask>
                        <g id="Clip-17"></g>
                        <path d="M-3.57464605e-14,2.22249067e-13 L4.59839544,2.22249067e-13 C8.07085235,2.22249067e-13 10.9325315,2.75425797 10.9325315,6.30037743 C10.9325315,9.84255237 8.05426573,12.601741 4.59839544,12.601741 L-3.57464605e-14,12.601741 L-3.57464605e-14,2.22249067e-13 Z M3.24414701,9.82776044 L3.96810403,9.82776044 C5.90678676,9.82776044 7.55666724,8.75879673 7.55666724,6.30037743 C7.55666724,4.0460868 6.08631249,2.77398055 4.00127726,2.77398055 L3.24414701,2.77398055 L3.24414701,9.82776044 Z" id="Fill-16" fill="#000000" mask="url(#mask-4)"></path>
                    </g>
                    <path d="M12.9792224,46.0596148 L8.94086916,46.0596148 L5.88210198,41.2137774 L5.84892874,41.2137774 L5.84892874,46.0596148 L2.6067331,46.0596148 L2.6067331,33.4568877 L7.45295211,33.4568877 C9.91752815,33.4568877 11.784986,34.6412284 11.784986,37.3333603 C11.784986,39.0738778 10.8258893,40.5767382 9.05697547,40.8952578 L12.9792224,46.0596148 Z M5.84892874,39.10642 L6.16407445,39.10642 C7.22171516,39.10642 8.40912175,38.9062359 8.40912175,37.5345306 C8.40912175,36.1647976 7.22171516,35.9636273 6.16407445,35.9636273 L5.84892874,35.9636273 L5.84892874,39.10642 Z" id="Fill-19" fill="#000000"></path>
                    <polygon id="Fill-21" fill="#000000" points="17.0954351 36.2315585 17.0954351 38.3359575 20.7522962 38.3359575 20.7522962 41.1109242 17.0954351 41.1109242 17.0954351 43.2853384 20.9474328 43.2853384 20.9474328 46.0593189 13.8571422 46.0593189 13.8571422 33.4575779 20.9474328 33.4575779 20.9474328 36.2315585"></polygon>
                    <path d="M31.8650364,37.6885639 C31.2035231,36.7852699 30.1292958,36.2991083 29.0209195,36.2991083 C27.0373554,36.2991083 25.6967665,37.834511 25.6967665,39.7929629 C25.6967665,41.7800126 27.0529663,43.2158163 29.0716551,43.2158163 C30.1292958,43.2158163 31.1879122,42.7000709 31.8650364,41.8796117 L31.8650364,45.8113075 C30.7888577,46.1426468 30.0131895,46.3970681 29.0043329,46.3970681 C27.2676166,46.3970681 25.6128577,45.7255143 24.3230044,44.5382151 C22.9492423,43.2848453 22.3228536,41.644913 22.3228536,39.7761988 C22.3228536,38.0524455 22.968756,36.3977212 24.1590896,35.1621017 C25.3806451,33.8899955 27.1515103,33.1198288 28.9048132,33.1198288 C29.94977,33.1198288 30.9059397,33.3564997 31.8650364,33.7578542 L31.8650364,37.6885639 Z" id="Fill-23" fill="#000000"></path>
                    <path d="M61.5242479,46.0596148 L57.4878461,46.0596148 L54.4290789,41.2137774 L54.3968814,41.2137774 L54.3968814,46.0596148 L51.1546857,46.0596148 L51.1546857,33.4568877 L56.0009047,33.4568877 C58.4625537,33.4568877 60.3319629,34.6412284 60.3319629,37.3333603 C60.3319629,39.0738778 59.3748176,40.5767382 57.6049281,40.8952578 L61.5242479,46.0596148 Z M54.3968814,39.10642 L54.7120271,39.10642 C55.7696678,39.10642 56.9570744,38.9062359 56.9570744,37.5345306 C56.9570744,36.1647976 55.7696678,35.9636273 54.7120271,35.9636273 L54.3968814,35.9636273 L54.3968814,39.10642 Z" id="Fill-25" fill="#000000"></path>
                    <path d="M41.456979,31.6576955 C37.0371336,31.6576955 33.4446677,35.2915804 33.4446677,39.7587443 C33.4446677,44.2268942 37.0371336,47.859793 41.456979,47.859793 C45.8787758,47.859793 49.4751445,44.2268942 49.4751445,39.7587443 C49.4751445,35.2915804 45.8787758,31.6576955 41.456979,31.6576955 M41.456979,46.88747 C37.568881,46.88747 34.4057157,43.6904401 34.4057157,39.7587443 C34.4057157,35.8270484 37.568881,32.6290325 41.456979,32.6290325 C45.3489797,32.6290325 48.5131207,35.8270484 48.5131207,39.7587443 C48.5131207,43.6904401 45.3489797,46.88747 41.456979,46.88747" id="Fill-27" fill="#000000"></path>
                    <path d="M41.456979,47.9375 C36.9971306,47.9375 33.3685644,44.2681144 33.3685644,39.7595332 C33.3685644,35.2499658 36.9971306,31.5805802 41.456979,31.5805802 C45.9207302,31.5805802 49.5512478,35.2499658 49.5512478,39.7595332 C49.5512478,44.2681144 45.9207302,47.9375 41.456979,47.9375 M41.456979,31.7354025 C37.0820151,31.7354025 33.5217467,35.3347729 33.5217467,39.7595332 C33.5217467,44.1833073 37.0820151,47.7826778 41.456979,47.7826778 C45.8358457,47.7826778 49.3980655,44.1833073 49.3980655,39.7595332 C49.3980655,35.3347729 45.8358457,31.7354025 41.456979,31.7354025 M41.456979,46.9651769 C37.5279023,46.9651769 34.3296124,43.7326464 34.3296124,39.7595332 C34.3296124,35.7844477 37.5279023,32.550931 41.456979,32.550931 C45.3899584,32.550931 48.5901997,35.7844477 48.5901997,39.7595332 C48.5901997,43.7326464 45.3899584,46.9651769 41.456979,46.9651769 M41.456979,32.7067394 C37.6127868,32.7067394 34.4837704,35.871227 34.4837704,39.7595332 C34.4837704,43.6468532 37.6127868,46.8103547 41.456979,46.8103547 C45.3060497,46.8103547 48.4360417,43.6468532 48.4360417,39.7595332 C48.4360417,35.871227 45.3060497,32.7067394 41.456979,32.7067394" id="Fill-29" fill="#000000"></path>
                    <path d="M44.5365283,41.9085052 C44.5365283,42.4390426 44.1130817,42.8739254 43.5842613,42.8739254 L39.3332092,42.8739254 C38.8063402,42.8739254 38.3799666,42.4390426 38.3799666,41.9085052 L38.3799666,37.6099694 C38.3799666,37.0774598 38.8063402,36.6445493 39.3332092,36.6445493 L43.5842613,36.6445493 C44.1130817,36.6445493 44.5365283,37.0774598 44.5365283,37.6099694 L44.5365283,41.9085052 Z" id="Fill-31" fill="#000000"></path>
                </g>
            </g>
        </g>
    </g>
</svg>