<?xml version="1.0" encoding="UTF-8"?>
<svg width="88px" height="59px" viewBox="0 0 88 59" version="1.1" xmlns="http://www.w3.org/2000/svg" xmlns:xlink="http://www.w3.org/1999/xlink">
    <title>Brand/Culture/CultureProject 5</title>
    <g id="Page-1" stroke="none" stroke-width="1" fill="none" fill-rule="evenodd">
        <g id="PCCUL000100_컬처서브메인" transform="translate(-460.000000, -2882.000000)">
            <g id="Brand/Culture/CultureProject" transform="translate(460.000000, 2882.000000)">
                <rect id="Rectangle" fill="#FFFFFF" x="0" y="0" width="88" height="59"></rect>
                <g id="Group" transform="translate(9.777778, 7.989583)" fill="#000000">
                    <path d="M65.0222222,0 C66.9039624,0 68.4444444,1.54165194 68.4444444,3.42547077 L68.4444444,39.5934616 C68.4444444,41.4772805 66.9039624,43.0208333 65.0222222,43.0208333 L3.42222222,43.0208333 C1.539518,43.0208333 0,41.4772805 0,39.5934616 L0,3.42547077 C0,1.54165194 1.539518,0 3.42222222,0 L65.0222222,0 Z M24.9961067,10.2306 L23.52064,10.2306 C23.2439289,10.2306 23.2106844,10.4371 23.2106844,10.5924667 L23.2106844,16.95365 C23.2106844,17.0313333 23.1872178,17.13655 22.9877511,17.13655 L20.2861511,17.13655 C20.0993956,17.13655 20.0661511,17.07165 20.0661511,16.95365 L20.0661511,10.5924667 C20.0661511,10.3722 19.9439289,10.2306 19.7552178,10.2306 L18.2631289,10.2306 C18.0489956,10.2306 17.9385067,10.3525333 17.9385067,10.5924667 L17.9385067,17.1650667 C17.9385067,18.16315 18.7344178,18.9734167 19.7092622,18.9734167 C19.8608178,18.9734167 20.0319289,18.9734167 20.1873956,18.9262167 L23.02784,18.1385667 C23.14224,18.0972667 23.2106844,18.1415167 23.2106844,18.2791833 L23.2106844,18.5210833 C23.2106844,18.7443 23.3025956,18.8387 23.52064,18.8387 L24.9961067,18.8387 C25.2913956,18.8387 25.3363733,18.6489167 25.3363733,18.5358333 L25.3363733,10.5914833 C25.3363733,10.3643333 25.2092622,10.2296167 24.9961067,10.2296167 L24.9961067,10.2306 Z M13.9100622,12.1903833 L10.0869511,12.1903833 C9.94224,12.1903833 9.89432889,12.15695 9.89432889,11.9642167 L9.89432889,9.59733333 C9.89432889,9.40361667 9.95397333,9.36821667 10.0722844,9.36821667 L15.4314844,9.36821667 C15.7531733,9.36821667 15.8001067,9.17253333 15.8001067,9.05453333 L15.8001067,7.95516667 C15.8001067,7.73391667 15.6661511,7.60805 15.4314844,7.60805 L11.5633956,7.60805 C11.1732622,7.60805 10.7968178,7.71228333 10.4800178,7.90501667 L8.73566222,8.8854 C8.01601778,9.32003333 7.65130667,9.98476667 7.65130667,10.8638667 L7.65130667,11.79705 C7.65130667,13.09505 8.61050667,14.07445 9.87966222,14.07445 L13.7213511,14.07445 C13.8396622,14.07445 13.9129956,14.15705 13.9129956,14.3006167 L13.9129956,16.8631833 C13.9129956,17.0470667 13.7917511,17.0736167 13.7213511,17.0736167 L8.28588444,17.0736167 C8.05512889,17.0736167 7.93192889,17.19555 7.93192889,17.4207333 L7.93192889,18.5210833 C7.93192889,18.8033 8.11477333,18.8387 8.27219556,18.8387 L12.2145956,18.8387 C12.6193956,18.8387 12.9889956,18.7443 13.3136178,18.5574667 L15.0560178,17.5751167 C15.7844622,17.1444167 16.15504,16.4718167 16.15504,15.5799333 L16.15504,14.51105 C16.15504,12.9278833 14.81744,12.1903833 13.9100622,12.1903833 L13.9100622,12.1903833 Z M43.8173511,17.46695 C43.8173511,17.2693 43.6912178,17.1493333 43.47904,17.1493333 L38.9304178,17.1493333 C38.75344,17.1493333 38.7241067,17.0982 38.7241067,16.9684 L38.7241067,15.5209333 C38.7241067,15.3734333 38.7847289,15.3095167 38.9304178,15.3095167 L42.5315733,15.3095167 C42.98624,15.3095167 43.9200178,14.9643667 43.9200178,13.8935167 L43.9200178,12.4175333 C43.9200178,10.9051667 42.6273956,10.2011 41.7513067,10.2011 L40.3628622,10.2011 C39.9883733,10.2011 39.6324622,10.3004167 39.30784,10.4980667 L37.6876622,11.4755 C36.9641067,11.87375 36.5984178,12.5030833 36.5984178,13.3507167 L36.5984178,16.6517667 C36.5984178,17.7049167 37.4109511,18.8387 38.7241067,18.8387 L41.2937067,18.8387 C41.7464178,18.8387 42.0905956,18.75315 42.3770844,18.5712333 L43.5396622,17.87995 C43.7205511,17.7944 43.8173511,17.6508333 43.8173511,17.46695 Z M38.7084622,12.1146667 C38.7084622,11.93275 38.7749511,11.8570333 38.9313956,11.8570333 L41.5586844,11.8570333 C41.7268622,11.8570333 41.8099733,11.9435667 41.8099733,12.1146667 L41.8099733,13.6073667 C41.8099733,13.6565333 41.8099733,13.7725667 41.5586844,13.7725667 L38.9304178,13.7725667 C38.7241067,13.7725667 38.7084622,13.6948833 38.7084622,13.6073667 L38.7084622,12.1146667 Z M50.8289956,10.1411167 L49.9597511,10.1411167 C49.5784178,10.1411167 49.24304,10.2237167 48.89984,10.4095667 L48.0481956,10.97695 C48.0081067,10.9985833 47.9621511,10.9985833 47.9201067,10.9985833 C47.7568178,10.9985833 47.7274844,10.9435167 47.7274844,10.8284667 L47.7274844,10.5914833 C47.7274844,10.3712167 47.5954844,10.2296167 47.3881956,10.2296167 L45.8980622,10.2296167 C45.6193956,10.2296167 45.5871289,10.4361167 45.5871289,10.5914833 L45.5871289,18.53485 C45.5871289,18.7433167 45.6839289,18.8377167 45.8980622,18.8377167 L47.3881956,18.8377167 C47.60624,18.8377167 47.7274844,18.72365 47.7274844,18.5201 L47.7274844,12.1579333 C47.7274844,11.9691333 47.8008178,11.9317667 47.9201067,11.9317667 L50.8289956,11.9317667 C51.0372622,11.9317667 51.1682844,11.8177 51.1682844,11.6328333 L51.1682844,10.4715167 C51.1682844,10.2699333 51.0362844,10.1401333 50.8289956,10.1401333 L50.8289956,10.1411167 Z M30.9194844,26.2904 C30.8080178,26.2904 30.7053511,26.31695 30.6026844,26.3395667 C30.5674844,26.34645 30.5322844,26.35825 30.49024,26.3651333 L27.7817956,27.1360667 C27.7407289,27.1508167 27.7035733,27.15475 27.6752178,27.15475 C27.6253511,27.15475 27.5881956,27.1439333 27.5881956,27.03085 L27.5881956,26.7781333 C27.5881956,26.5637667 27.4708622,26.4251167 27.2880178,26.4251167 L25.8536178,26.4251167 C25.65024,26.4251167 25.54464,26.5431167 25.54464,26.7781333 L25.54464,34.56515 C25.54464,34.8296667 25.7216178,34.8591667 25.8536178,34.8591667 L27.2880178,34.8591667 C27.4786844,34.8591667 27.5881956,34.7470667 27.5881956,34.5484333 L27.5881956,28.3150833 C27.5881956,28.1557833 27.6488178,28.0938333 27.7984178,28.0938333 L30.3973511,28.0938333 C30.5332622,28.0938333 30.6075733,28.16955 30.6075733,28.3150833 L30.6075733,34.5484333 C30.6075733,34.76575 30.6955733,34.8591667 30.9067733,34.8591667 L32.3235733,34.8591667 C32.6081067,34.8591667 32.6521067,34.6752833 32.6521067,34.56515 L32.6521067,28.0938333 C32.6521067,27.10165 31.8737956,26.29335 30.9194844,26.29335 L30.9194844,26.2904 Z M46.82304,26.3916833 L45.4873956,26.3916833 C45.1305067,26.3916833 44.7892622,26.4900167 44.47344,26.6837333 L42.9148622,27.6415 C42.22064,28.0348333 41.8715733,28.6523667 41.8715733,29.4803333 L41.8715733,32.7155 C41.8715733,33.8964833 42.7867733,34.8562167 43.9131733,34.8562167 L46.3810844,34.8562167 C46.8171733,34.8562167 47.1505956,34.7736167 47.4273067,34.5966167 L48.5419733,33.9200833 C48.71504,33.8355167 48.8079289,33.6949 48.8079289,33.5139667 C48.8079289,33.3192667 48.68864,33.2032333 48.4813511,33.2032333 L44.11264,33.2032333 C43.9415289,33.2032333 43.9161067,33.1501333 43.9161067,33.0232833 L43.9161067,31.6063 C43.9161067,31.4607667 43.9728178,31.3988167 44.11264,31.3988167 L47.5729956,31.3988167 C48.0090844,31.3988167 48.90864,31.0595667 48.90864,30.01035 L48.90864,28.5628833 C48.90864,27.0819833 47.6639289,26.3907 46.82304,26.3907 L46.82304,26.3916833 Z M46.8768178,29.7301 C46.8768178,29.78025 46.8768178,29.89235 46.6372622,29.89235 L44.11264,29.89235 C43.9170844,29.89235 43.90144,29.8205667 43.90144,29.7301 L43.90144,28.26985 C43.90144,28.0466333 44.0089956,28.01615 44.11264,28.01615 L46.6372622,28.01615 C46.7976178,28.01615 46.8768178,28.0997333 46.8768178,28.26985 L46.8768178,29.7301 Z M14.9601956,33.1304667 L9.89628444,33.1304667 C9.78579556,33.1304667 9.72712889,33.0970333 9.72712889,32.9239667 L9.72712889,25.8007 C9.72712889,25.6178 9.79459556,25.57945 9.89628444,25.57945 L14.8203733,25.57945 C15.0325511,25.57945 15.1498844,25.4683333 15.1498844,25.2697 L15.1498844,24.1919667 C15.1498844,23.97465 15.0276622,23.8517333 14.8203733,23.8517333 L11.3033067,23.8517333 C10.93664,23.8517333 10.57584,23.9559667 10.2873956,24.1428 L8.62615111,25.1025333 C7.91628444,25.5411 7.55646222,26.19895 7.55646222,27.0574 L7.55646222,32.6565 C7.55646222,34.0862667 8.65939556,34.8562167 9.69779556,34.8562167 L12.7641067,34.8562167 C13.1503289,34.8562167 13.4896178,34.76575 13.8034844,34.5808833 L15.0257067,33.8719 C15.1977956,33.77455 15.2887289,33.6191833 15.2887289,33.4244833 C15.2887289,33.2415833 15.1655289,33.1304667 14.9601956,33.1304667 Z M21.81344,26.42315 L20.3242844,26.42315 C19.9664178,26.42315 19.6241956,26.5195167 19.3073956,26.7142167 L17.7488178,27.6582167 C17.0555733,28.0643333 16.7045511,28.6858 16.7045511,29.50885 L16.7045511,32.745 C16.7045511,33.7666833 17.4848178,34.8709667 18.7490844,34.8709667 L20.2401956,34.8709667 C20.6420622,34.8709667 20.9647289,34.7883667 21.2521956,34.6103833 L22.8586844,33.6634333 C23.52064,33.2278167 23.8579733,32.60045 23.8579733,31.8000167 L23.8579733,28.5933667 C23.8579733,27.0947667 22.6621511,26.42315 21.81344,26.42315 L21.81344,26.42315 Z M21.7987733,33.0242667 C21.7987733,33.14325 21.7655289,33.2042167 21.58464,33.2042167 L18.9749511,33.2042167 C18.79504,33.2042167 18.7637511,33.1442333 18.7637511,33.0242667 L18.7637511,28.3278667 C18.7637511,28.1666 18.82144,28.1056333 18.9749511,28.1056333 L21.58464,28.1056333 C21.7361956,28.1056333 21.7987733,28.1685667 21.7987733,28.3278667 L21.7987733,33.0242667 Z M55.3345956,26.3326833 L54.4956622,26.3326833 C54.1280178,26.3326833 53.8073067,26.4162667 53.47584,26.5981833 L52.6633067,27.15475 C52.6193067,27.1734333 52.5772622,27.1734333 52.5371733,27.1734333 C52.3807289,27.1734333 52.3553067,27.1232833 52.3553067,27.0092167 L52.3553067,26.7742 C52.3553067,26.5598333 52.22624,26.4202 52.0267733,26.4202 L50.5953067,26.4202 C50.3273956,26.4202 50.2951289,26.6208 50.2951289,26.7742 L50.2951289,34.5602333 C50.2951289,34.7647667 50.3880178,34.85425 50.5953067,34.85425 L52.0267733,34.85425 C52.23504,34.85425 52.3553067,34.7431333 52.3553067,34.5445 L52.3553067,28.31115 C52.3553067,28.1262833 52.4217956,28.0889167 52.5371733,28.0889167 L55.3345956,28.0889167 C55.5369956,28.0889167 55.6611733,27.9768167 55.6611733,27.7958833 L55.6611733,26.6581667 C55.6611733,26.4565833 55.5369956,26.3307167 55.3345956,26.3307167 L55.3345956,26.3326833 Z M61.6588622,33.1875 L58.8506844,33.1875 C58.7069511,33.1875 58.66784,33.1511167 58.66784,33.0105 L58.66784,28.3268833 C58.66784,28.1292333 58.7323733,28.0908833 58.8506844,28.0908833 L61.3616178,28.0908833 C61.6588622,28.0908833 61.7009067,27.9060167 61.7009067,27.79785 L61.7009067,26.7751833 C61.7009067,26.5450833 61.5845511,26.42315 61.3616178,26.42315 L58.7783289,26.42315 C58.7040178,26.42315 58.66784,26.4074167 58.66784,26.2884333 L58.66784,24.7396833 C58.66784,24.5558 58.5280178,24.4437 58.3363733,24.4899167 L56.8657956,24.8763667 C56.6751289,24.957 56.5959289,25.0848333 56.5959289,25.2972333 L56.5959289,32.75975 C56.5959289,33.7755333 57.3752178,34.8709667 58.6375289,34.8709667 L59.5889067,34.8709667 C60.0064178,34.8709667 60.3241956,34.7913167 60.6185067,34.6084167 L61.7370844,33.9171333 C61.9169956,33.8138833 62.0010844,33.6870333 62.0010844,33.5139667 C62.0010844,33.3045167 61.8788622,33.1875 61.6588622,33.1875 L61.6588622,33.1875 Z M40.4811733,33.1875 L36.5377956,33.1875 C36.3627733,33.1875 36.3393067,33.1039167 36.3393067,33.0105 L36.3393067,28.3121333 C36.3393067,28.0997333 36.4527289,28.07515 36.5377956,28.07515 L40.45184,28.07515 C40.6444622,28.07515 40.7520178,27.9709167 40.7520178,27.7811333 L40.7520178,26.7624 C40.7520178,26.4693667 40.5887289,26.4074167 40.45184,26.4074167 L37.8724622,26.4074167 C37.5077511,26.4074167 37.1704178,26.5067333 36.87024,26.70045 L35.29504,27.6601833 C34.6027733,28.0722 34.2527289,28.6956333 34.2527289,29.50885 L34.2527289,32.7164833 C34.2527289,33.74505 35.03984,34.8562167 36.3080178,34.8562167 L38.3809067,34.8562167 C38.7896178,34.8562167 39.1240178,34.7706667 39.4095289,34.5966167 L40.5437511,33.9191 C40.7011733,33.8365 40.7813511,33.6988333 40.7813511,33.51495 C40.7813511,33.3064833 40.6708622,33.1875 40.4811733,33.1875 Z M33.0715733,10.0968667 C32.9659733,10.0968667 32.8496178,10.1194833 32.7293511,10.14505 C32.6863289,10.15685 32.6452622,10.1637333 32.5944178,10.1716 L29.7735289,10.9553167 C29.73344,10.9700667 29.6992178,10.974 29.6728178,10.974 C29.6317511,10.974 29.5877511,10.974 29.5877511,10.84715 L29.5877511,10.5914833 C29.5877511,10.36925 29.4635733,10.2296167 29.2621511,10.2296167 L27.7700622,10.2296167 C27.5559289,10.2296167 27.4473956,10.3525333 27.4473956,10.5914833 L27.4473956,22.12205 C27.4473956,22.4367167 27.6224178,22.5016167 27.7700622,22.5016167 L29.2621511,22.5016167 C29.4586844,22.5016167 29.5877511,22.35215 29.5877511,22.12205 L29.5877511,19.0786333 C29.5877511,18.8780333 29.67184,18.8387 29.7940622,18.8387 L31.1512178,18.8387 C31.5657956,18.8387 31.90704,18.7492167 32.1925511,18.5712333 L33.8029511,17.6370667 C34.5010844,17.2024333 34.8560178,16.5652333 34.8560178,15.7480833 L34.8560178,11.93275 C34.8560178,10.797 33.9300622,10.0958833 33.0715733,10.0958833 L33.0715733,10.0968667 Z M32.7313067,16.95365 C32.7313067,17.0628 32.6941511,17.13655 32.5083733,17.13655 L29.7940622,17.13655 C29.6151289,17.13655 29.5877511,17.0824667 29.5877511,16.95365 L29.5877511,12.1756333 C29.5877511,11.9927333 29.63664,11.9337333 29.7940622,11.9337333 L32.5083733,11.9337333 C32.66384,11.9337333 32.7313067,12.0084667 32.7313067,12.1756333 L32.7313067,16.95365 Z" id="Fill-1"></path>
                </g>
            </g>
        </g>
    </g>
</svg>