<?xml version="1.0" encoding="UTF-8"?>
<svg width="144px" height="96px" viewBox="0 0 144 96" version="1.1" xmlns="http://www.w3.org/2000/svg" xmlns:xlink="http://www.w3.org/1999/xlink">
    <title>Brand/Space/Storage</title>
    <g id="Brand/Space/Storage" stroke="none" stroke-width="1" fill="none" fill-rule="evenodd">
        <rect id="Rectangle" fill="#FFFFFF" x="0" y="0" width="144" height="96"></rect>
        <g id="Group" transform="translate(8.000000, 22.000000)" fill="#000000">
            <path d="M36.4786147,22.9570754 C31.4482147,22.9570754 27.8155747,21.2659394 27.6604387,21.1906754 C27.0276067,20.8896194 26.7695587,20.1554114 27.0859747,19.5517634 C27.3993187,18.9496514 28.1734627,18.7008194 28.8093667,19.0064834 C28.8400867,19.0172354 32.3406307,20.6361794 37.0223587,20.5056194 C40.8193507,20.4011714 42.2017507,19.4488514 42.2155747,19.4396354 L42.1879267,19.4596034 L43.8345187,21.3350594 C43.6440547,21.4871234 41.8377187,22.8172994 37.0960867,22.9478594 C36.8871907,22.9555394 36.6767587,22.9570754 36.4786147,22.9570754" id="Fill-1"></path>
            <path d="M28.8360931,37.125293 C28.7301091,37.125293 28.6210531,37.116077 28.5104611,37.088429 C27.8284771,36.917933 27.4122211,36.251309 27.5903971,35.596973 C27.5965411,35.575469 28.2140131,33.319085 29.9097571,27.586733 C31.6316131,21.777581 38.0981731,8.19166096 38.3715811,7.61566096 C38.6664931,7.00126096 39.4283491,6.72478096 40.0734691,7.00740496 C40.7231971,7.28388496 41.0042851,8.00887696 40.7139811,8.62481296 C40.6463971,8.76151696 34.0523491,22.622381 32.3857891,28.253357 C30.6961891,33.953453 30.0833251,36.191405 30.0756451,36.209837 C29.9251171,36.762797 29.4074851,37.125293 28.8360931,37.125293" id="Fill-3"></path>
            <path d="M54.7875811,21.3055682 C53.4220771,21.3055682 52.0473571,20.9999042 50.7709411,20.1044162 C50.1995491,19.7019842 50.0766691,18.9355202 50.4990691,18.3963842 C50.9199331,17.8495682 51.7263331,17.7374402 52.2931171,18.1352642 C54.1148131,19.4086082 56.4172771,18.7727042 58.8549091,18.0968642 C59.0407651,18.0446402 59.2281571,17.9954882 59.4094051,17.9448002 C60.0913891,17.7589442 60.8025571,18.1352642 60.9960931,18.7819202 C61.1911651,19.4331842 60.7994851,20.1136322 60.1144291,20.2918082 L59.5722211,20.4438722 C58.1145571,20.8493762 56.4541411,21.3055682 54.7875811,21.3055682" id="Fill-5"></path>
            <path d="M83.2043491,37.3953218 C82.6882531,37.3953218 82.2013411,37.0942658 82.0062691,36.6088898 C80.9157091,33.9132098 80.7144931,31.1207618 81.3903331,28.3482818 C78.7852771,30.8258498 75.6180451,33.6336578 73.6319971,34.7226818 C71.7258211,35.7656258 69.7704931,35.6488898 68.3973091,34.4093378 C66.1516771,32.3802818 67.6462051,28.5034178 68.4142051,27.1824578 C70.4340451,23.6972738 73.5751651,21.1198658 76.3845091,19.0554818 C78.3889891,17.5809218 80.1108451,16.5686978 82.5039331,16.0602818 C84.4991971,15.6424898 85.7556451,16.2184898 86.4606691,16.7791298 C87.1027171,17.2921538 87.5112931,17.9557058 87.7616611,18.6115778 C87.8922211,18.5086658 87.9705571,18.4456898 87.9874531,18.4334018 C88.5250531,18.0217538 89.3130211,18.0862658 89.7646051,18.5839298 C90.2177251,19.0800578 90.1777891,19.8296258 89.6693731,20.2796738 C89.6586211,20.2904258 89.0979811,20.7880898 88.3883491,21.4362818 C87.5911651,22.2257858 86.5374691,23.4085058 85.6158691,24.8922818 C83.3702371,28.5203138 82.9616611,32.1683138 84.4055011,35.7302978 C84.6558691,36.3631298 84.3271651,37.0681538 83.6666851,37.3108418 C83.5130851,37.3661378 83.3579491,37.3953218 83.2043491,37.3953218 M83.8264291,18.3566018 C83.6175331,18.3566018 83.3656291,18.3827138 83.0615011,18.4456898 C81.1276771,18.8573378 79.7237731,19.6898498 77.9543011,20.9893058 C75.3553891,22.8985538 72.4538851,25.2670658 70.6629091,28.3636418 C69.8488291,29.7644738 69.4479331,31.9870658 70.1698531,32.6352578 C70.6997731,33.1175618 71.4324451,33.1052738 72.3448291,32.6045378 C75.4398691,30.9087938 82.5684451,23.7648578 83.6989411,22.4899778 C84.1244131,22.0061378 84.8632291,21.2918978 85.6035811,20.5960898 C85.5482851,19.9939778 85.3516771,19.0800578 84.8017891,18.6469058 C84.7004131,18.5639618 84.4377571,18.3566018 83.8264291,18.3566018" id="Fill-7"></path>
            <path d="M88.6989283,51.9767234 C88.5007843,51.9767234 88.3057123,51.9321794 88.1229283,51.8476994 C87.3134563,51.4590914 85.8849763,50.2548674 85.6960483,48.1843394 C85.3796323,44.8005314 88.4116963,40.5350594 94.7077603,35.4693314 C95.6662243,33.5954114 96.7491043,31.4834114 97.8243043,29.3898434 C97.6323043,29.5495874 97.4387683,29.6985794 97.2406243,29.8429634 C97.0409443,29.9888834 96.8305123,30.1516994 96.6077923,30.3175874 C94.3498723,32.0210114 90.9368803,34.6014914 88.4700643,32.3205314 C85.9971043,30.0395714 90.1274083,23.9462594 91.3700323,22.4379074 C92.9859043,20.4795074 98.4632803,15.0159554 102.337072,15.5566274 C103.84696,15.7670594 104.608816,16.5089474 104.980528,17.0926274 C105.117232,17.3122754 105.224752,17.5380674 105.303088,17.7669314 C105.307696,17.7669314 105.310768,17.7684674 105.315376,17.7700034 C105.934384,18.0787394 106.18168,18.8006594 105.869872,19.3966274 C105.817648,19.4964674 102.470704,25.9215554 99.3418723,32.0025794 C100.801072,30.9427394 105.750064,27.3746114 107.690032,26.3454914 C108.307504,26.0152514 109.093936,26.2226114 109.438,26.8124354 C109.7836,27.4022594 109.562416,28.1487554 108.944944,28.4789954 C106.8652,29.5833794 100.55224,34.1959874 100.4908,34.2466754 C99.1099363,35.2189634 97.8811363,36.1390274 96.7890403,37.0037954 C96.0963043,38.3585474 95.4911203,39.5643074 95.0257123,40.5181634 C92.1702883,46.3073474 89.8985443,51.2025794 89.8755043,51.2486594 C89.7341923,51.5558594 89.4623203,51.7893314 89.1336163,51.9029954 C88.9923043,51.9552194 88.8448483,51.9767234 88.6989283,51.9767234 M91.6342243,41.6471234 C88.6789603,44.8235714 88.1720803,46.8172994 88.2504163,47.9155394 C88.2657763,48.1290434 88.3011043,48.3148994 88.3564003,48.4823234 C89.0890723,46.9248194 90.2595043,44.4687554 91.6342243,41.6471234 M90.2917603,30.5971394 C91.1703523,31.3006274 93.6648163,29.4205634 95.0088163,28.4021954 C95.2392163,28.2286274 95.4557923,28.0642754 95.6692963,27.9106754 C98.6660323,25.7019074 101.585968,21.4502594 102.888496,19.4073794 C102.942256,19.0679234 102.954544,18.6270914 102.77944,18.3582914 C102.73336,18.2876354 102.588976,18.0633794 101.963824,17.9727554 C99.9624163,17.6947394 95.5525603,21.3227714 93.3929443,23.9462594 C92.5435363,24.9784514 91.6035043,26.5052354 90.9967843,27.8415554 C90.2226403,29.5419074 90.2226403,30.3897794 90.2917603,30.5971394" id="Fill-9"></path>
            <path d="M113.308567,35.4191042 C111.681943,35.4191042 109.917079,34.9567682 108.456343,33.4161602 C104.978839,29.7574082 109.187479,20.6228162 113.717143,16.2513602 C117.898135,12.2208962 120.644503,13.7031362 121.627543,14.5264322 C122.633623,15.3635522 123.111319,16.4648642 123.005335,17.7090242 C122.573719,22.8684482 111.393175,29.7712322 109.835671,30.7128002 C109.933975,31.1459522 110.109079,31.5069122 110.360983,31.7772482 C111.732631,33.2180162 113.717143,33.3531842 116.793751,32.2057922 C118.200727,31.6820162 120.619927,29.8019522 123.982231,26.6162882 C124.134295,26.4780482 124.249495,26.3689922 124.323223,26.2983362 C124.833175,25.8298562 125.648791,25.8452162 126.137239,26.3275202 C126.634903,26.8128962 126.619543,27.5885762 126.108055,28.0570562 C126.043543,28.1200322 125.934487,28.2214082 125.799319,28.3504322 C123.456919,30.5653442 120.076183,33.6050882 117.733783,34.4821442 C116.921239,34.7816642 115.208599,35.4191042 113.308567,35.4191042 M118.959511,16.0347842 C118.236055,16.0347842 117.130135,16.4387522 115.546519,17.9701442 C112.849303,20.5736642 110.712727,24.5611202 109.990807,27.6715202 C111.153559,26.9112002 112.807831,25.7837762 114.460567,24.4889282 C118.134679,21.6212162 120.312727,19.0745282 120.443287,17.5139522 C120.484759,17.0377922 120.331159,16.6952642 119.931799,16.3619522 C119.758231,16.2160322 119.443351,16.0347842 118.959511,16.0347842" id="Fill-11"></path>
            <path d="M55.6463587,35.4160322 C55.5234787,35.4160322 55.3959907,35.3991362 55.2700387,35.3607362 C54.6141667,35.1702722 54.2347747,34.5236162 54.4021987,33.8907842 C54.4298467,33.7878722 54.7431907,32.6496962 55.4942947,31.0261442 C56.3974627,28.6576322 57.6969187,25.2907202 58.5647587,23.1618242 C59.7843427,20.1558722 58.6185187,17.7213122 58.6062307,17.6998082 C58.2944227,17.0900162 58.5601507,16.3604162 59.1991267,16.0639682 C59.8396387,15.7690562 60.6076387,16.0240322 60.9179107,16.6307522 C60.9808867,16.7551682 62.3402467,19.4861762 61.3049827,23.0496962 C67.9481827,17.0654402 71.3058787,18.0960962 72.7205347,19.2527042 C73.2596707,19.6920002 73.3195747,20.4630722 72.8618467,20.9776322 C72.3979747,21.4891202 71.5885027,21.5474882 71.0447587,21.1051202 C70.0202467,20.2695362 67.0987747,21.1496642 62.8809187,25.0019522 C60.3204067,27.3305282 58.7460067,30.0569282 57.8566627,31.9907522 C57.2760547,33.5021762 56.8628707,34.5789122 56.8551907,34.6096322 C56.6662627,35.1042242 56.1778147,35.4160322 55.6463587,35.4160322" id="Fill-14"></path>
            <path d="M5.0543587,39.6242114 C2.2665187,39.6242114 1.3756387,38.7456194 0.973206705,38.3462594 C-0.129641295,37.2633794 -0.292457295,35.6766914 0.470934705,33.6245954 C0.705942705,32.9902274 1.4416867,32.6584514 2.1098467,32.8811714 C2.7795427,33.1115714 3.1266787,33.8089154 2.8901347,34.4448194 C2.6612707,35.0653634 2.3433187,36.1789634 2.8256227,36.6551234 C3.0898147,36.9147074 4.8208867,38.1035714 12.7758307,35.7212354 C17.9659747,34.1683394 21.4880227,31.6846274 22.1976547,29.0857154 C22.8719587,26.6250434 18.1825507,22.0339394 15.0798307,18.9926594 C13.8909667,17.8299074 12.7681507,16.7285954 11.9940067,15.8208194 C10.5532387,14.1404354 9.9910627,12.2035394 10.3765987,10.2159554 C10.8711907,7.63701136 12.8787427,5.25928336 16.0275427,3.52206736 C20.7614947,0.906259365 26.2680547,-0.546796635 28.6165987,0.192019365 C29.0190307,0.298003365 30.7193827,0.849427365 31.2661987,2.55131536 C31.8160867,4.26702736 30.9497827,6.29608336 28.6165987,8.75368336 C28.1419747,9.24981136 27.3263587,9.28821136 26.7995107,8.83816336 C26.2711267,8.38350736 26.2327267,7.60936336 26.7088867,7.11016336 C29.0082787,4.69557136 28.8992227,3.56661136 28.8116707,3.27630736 C28.6473187,2.74485136 27.9177187,2.54517136 27.9146467,2.54363536 C27.8747107,2.53288336 27.8532067,2.52827536 27.8117347,2.51598736 C26.7933667,2.16885136 22.1607907,2.96142736 17.3177827,5.63713936 C14.8678627,6.99035536 13.2581347,8.81973136 12.9079267,10.6567874 C12.6575587,11.9362754 13.0261987,13.1527874 13.9877347,14.2786754 C14.6912227,15.1019714 15.7787107,16.1679554 16.9245667,17.2907714 C21.0487267,21.3319874 25.7181667,25.9092674 24.6829027,29.6985794 C23.3404387,34.6306754 16.4484067,37.1865794 13.5484387,38.0544194 C9.6009187,39.2356034 6.9083107,39.6242114 5.0543587,39.6242114" id="Fill-16"></path>
            <path d="M43.5016675,35.4168002 L43.5001315,35.4168002 C42.1054435,35.4168002 40.8520675,34.8116162 39.9719395,33.7210562 C38.5956835,32.0145602 38.3176675,29.3526722 39.1993315,26.2192322 C40.4020195,21.9230402 42.2436835,18.8310722 44.6659555,17.0262722 C46.6274275,15.5670722 48.3277795,15.4518722 48.8024035,15.4518722 C48.8638435,15.4518722 48.8914915,15.4534082 48.8914915,15.4534082 C50.6732515,15.5240642 51.9619555,16.4379842 52.5272035,18.0308162 C54.1062115,22.4667842 49.5043555,32.0637122 46.7426275,34.2386882 C45.7641955,35.0066882 44.6429155,35.4168002 43.5016675,35.4168002 M48.7824355,17.8971842 C48.6134755,17.8971842 44.1652195,18.0016322 41.6830435,26.8505282 C41.0225635,29.1944642 41.1408355,31.1574722 42.0086755,32.2326722 C42.3972835,32.7149762 42.9164515,32.9699522 43.5016675,32.9699522 C44.0377315,32.9699522 44.5876195,32.7595202 45.1021795,32.3601602 C47.1527395,30.7412162 51.2477155,22.0643522 50.0972515,18.8126402 C49.8699235,18.1798082 49.5043555,17.9232962 48.7824355,17.8971842" id="Fill-19"></path>
        </g>
    </g>
</svg>