<?xml version="1.0" encoding="UTF-8"?>
<svg width="144px" height="96px" viewBox="0 0 144 96" version="1.1" xmlns="http://www.w3.org/2000/svg" xmlns:xlink="http://www.w3.org/1999/xlink">
    <title>Brand/Space/Understage</title>
    <defs>
        <polygon id="path-1" points="0 0 11.2651504 0 11.2651504 13.2968401 0 13.2968401"></polygon>
        <polygon id="path-3" points="0 0 120 0 120 37.0502362 0 37.0502362"></polygon>
    </defs>
    <g id="Brand/Space/Understage" stroke="none" stroke-width="1" fill="none" fill-rule="evenodd">
        <rect id="Rectangle" fill="#FFFFFF" x="0" y="0" width="144" height="96"></rect>
        <g id="Group" transform="translate(12.000000, 21.000000)">
            <g id="Group-3" transform="translate(0.000000, 40.703160)">
                <mask id="mask-2" fill="white">
                    <use xlink:href="#path-1"></use>
                </mask>
                <g id="Clip-2"></g>
                <path d="M5.65986794,13.2968401 C9.06216679,13.2968401 11.2651504,11.2266852 11.2651504,8.02555747 L11.2651504,0 L7.70633407,0 L7.70633407,7.77642708 C7.70633407,8.50009154 7.62416239,10.1787558 5.64030325,10.1787558 L5.62073857,10.1787558 C3.63687943,10.1787558 3.55275128,8.50009154 3.55275128,7.77642708 L3.55275128,0 L-0.000195646857,0 L-0.000195646857,8.02555747 C-0.000195646857,11.2266852 2.2008315,13.2968401 5.60508682,13.2968401 L5.65986794,13.2968401 Z" id="Fill-1" fill="#000000" mask="url(#mask-2)"></path>
            </g>
            <path d="M30.0945953,43.6773022 L31.4386892,43.6773022 C33.2405967,43.6773022 35.3966251,44.2783787 35.3966251,47.1493098 C35.3966251,50.1981912 32.8688677,50.652953 31.3662998,50.652953 L30.0945953,50.652953 L30.0945953,43.6773022 Z M31.5071656,40.7035553 L26.7294693,40.7035553 L26.7294693,53.6583355 L31.6539007,53.6583355 C35.2890193,53.6583355 38.9613108,51.6474973 38.9613108,47.1493098 C38.9613108,41.332313 33.751235,40.7035553 31.5071656,40.7035553 L31.5071656,40.7035553 Z" id="Fill-4" fill="#000000"></path>
            <path d="M54.5463438,43.5311852 L55.9902177,43.5311852 C57.2227929,43.5311852 57.8488628,43.9424481 57.8488628,44.7452016 C57.8488628,45.6349529 57.1660553,46.0877375 55.8102225,46.0877375 L54.5463438,46.0877375 L54.5463438,43.5311852 Z M58.7155784,48.1934825 C60.3335779,47.6161327 61.2531181,46.3507085 61.2531181,44.6957709 C61.2531181,42.1570137 59.4120812,40.7037531 56.2015163,40.7037531 L51.1753485,40.7037531 L51.1753485,53.6585332 L54.5561262,53.6585332 L54.5561262,48.6660393 L55.3074101,48.6660393 L58.0503791,53.6585332 L62.0865737,53.6585332 L58.7155784,48.1934825 Z" id="Fill-6" fill="#000000"></path>
            <polygon id="Fill-8" fill="#000000" points="74.2266569 40.7041485 74.2266569 43.6778954 77.8109073 43.6778954 77.8109073 53.6589286 81.2582049 53.6589286 81.2582049 43.6778954 84.8424554 43.6778954 84.8424554 40.7041485"></polygon>
            <path d="M91.6053803,48.3799348 L88.9504524,48.3799348 L90.2906334,44.7892937 L91.6053803,48.3799348 Z M91.9614576,40.7043462 L88.7352409,40.7043462 L83.249303,53.6591264 L86.9959403,53.6591264 L87.9291758,51.1935264 L92.5914404,51.1935264 L93.5755441,53.6591264 L97.3945708,53.6591264 L91.9614576,40.7043462 Z" id="Fill-10" fill="#000000"></path>
            <polygon id="Fill-12" fill="#000000" points="114.381609 50.6889385 114.381609 48.4546739 119.994718 48.4546739 119.994718 45.6410823 114.381609 45.6410823 114.381609 43.6599026 119.959501 43.6599026 119.959501 40.7039508 111.049743 40.7039508 111.049743 53.6587309 119.994718 53.6587309 119.994718 50.6889385"></polygon>
            <polygon id="Fill-14" fill="#000000" points="43.6552702 50.6889385 43.6552702 48.4546739 49.270335 48.4546739 49.270335 45.6410823 43.6552702 45.6410823 43.6552702 43.6599026 49.2312057 43.6599026 49.2312057 40.7039508 40.3214478 40.7039508 40.3214478 53.6587309 49.270335 53.6587309 49.270335 50.6889385"></polygon>
            <path d="M69.0026901,45.6357438 C67.736855,45.242276 67.1792614,44.9931456 67.1792614,44.338684 C67.1792614,43.3737981 68.2905356,43.2650507 68.7659574,43.2650507 C69.8067987,43.2650507 70.7400342,43.7376076 71.3250183,44.1231665 L73.2540964,42.1083739 L73.1151871,41.9818315 C72.0313035,40.9932188 70.3898264,40.3822562 68.822695,40.3822562 C66.2851553,40.3822562 63.720225,41.6595438 63.720225,44.5166343 C63.720225,46.9051225 65.4301785,47.7691699 67.1362191,48.3168613 C68.8481291,48.8625755 70.0141844,49.1374098 70.0141844,49.9184138 C70.0141844,50.9445938 68.6192223,51.0948629 68.0322817,51.0948629 C67.9090242,51.0948629 67.7877232,51.0849767 67.6546833,51.0691589 C66.893617,51.0691589 65.649303,50.3375856 65.0330154,49.9401633 L63.0178528,51.9767054 L63.1430668,52.1091795 C64.2543409,53.2619018 66.1266813,53.9816118 68.0322817,53.9816118 C70.8222059,53.9816118 73.4927855,52.8308667 73.4927855,49.5981033 C73.4927855,46.9367581 70.7282954,46.1834352 69.0026901,45.6357438" id="Fill-16" fill="#000000"></path>
            <path d="M103.550795,45.8546227 L103.550795,48.6840321 L105.972903,48.6840321 L105.972903,50.6612574 C105.495525,50.8392076 104.900758,50.9341145 104.237515,50.9341145 C101.962142,50.9341145 100.549572,49.4887628 100.549572,47.1615686 C100.549572,44.9925525 102.036488,43.42659 104.092737,43.42659 C105.315529,43.42659 106.356371,43.8675113 107.152653,44.4626561 L109.142382,42.2145509 L109.015212,42.0880085 C107.900024,41.0242613 105.980729,40.3658453 103.989044,40.3658453 C99.8198092,40.3658453 96.9066275,43.1616418 96.9066275,47.1615686 C96.9066275,51.1733587 99.8608951,53.9810186 104.075128,53.9810186 C105.914209,53.9810186 107.6809,53.5855736 109.056297,52.8737725 L109.15999,52.8223646 L109.15999,45.8546227 L103.550795,45.8546227 Z" id="Fill-18" fill="#000000"></path>
            <polygon id="Fill-20" fill="#000000" points="21.5941306 40.7041485 21.5941306 48.4133499 16.8086085 40.7041485 13.0169724 40.7041485 13.0169724 53.6589286 16.3703595 53.6589286 16.3644901 53.3247776 16.3644901 45.9279777 21.1754463 53.6589286 24.9455613 53.6589286 24.9455613 40.7041485"></polygon>
            <g id="Group-24">
                <mask id="mask-4" fill="white">
                    <use xlink:href="#path-3"></use>
                </mask>
                <g id="Clip-23"></g>
                <path d="M0,-0.000988612647 L0,37.0502362 L3.56077281,37.0502362 L3.56077281,3.46904178 L116.437271,3.46904178 L116.437271,37.0502362 L120,37.0502362 L120,-0.000988612647 L0,-0.000988612647 Z M7.12545855,37.0502362 L10.6881878,37.0502362 L10.6881878,10.7155725 L109.307899,10.7155725 L109.307899,37.0502362 L112.870629,37.0502362 L112.870629,7.24751931 L7.12545855,7.24751931 L7.12545855,37.0502362 Z M14.2567865,37.0502362 L17.8136464,37.0502362 L17.8136464,17.9640804 L102.186354,17.9640804 L102.186354,37.0502362 L105.741257,37.0502362 L105.741257,14.49405 L14.2567865,14.49405 L14.2567865,37.0502362 Z M21.3881145,37.0502362 L24.9449743,37.0502362 L24.9449743,25.2106111 L95.0550257,25.2106111 L95.0550257,37.0502362 L98.6157985,37.0502362 L98.6157985,21.7386035 L21.3881145,21.7386035 L21.3881145,37.0502362 Z" id="Fill-22" fill="#000000" mask="url(#mask-4)"></path>
            </g>
        </g>
    </g>
</svg>