<?xml version="1.0" encoding="UTF-8"?>
<svg width="144px" height="96px" viewBox="0 0 144 96" version="1.1" xmlns="http://www.w3.org/2000/svg" xmlns:xlink="http://www.w3.org/1999/xlink">
    <title>Brand/Space/Vinyl&amp;Plastic</title>
    <g id="Brand/Space/Vinyl&amp;Plastic" stroke="none" stroke-width="1" fill="none" fill-rule="evenodd">
        <rect id="Rectangle" fill="#FFFFFF" x="0" y="0" width="144" height="96"></rect>
        <g id="Group" transform="translate(21.000000, 17.000000)" fill="#000000">
            <path d="M76.5534727,33.3397504 L75.9152,60.1048823 L85.5696545,60.3368105 L86.2063818,33.5732351 L76.5534727,33.3397504 Z M82.4308364,57.0509022 L79.2085636,56.9715174 L79.6953818,36.6287718 L82.9130182,36.703487 L82.4308364,57.0509022 Z" id="Fill-1"></path>
            <path d="M1.28427273,33.8823689 L0.624363636,60.6459443 L16.949,61.0444249 L17.6073636,34.2808495 L1.28427273,33.8823689 Z M14.1548182,43.5003829 C14.1038182,45.810325 13.5026364,49.458913 9.73327273,49.3670756 L7.34245455,49.3079262 L7.14,57.5904075 L3.92236364,57.517249 L4.42618182,37.1713903 L10.2216364,37.3130377 C13.1595455,37.3846397 14.2490909,39.7786364 14.1548182,43.5003829 L14.1548182,43.5003829 Z" id="Fill-2"></path>
            <path d="M9.18123636,40.4172949 L7.56623636,40.3768243 L7.42096364,46.182811 L9.20441818,46.2263948 C10.1656909,46.2481867 10.8642364,44.884636 10.8951455,43.5335377 C10.9399636,41.872683 10.6293273,40.4515394 9.18123636,40.4172949" id="Fill-4"></path>
            <path d="M15.8569818,59.3222416 L30.3317091,59.3222416 L30.3317091,32.5477702 L15.8569818,32.5477702 L15.8569818,59.3222416 Z M27.1202545,56.1094918 L19.0761636,56.1094918 L19.0761636,35.76052 L22.3015273,35.76052 L22.3015273,52.7270764 L27.1202545,52.7270764 L27.1202545,56.1094918 Z" id="Fill-6"></path>
            <path d="M47.7482091,34.6827545 L28.6263,34.9644927 L29.0203909,61.7327378 L48.1438455,61.4556693 L47.7482091,34.6827545 Z M41.4891182,58.3394265 L40.5649364,53.8425108 L36.1804818,53.9094431 L35.3706636,58.4297073 L32.1947545,58.4764042 L36.1573,38.068283 L40.4026636,38.0060204 L44.8767545,58.2896165 L41.4891182,58.3394265 Z" id="Fill-8"></path>
            <polygon id="Fill-9" points="38.1163182 41.9564262 36.7702273 50.7696962 39.8395 50.7245558 38.1534091 41.9564262"></polygon>
            <path d="M46.0262636,32.7074738 L45.5889,59.4726057 L61.9784455,59.7450046 L62.4189,32.9752029 L46.0262636,32.7074738 Z M53.4382636,56.7314951 C49.4556273,56.6645628 48.7586273,53.5561029 48.9889,50.0335967 L52.2019,50.0880765 C52.1694455,52.0306693 52.2080818,53.6681755 53.9745364,53.6930806 C55.0625364,53.7117593 55.6158091,52.7949427 55.6359,51.4111566 C55.6930818,47.7485595 49.2238091,47.4185678 49.3196273,41.358861 C49.3752636,38.1710163 50.5668091,35.654051 54.4829909,35.7209832 C57.6187182,35.7707933 59.1456273,37.6573499 58.8643545,41.9083284 L55.7332636,41.8554052 C55.7549,40.3346413 55.5879909,38.7796331 54.2898091,38.7609543 C53.2450818,38.7438321 52.6145364,39.4925398 52.5913545,40.9027875 C52.5264455,44.7630682 59.0127182,44.5342532 58.9060818,50.9286215 C58.8164455,56.202263 55.8893545,56.7719658 53.4382636,56.7314951 L53.4382636,56.7314951 Z" id="Fill-10"></path>
            <path d="M60.9502545,34.1667533 L60.0631636,60.925659 L76.8746182,61.4782395 L77.7586182,34.7193338 L60.9502545,34.1667533 Z M74.3277091,41.2039828 L70.7438,41.0872404 L70.1781636,58.0444575 L66.9682545,57.9386111 L67.5246182,40.9782809 L63.9515273,40.8646517 L64.0612545,37.4853495 L74.4374364,37.8246806 L74.3277091,41.2039828 Z" id="Fill-11"></path>
            <path d="M85.6073636,34.9266682 L85.1128182,61.6980264 L101.503909,62 L102,35.2301984 L85.6073636,34.9266682 Z M93.6916364,58.9818208 C88.3814545,58.8822007 88.4819091,53.7003964 88.5808182,48.3722751 C88.6797273,42.9896739 88.7709091,37.8592363 94.0764545,37.960413 C97.3620909,38.0226756 98.6386364,40.4400208 98.4269091,44.803072 L95.2741818,44.7470356 C95.3298182,42.0401694 94.9851818,41.0206195 94.0239091,41.0019407 C92.2110909,40.9676963 91.9375455,43.2200455 91.8432727,48.429868 C91.7443636,53.6474732 91.9344545,55.9044922 93.7503636,55.9371801 C95.2386364,55.9651982 95.2262727,53.426441 95.2896364,51.8216227 L98.4717273,51.8807722 C98.3712727,57.3194096 96.6975455,59.0363006 93.6916364,58.9818208 L93.6916364,58.9818208 Z" id="Fill-12"></path>
            <path d="M9.49063636,20.7595936 L11.7732727,5.8959562 L14.9414545,5.807232 L11.4301818,26.2589371 L7.67009091,26.36634 L3.31345455,6.12788435 L6.65627273,6.03604703 L9.45663636,20.7611502 L9.49063636,20.7595936 Z M0,3.0069719 L0.746454545,29.7689907 L18.8081818,29.27089 L18.071,2.50887116 L0,3.0069719 Z" id="Fill-13"></path>
            <path d="M20.2462273,23.6302104 L20.7299545,3.28746488 L23.9568636,3.36373656 L23.4731364,23.7049255 L20.2462273,23.6302104 Z M17.5926818,0 L16.9605909,26.7635754 L26.6135,26.9970601 L27.2440455,0.227258463 L17.5926818,0 Z" id="Fill-14"></path>
            <path d="M24.6674636,2.05264202 L23.8313727,28.8084346 L41.7385545,29.3703545 L42.5792818,2.60833566 L24.6674636,2.05264202 Z M38.6229182,26.0579845 L34.7422818,25.9365725 L30.6298273,11.6395247 L30.5927364,11.6364116 L30.1430091,25.7949251 L27.1386455,25.6999746 L27.7784636,5.36034224 L32.1273727,5.49731995 L35.7792818,19.7087567 L35.8132818,19.7118698 L36.2645545,5.62495826 L39.2689182,5.71679559 L38.6229182,26.0579845 Z" id="Fill-15"></path>
            <path d="M41.4976182,27.9107636 L59.4882545,27.9107636 L59.4882545,1.13784888 L41.4976182,1.13784888 L41.4976182,27.9107636 Z M51.9696182,17.6530015 L51.9696182,24.701127 L48.7458,24.701127 L48.7458,17.6530015 L44.7229818,4.35059865 L48.2373455,4.35059865 L50.5369818,12.944393 L52.9865273,4.35059865 L56.2737091,4.35059865 L51.9696182,17.6530015 Z" id="Fill-16"></path>
            <path d="M58.9165909,2.90237075 L57.0929545,29.6099098 L71.5367727,30.5905456 L73.3588636,3.88145002 L58.9165909,2.90237075 Z M68.5416818,27.1692162 L60.5285,26.6228619 L61.9070455,6.32058708 L65.1262273,6.54006271 L63.9625,23.467705 L68.7704091,23.7961402 L68.5416818,27.1692162 Z" id="Fill-17"></path>
            <path d="M76.5825273,28.724847 L96.9639818,28.724847 L96.9639818,1.86320808 L76.5825273,1.86320808 L76.5825273,28.724847 Z M90.5688909,25.5027579 L89.6308,23.8917133 C88.4098909,25.4731831 86.9757091,25.8436456 85.3220727,25.8436456 C81.7798909,25.8436456 79.8094364,23.6379932 79.8094364,19.6500742 C79.8094364,16.9338686 81.2389818,15.2076382 82.8478,13.8238521 C82.0348909,12.4385094 81.1369818,10.8274648 81.1369818,8.70586699 C81.1369818,6.44106519 83.1646182,4.74596611 85.7949818,4.74596611 C87.2693455,4.74596611 89.7127091,5.65188683 89.7127091,8.73077203 C89.7127091,11.3940544 88.3233455,12.7498224 87.0869818,14.2207761 L89.5025273,18.4063789 C89.7776182,17.0786291 89.8394364,16.3112427 89.8394364,14.3344054 L92.4466182,14.3344054 C92.4466182,16.4560032 92.4466182,19.1130593 91.4034364,21.3187117 L93.7370727,25.5027579 L90.5688909,25.5027579 Z M86.7578,9.04675469 C86.7578,7.96961184 86.2678909,7.29094958 85.4302545,7.29094958 C84.7440727,7.29094958 84.0857091,7.94159367 84.0857091,8.90510729 C84.0857091,10.0647481 84.6683455,10.9971304 85.2185273,11.8454582 C85.9680727,11.2212757 86.7578,10.3184681 86.7578,9.04675469 L86.7578,9.04675469 Z M83.0348,19.6500742 C83.0348,21.6004499 83.9141636,22.7881088 85.3931636,22.7881088 C86.3065273,22.7881088 87.1920727,22.394298 87.7422545,21.4323409 L84.5957091,16.3408174 C83.8338,17.1315523 83.0348,18.2943062 83.0348,19.6500742 L83.0348,19.6500742 Z" id="Fill-18"></path>
        </g>
    </g>
</svg>